<svg id="Artwork" xmlns="http://www.w3.org/2000/svg" width="160" height="60" viewBox="0 0 160 60">
  <title>mlk-signature</title>
  <g>
    <path d="M151.85525,33.76337l.6863-.377-.02273-.215-.99419-.17226c-.17222-.44759-.35885-1.00024-.59407-1.52464a2.38627,2.38627,0,0,1-.13222-1.52594,12.062,12.062,0,0,0,.20655-2.20676c.00487-.57869-.30322-.80469-.807-.70383a5.32112,5.32112,0,0,0-.68983.238c-.16549-.5124-.33976-1.00538-.47912-1.51087a1.17613,1.17613,0,0,1,.01608-.52932c.58362-2.68264,1.23345-5.34863,1.74888-8.048a36.645,36.645,0,0,0,.70016-10.553,13.77148,13.77148,0,0,0-1.52051-5.3295A2.7126,2.7126,0,0,0,148.68827,0h-.64092a5.92951,5.92951,0,0,0-.75362.49046,5.04234,5.04234,0,0,0-1.564,2.88888,35.14678,35.14678,0,0,0-.04154,12.63673,74.06208,74.06208,0,0,0,2.23287,9.31086,1.67119,1.67119,0,0,1,.01968.86764c-.43786,1.53005-.9079,3.04823-1.37712,4.56637a2.1463,2.1463,0,0,1-.27344.54908q-2.18792,3.26249-4.3853,6.51666c-.0649.09635-.13547.18774-.24754.34231a6.98106,6.98106,0,0,0-.39485-3.70125,2.03857,2.03857,0,0,0-1.812-1.347,11.225,11.225,0,0,0-4.77643.958c-.129.05126-.25763.104-.44525.17979.98472-2.11709,2.50257-3.6391,3.79875-5.45744a1.069,1.069,0,0,0-1.02836.37128c-.87476,1.06667-1.7511,2.13207-2.64732,3.17509a5.06784,5.06784,0,0,1-.88442.7722.33618.33618,0,0,1-.54968-.14545,1.77853,1.77853,0,0,1,.32444-1.77943c.764-.68772,1.51235-1.398,2.27793-2.08329a3.76138,3.76138,0,0,1,.7396-.52214c.38943-.206.7979-.36518,1.19825-.54426l-.0558-.19017a8.75461,8.75461,0,0,0-1.011.34442,9.12167,9.12167,0,0,0-4.36047,3.39113.56313.56313,0,0,1-.15179.14581c-.6115.46212-1.22117.92753-1.83936,1.37769a1.17341,1.17341,0,0,1-.365.11544,1.46171,1.46171,0,0,1-.075-.46749c.10664-.57833.22865-1.15453.37588-1.721.09915-.3817.28828-.77712-.02547-1.10332-.32428-.33715-.69636-.11959-1.00951.06255-.50608.29438-.98631.64647-1.46895.96851.13048-.42236.29062-.85226.39386-1.29921.10672-.462-.06966-.75853-.47749-.70947a2.99978,2.99978,0,0,0-1.364.41437,19.234,19.234,0,0,0-2.03721,1.75267c-.669.62842-1.28671,1.32837-1.96216,1.94695a2.4242,2.4242,0,0,1-.99062.54629.74.74,0,0,1-.65482-.2821.99865.99865,0,0,1-.00931-.74463,2.12527,2.12527,0,0,1,.49721-.75956c.48253-.47625.99772-.90953,1.50067-1.35875.19182-.17135.38642-.33864.5797-.50779l-.0508-.15181a1.61755,1.61755,0,0,0-.54371.12045,6.2148,6.2148,0,0,0-.92572.70406c-.46569.43057-.89467.91264-1.36052,1.34294-.66092.61051-1.3416,1.19316-2.013,1.789-.18945.1681-.36788.35408-.56568.50788-.32143.24992-.48617.182-.48157-.25291a10.8117,10.8117,0,0,1,.15835-1.57982c.22406-1.40356.48613-2.79939.6983-4.20516a1.28706,1.28706,0,0,0-.36348-1.26284,6.92782,6.92782,0,0,1,2.22245-2.5695,45.26149,45.26149,0,0,0,6.25781-4.66308c1.36322-1.26867,2.69884-2.57655,4.02661-3.89332a4.35747,4.35747,0,0,0,.64405-.97794.484.484,0,0,0-.00463-.4086.46854.46854,0,0,0-.39576-.1019.45366.45366,0,0,0-.38471.59859,33.31715,33.31715,0,0,1-9.90522,8.24929l-.08545-.07839q5.0496-7.12072,10.11553-14.26439a.89175.89175,0,0,0-.9534.38559q-5.16117,7.33233-10.33654,14.65163a2.21429,2.21429,0,0,1-.471.474c-1.38709,1.0515-2.78286,2.0882-4.16941,3.14065-.77686.58966-1.5192,1.24227-2.317,1.79122a4.15422,4.15422,0,0,1-3.16793.995.28613.28613,0,0,0-.232.03064c-.11278.11359-.26361.2566-.27308.39858-.00673.10149.18185.29961.29894.31694a3.28612,3.28612,0,0,0,.99071.02062,6.54638,6.54638,0,0,0,2.632-1.16125c1.56581-1.07344,3.10916-2.18939,4.6623-3.28679.11512-.08136.23423-.15538.35149-.23277a172.221,172.221,0,0,0-8.48823,15.10748c.59788.10461.75438.00718,1.0309-.5,1.844-3.38242,3.68388-6.76781,5.54775-10.13591.55859-1.0094,1.1895-1.96676,1.78729-2.948a2.07872,2.07872,0,0,1,.03766.86688c-.20362,1.13084-.44862,2.25256-.63169,3.38747a14.33625,14.33625,0,0,0-.19388,2.12308c-.00713.68425.35663,1.00268.923.80064a4.06483,4.06483,0,0,0,1.21567-.73114,13.08381,13.08381,0,0,0,1.11346-1.194c.11789.6619.31272.84386.87218.89251a3.38315,3.38315,0,0,0,2.5139-.996c.70147-.60427,1.34053-1.30188,2.03151-1.923a9.05841,9.05841,0,0,1,1.29768-.97113c.18481-.1139.45017-.05812.67885-.07952a2.11592,2.11592,0,0,1-.092.76016c-.47939.81868-1.0048,1.60243-1.51563,2.39706-.08087.12582-.17325.242-.30646.42652a1.26353,1.26353,0,0,0,1.03359-.38486c.78831-.79518,1.59257-1.572,2.42143-2.3111a2.2108,2.2108,0,0,1,.79524-.284,6.5808,6.5808,0,0,1-.1201.947c-.11773.43324-.32836.83466-.43774,1.26975-.18461.73447.09417,1.079.742.89964a5.61091,5.61091,0,0,0,1.26561-.53924c.42514-.2423.81409-.56714,1.24438-.8741.1001.6068.13911,1.34723.68974,1.49525.44217.11887.96588-.15619,1.4804-.262-.2671.36888-.48019.92126-.84324,1.12258-2.36093,1.30932-4.75433,2.5426-7.13768,3.79935-.1043.055-.21411.09644-.33659.151-.05536-.07631-.09366-.14-.14114-.19293a2.46911,2.46911,0,0,0-4.12275.02473c-.4337.4985-.379.89942.17891,1.20774a2.19067,2.19067,0,0,0,1.71609.19893c.66939-.19193,1.3332-.40905,2.10464-.64773.26738.74688.60421,1.49327.80494,2.28447a46.2742,46.2742,0,0,1,1.2108,7.93758A6.71238,6.71238,0,0,1,127.1,51.83727q-.81461,2.97646-1.51017,5.99451A16.992,16.992,0,0,0,125.37033,60a1.08525,1.08525,0,0,0,1.09438-.55418,19.7175,19.7175,0,0,0,1.0528-2.242,18.42717,18.42717,0,0,0,.82533-6.31958,2.58523,2.58523,0,0,1,.0838-.80316c.84854-2.62185,1.66817-5.25765,2.58581-7.84819.8375-2.36421,1.77894-4.681,2.69674-7.00725a.9825.9825,0,0,1,.50628-.511c1.02563-.37886,2.055-.75568,3.10152-1.04767,1.58023-.44082,2.78564.32854,3.358,2.06754a4.86556,4.86556,0,0,1,.16458,2.73282,9.48155,9.48155,0,0,1-.86644,2.41476c-2.00089,3.43174-4.06871,6.8127-6.10239,10.21975a7.89657,7.89657,0,0,0-.60579,1.28076,2.56336,2.56336,0,0,0-.0459.72816,2.22484,2.22484,0,0,0,.6869-.00262,1.82419,1.82419,0,0,0,.61756-.4053,9.80034,9.80034,0,0,0,.74364-.76273,58.35592,58.35592,0,0,0,11.6697-19.86542,15.71319,15.71319,0,0,1,2.04757-3.37677c.14173.428.231.7954.38056,1.12745a2.42056,2.42056,0,0,1,.10925,1.74717,5.23971,5.23971,0,0,0-.15673,1.03007c-.11318,1.40129.2726,1.76828,1.47932,1.36984.74123,2.18094,1.589,4.33986.54192,6.70439a.61693.61693,0,0,0,.95792-.35363,6.19641,6.19641,0,0,0,.26353-3.70147C152.368,35.64781,152.08865,34.69618,151.85525,33.76337Zm-28.75057,5.74048a.80159.80159,0,0,1-.92865-.76407.94128.94128,0,0,1,.96809-.86377,2.23823,2.23823,0,0,1,1.88562,1.0612l.0055.19622A16.87707,16.87707,0,0,1,123.10468,39.50385ZM126.577,57.83011l-.21658-.05975q.41117-1.92594.82241-3.8518l.20845.0575Q126.98419,55.90308,126.577,57.83011Zm1.645-9.761c-.50691-3.14124-.594-6.36051-2.3403-9.07163q3.51924-1.87687,7.01219-3.7397l.073.08827A111.96372,111.96372,0,0,0,128.222,48.06914Zm5.95829,3.98267c.17221-.40368.31568-.82771.52287-1.20652.37338-.68253.77362-1.34715,1.18233-2.00327q3.26488-5.24157,6.54431-10.47131c.90988-1.4429,1.86914-2.84542,2.80595-4.2663A55.067,55.067,0,0,1,134.18031,52.05181Zm13.82106-23.13569.4672-1.57008C148.86916,27.8573,148.81269,28.07234,148.00137,28.91612Zm.5883-5.20075c-.01782.07153-.04935.13868-.10387.28883a69.81229,69.81229,0,0,1-2.12555-9.18969,37.08394,37.08394,0,0,1,.129-10.48466c.09761-.76367.2673-1.51557.40918-2.27152a2.0101,2.0101,0,0,1,.11179-.341c.49761-1.30125,1.29246-1.41623,2.02382-.25665a10.66914,10.66914,0,0,1,1.17009,3.41739,26.38854,26.38854,0,0,1,.3758,8.10975A69.08434,69.08434,0,0,1,148.58967,23.71537Z" fill="#777677"/>
    <path d="M64.08767,30.23537c-4.40039,1.014-8.74836,2.01586-13.18106,3.03731.09947-.18972.14747-.278.19277-.36816.89487-1.78025,1.80974-3.548,2.67733-5.34538a12.62464,12.62464,0,0,0,1.30647-4.18341c.047-.44759-.09983-.6101-.47622-.456a1.5794,1.5794,0,0,0-.62417.46365,7.034,7.034,0,0,0-.7301,1.137q-2.27981,4.44942-4.53111,8.9177a.87914.87914,0,0,1-.64076.51763c-3.25181.76064-6.50543,1.51208-9.74916,2.31547a9.06338,9.06338,0,0,0-1.76994.79558c-.23594.11769-.27657.34284-.1066.59863a1.60811,1.60811,0,0,0,1.41184.57535,2.83558,2.83558,0,0,0,.503-.32791l-.64029-.40381a3.431,3.431,0,0,1,.5456-.41009,9.33312,9.33312,0,0,1,1.43193-.57065c2.18257-.56962,4.37144-1.10819,6.55908-1.65258.61439-.15289,1.23231-.2876,1.92676-.44876-.14271.27339-.23177.45783-.332.634-1.72017,3.02328-3.43463,6.05084-5.1695,9.06319a7.98026,7.98026,0,0,1-1.07584,1.5148c-1.06753,1.12358-2.17782,2.19471-3.28257,3.2714-.11472.11187-.30678.12071-.463.17731a2.06021,2.06021,0,0,1-.10961-.55531,7.15925,7.15925,0,0,1,.17669-1.07326c.17745-.74752.40063-1.48167.56034-2.23365.22132-1.04185-.28849-1.61724-1.196-1.33754a3.1095,3.1095,0,0,0-1.11976.57594c-.80518.69792-1.56882,1.459-2.33919,2.208-.77132.74986-1.51742,1.53429-2.30427,2.26191a2.41978,2.41978,0,0,1-.7849.32917,2.8812,2.8812,0,0,1-.00285-.94708c.43544-1.18738.9256-2.34873,1.39862-3.51807.063-.15565.14133-.30322.229-.48955a1.08134,1.08134,0,0,0-1.09231.43824q-1.41181,1.71137-2.87993,3.36192a6.61578,6.61578,0,0,1-1.0185.87835c-.13012.0973-.39231.17794-.47068.10154a.71046.71046,0,0,1-.14672-.56154,3.451,3.451,0,0,1,.45227-1.14149,17.40642,17.40642,0,0,1,2.65741-3.1449c.93416-.78465,1.83846-1.61652,2.74077-2.44892a11.05385,11.05385,0,0,0,.98318-1.06743,3.31006,3.31006,0,0,0,.31585-.59029l-.09381-.15362a2.76535,2.76535,0,0,0-.90525.33725,19.93057,19.93057,0,0,0-2.156,2.019,23.06452,23.06452,0,0,1-4.16644,3.82341,23.88949,23.88949,0,0,0-3.868,3.23042,11.16453,11.16453,0,0,1-1.275,1.09812,1.25428,1.25428,0,0,1-.47322.12993,2.38412,2.38412,0,0,1,.01149-.518,16.83938,16.83938,0,0,1,1.63716-3.892,150.66194,150.66194,0,0,0,6.96851-14.973c.62219-1.5611,1.19769-3.14837,1.73918-4.748a4.32879,4.32879,0,0,0,.15661-1.51683.74312.74312,0,0,0-.78779-.7787,2.02765,2.02765,0,0,0-1.53682.652,7.14182,7.14182,0,0,0-1.53152,2.42776,44.334,44.334,0,0,1-2.90784,5.55487c-.076.12762-.15745.251-.23637.37637.15844-.73564.36515-1.43762.54164-2.14935a4.226,4.226,0,0,0-.02894-2.28966c-.33977-1.1076-1.09529-1.51033-1.98066-.92907a7.62205,7.62205,0,0,0-1.63772,1.50194c-.59324.715-1.08428,1.5402-1.61923,2.318q-.28512.41469-.56913.83037l-.07211-.0602c.92244-1.59927,1.84491-3.19855,2.79439-4.84467a.95288.95288,0,0,0-1.11251.436,87.47463,87.47463,0,0,1-8.37073,9.61421,73.859,73.859,0,0,1-7.729,6.72006A8.1808,8.1808,0,0,1,2.45858,45.4786c-.86426.29429-1.44245-.22181-1.5961-1.24718a8.161,8.161,0,0,1,.29842-3.10229c.1605-.68434.35759-1.35753.53773-2.03356-.48173-.19166-.82031-.05014-.94156.43067C.48921,40.58826.25055,41.65984,0,42.72755V44.097c.11951.40111.20829.81864.36511,1.1998.29319.71267.679.95362,1.35367.832A4.8562,4.8562,0,0,0,2.90923,45.761a28.25793,28.25793,0,0,0,5.02868-3.08614,61.53394,61.53394,0,0,0,10.1522-10.14908c.091-.11016.17887-.22352.26821-.3354l.107.10547Q11.63035,43.87822,4.78245,55.4826a.82486.82486,0,0,0,.99593-.433c1.45659-2.42022,2.96067-4.8042,4.3859-7.248A174.77347,174.77347,0,0,1,22.22835,29.4462c.36622-.47791.72832-.95994,1.04044-1.3716a1.72264,1.72264,0,0,1,1.04935,2.0488,15.94975,15.94975,0,0,1-.51143,2.38371,34.26669,34.26669,0,0,1-3.8022,7.88975c-2.44524,3.97035-5.00207,7.85139-7.51062,11.77111-.08756.13683-.16292.28377-.26437.4618a.92008.92008,0,0,0,1.07267-.44456c2.74378-3.98637,5.34366-8.08909,7.8576-12.26892C23.69366,35.70323,26.40136,31.626,28.64512,27.19A14.24723,14.24723,0,0,1,29.91345,25.261c.12248-.16788.381-.20678.57717-.30489a1.91956,1.91956,0,0,1,.2176.69128,6.829,6.829,0,0,1-.31735,1.63376c-.422,1.1474-.89646,2.27156-1.38484,3.38512-1.51342,3.451-3.0057,6.91514-4.57943,10.33036-1.14648,2.48818-2.425,4.89694-3.609,7.36337a11.96464,11.96464,0,0,0-.757,2.14854c-.17975.68989.08925.95935.71457.87207a3.49958,3.49958,0,0,0,1.84717-.91932c1.09322-.97393,2.16907-1.97308,3.25655-2.95549.18557-.16761.39311-.30367.623-.47918-.19788.51339-.38494.94911-.53435,1.40094a1.09416,1.09416,0,0,0,.15495,1.14586.85258.85258,0,0,0,1.01652.13611,6.19079,6.19079,0,0,0,2.27686-1.56908c.30159-.30616.58881-.63068.91218-.97876-.13591.55053-.27114,1.04027-.37544,1.53835-.08934.42647-.22608.92384.12549,1.2387.3701.33143.78748.06476,1.11489-.17717.66986-.49507,1.30821-1.046,1.95459-1.58173,1.25135-1.037,2.49546-2.08549,3.75267-3.11312a3.91756,3.91756,0,0,1,.69089-.37182l.1245.10524c-.08759.41844-.15349.84468-.26734,1.25364-.2174.78086-.48228,1.54507-.68772,2.32969a1.213,1.213,0,0,0,.185,1.30846.98.98,0,0,0,1.21182-.0296,4.62961,4.62961,0,0,0,.71494-.49881c.51317-.43644,1.01541-.8899,1.5167-1.34417.232-.21021.45144-.43847.72452-.7055-.0158.14532-.0181.20516-.02919.26279-.16659.8662.09437,1.17926.86011,1.00759a1.8112,1.8112,0,0,0,.6423-.24071c.737-.51244,1.45953-1.05219,2.18361-1.58845a4.514,4.514,0,0,0,.37334-.34934c.13947.63085.422.84928.914.673a3.34663,3.34663,0,0,0,.81449-.46948c.26844-.19631.50414-.4498.76277-.66484.56077-.46636.83582-.357,1.04186.40323.12981.47891.26049.563.65351.35719a1.29954,1.29954,0,0,0,.38824-.36965c.21867-.286.41433-.59475.62583-.88813.22208-.308.43865-.30638.71177-.03814a1.41518,1.41518,0,0,0,.68444.41474,3.88733,3.88733,0,0,0,2.86768-1.13251,1.65923,1.65923,0,0,0-.75053.026c-.28413.07329-.564.27655-.83923.26224a6.83345,6.83345,0,0,1-1.44836-.27551,1.69688,1.69688,0,0,0-1.9087.56759c-.0615.073-.1312.13714-.21554.22447-.0438-.09171-.07489-.15642-.10558-.22132-.3562-.75329-.80894-.93466-1.44483-.46907a7.52253,7.52253,0,0,0-1.06721,1.08711,2.96351,2.96351,0,0,0-.30365.52341L46.358,46.0693a7.30529,7.30529,0,0,1,.77738-3.04553c-.4872-.22388-.81524-.1454-1.01724.3604a8.418,8.418,0,0,1-2.01716,2.73233c-.51472.52832-1.05066,1.03147-1.59619,1.51809a1.4003,1.4003,0,0,1-.50921.1793,1.59289,1.59289,0,0,1,.01632-.59318,16.27131,16.27131,0,0,1,1.48253-2.844,81.05646,81.05646,0,0,0,6.946-10.24192.74561.74561,0,0,1,.43045-.33531c2.75408-.65319,5.51112-1.29014,8.26793-1.92822,1.46341-.33869,2.92812-.67,4.391-1.01143A.597.597,0,0,0,64.08767,30.23537ZM46.48246,39.28945l-.09571-.06783c.06011-.12212.11579-.24735.18093-.36586.79833-1.45275,1.5923-2.90861,2.40449-4.3512a2.054,2.054,0,0,1,.4552-.43084l.142.15854Q48.02589,36.76081,46.48246,39.28945Zm3.57719-6.08027c-.09278.19708-.32372.30968-.49056.46145l-.10525-.12691q1.74575-3.43394,3.49158-6.86789l.06122.03073a1.666,1.666,0,0,1-.07291.26974C51.98736,29.057,51.03432,31.13966,50.05965,33.20918Z" fill="#777677"/>
    <path d="M105.53578,38.189a3.66015,3.66015,0,0,1-2.05007,1.92827,17.61069,17.61069,0,0,1-2.4842.83755c-.49041.13164-.68258-.14238-.59491-.686a2.74578,2.74578,0,0,0,.11294-.71281c-.04138-.34167-.08764-.79973-.28726-.96621-.19693-.16422-.59938-.08434-.88861-.00388a1.48672,1.48672,0,0,0-.59043.45138c-.35993.38468-.69419.80036-1.04306,1.19871a1.06567,1.06567,0,0,1-1.55583.305.51917.51917,0,0,1-.21475-.8385c.26029-.42232.554-.81769.82882-1.22859.124-.18543.23744-.38007.38131-.61181a.774.774,0,0,0-.99617.23408c-.53151.68091-1.04876,1.3832-1.63408,2.00007a5.40659,5.40659,0,0,1-1.32683.98859c-.45115.24736-.80617.02582-.89582-.53613a14.16144,14.16144,0,0,1-.0727-1.53952,9.56124,9.56124,0,0,0-.09219-1.35464.68447.68447,0,0,0-.89951-.63731c-.09.017-.18045.03033-.35378.05912.13856-.18751.23059-.31062.32127-.435q4.29827-5.896,8.60045-11.78839a1.03914,1.03914,0,0,1,.382-.29479c.55027-.27036,1.11314-.50851,1.65633-.79548a.5088.5088,0,0,0,.20065-.41189.52238.52238,0,0,0-.3695-.25273.71058.71058,0,0,0-.37667.11684c-.17911.08214-.35212.18142-.57622.2988,1.05264-1.85,2.0635-3.62651,3.08331-5.41881a.71036.71036,0,0,0-1.07568.30553c-1.16574,1.8357-2.32593,3.676-3.50255,5.50256a.98912.98912,0,0,1-.49836.3947c-.97907.2932-1.96486.55833-2.95176.81625-.56089.14658-1.12831.26062-1.69277.38932,1.109-1.88165,2.24542-3.67593,3.27572-5.63718a.93477.93477,0,0,0-1.09006.39691c-1.05042,1.47734-2.14479,2.91586-3.15609,4.42692a3.35146,3.35146,0,0,1-2.17342,1.63831,4.01246,4.01246,0,0,0-1.60161.87433,1.35779,1.35779,0,0,0-.186,1.98246c.114.164.24326.31406.40966.527-1.02254,1.38934-1.98878,2.82923-3.074,4.14126a49.96432,49.96432,0,0,1-3.51261,3.80008c-1.08875,1.0686-2.27025,2.01586-3.425,2.99484-.2873.24356-.644.46149-.99958.18557a1.2959,1.2959,0,0,1-.33054-1.1585,1.23292,1.23292,0,0,1,.04721-.31405c.12125-.39123.25122-.77893.38431-1.18739a.79565.79565,0,0,0-.95193.24252c-.67949.70816-1.35566,1.42251-2.0633,2.09308a4.46433,4.46433,0,0,1-2.22515,1.179c-.51123.10023-.77671-.21721-.5869-.76354a13.62653,13.62653,0,0,1,.73964-1.54905c.06664-.13448.15-.25823.24678-.42263a.91688.91688,0,0,0-1.02349.23368c-.72725.73844-1.4301,1.51868-2.21453,2.16975a8.04524,8.04524,0,0,1-1.89837,1.1243,1.27656,1.27656,0,0,1-1.48922-.37954c-.28726-.3076-.5359-.662-.78966-.98024a.78384.78384,0,0,1,.0518-.12677q3.04659-4.08678,6.09929-8.16756a1.08356,1.08356,0,0,1,.39517-.28206c.79286-.39623,1.61-.73628,2.3814-1.18a33.34949,33.34949,0,0,0,7.48873-6.20139A42.69219,42.69219,0,0,0,87.5937,19.469a7.48213,7.48213,0,0,0,1.21717-2.69658,2.22218,2.22218,0,0,0-.6107-2.21782,1.41885,1.41885,0,0,0-1.876-.095A7.6721,7.6721,0,0,0,84.75112,15.774c-1.56031,1.791-3.146,3.564-4.58984,5.47368-2.657,3.51437-5.21959,7.12143-7.82465,10.68689a.85088.85088,0,0,1-.32563.31527,11.99927,11.99927,0,0,1-5.784.86688,2.05123,2.05123,0,0,1-1.87829-1.5162c-.11021-.37745-.38974-.24482-.60885-.16733-.22916.081-.33806.24644-.24341.55991a2.27328,2.27328,0,0,0,1.66888,1.59874,8.02358,8.02358,0,0,0,3.65782.047c.87076-.14554,1.733-.35693,2.68272-.55649-1.92625,2.55836-3.802,5.04956-5.64687,7.49988a6.531,6.531,0,0,0-.98207-.22307,3.323,3.323,0,0,0-2.55426.99094,8.7157,8.7157,0,0,0-2.57,5.59323c-.08111.73845.23557.99243.811.61768a7.89272,7.89272,0,0,0,1.53868-1.28847c.93958-1.0358,1.8234-2.1374,2.7256-3.21693.31937-.38215.62544-.77879.96216-1.19948.20077.25674.3735.48455.55269.7055a1.739,1.739,0,0,0,1.79568.75077,5.46974,5.46974,0,0,0,1.67384-.69914c.74689-.48581,1.42947-1.1,2.152-1.66941-.01821.10023-.03619.21292-.0592.3243-.2328,1.1261.134,1.63723,1.14451,1.554a4.47454,4.47454,0,0,0,2.43376-1.18256c.47266-.38992.9172-.82406,1.37771-1.24141.14624.83624.381,1.15187,1.15088,1.24263a3.098,3.098,0,0,0,1.40151-.17235,4.2148,4.2148,0,0,0,1.24993-.7945c.97589-.84828,1.91967-1.74454,2.8775-2.61991a2.74834,2.74834,0,0,1,.22208-.16684c-.2671.52318-.57091.98543-.85246,1.46461A5.63,5.63,0,0,0,82.06939,41.88c-.04526.72585.23815,1.02682.84316.79337a6.76442,6.76442,0,0,0,1.40547-.75154,43.06008,43.06008,0,0,0,5.67372-5.04658c.08082-.08056.16627-.155.24959-.23232-1.47916,2.02114-3.29247,3.68184-4.62555,5.91039a.71542.71542,0,0,0,.95756-.20822c.73473-.88335,1.45928-1.77876,2.21805-2.63467a14.42559,14.42559,0,0,1,1.53694-1.52166c.47872-.39876.76824-.22808.849.43717.05465.44989.04178.90988.07884,1.36325a11.16958,11.16958,0,0,0,.16739,1.48826,1.026,1.026,0,0,0,1.41145.893,2.89548,2.89548,0,0,0,.72539-.37127c.34907-.246.67529-.53415,1.03846-.82632a.74677.74677,0,0,0,.59082.72708,2.02454,2.02454,0,0,0,2.1214-.43577c.63058-.55513,1.19325-1.21013,1.789-1.81711.12652-.12894.26761-.23937.47916-.42665,0,.36992.00538.595-.001.81958-.02482.8811.28928,1.2855,1.07636,1.30861a6.34834,6.34834,0,0,0,1.19595-.0908,6.12384,6.12384,0,0,0,3.93882-2.11068,9.1963,9.1963,0,0,0,.7-1.15887C105.99292,37.82425,105.66757,37.88192,105.53578,38.189ZM75.97089,28.19378c2.01772-2.75457,3.99631-5.5476,6.05938-8.25723,1.07156-1.40744,2.26989-2.69329,3.45253-3.98461a3.78664,3.78664,0,0,1,1.23488-.81431c.60112-.27569,1.06986-.00343,1.161.71724a3.32273,3.32273,0,0,1-.13773,1.543,12.21817,12.21817,0,0,1-1.14954,2.17489,38.98258,38.98258,0,0,1-8.24543,8.8408A24.07035,24.07035,0,0,1,73.88609,31.436c-.11631.058-.237.10461-.35557.15656l-.03307-.0598C74.32228,30.42008,75.15189,29.312,75.97089,28.19378ZM60.608,46.85025a9.26779,9.26779,0,0,1,1.05264-3.36052,5.44194,5.44194,0,0,1,1.63182-1.90264,1.78075,1.78075,0,0,1,1.89995-.1741A64.97662,64.97662,0,0,1,60.608,46.85025ZM91.44758,26.9915c-.475.66827-.89789,1.26316-1.32667,1.86645C89.63688,28.13042,90.19262,27.33092,91.44758,26.9915Zm-6.166,13.52667a8.55373,8.55373,0,0,1-1.3852.98728c-.1875.11143-.45306.05217-.683.07068a2.42508,2.42508,0,0,1-.02673-.81138,7.31035,7.31035,0,0,1,.681-1.53384c.891-1.42287,1.81287-2.82146,2.74845-4.20691a13.385,13.385,0,0,1,1.06583-1.2948,81.10976,81.10976,0,0,0,5.47564-7.022.82129.82129,0,0,1,.39679-.32971c1.54529-.40558,3.09495-.78953,4.64377-1.17764a.92122.92122,0,0,1,.18738.00839,68.94132,68.94132,0,0,1-5.05006,7.03659A95.88423,95.88423,0,0,1,85.28156,40.51817Z" fill="#777677"/>
    <path d="M159.68232,27.6025a.81416.81416,0,0,0-.84157.61872,11.47827,11.47827,0,0,0-.22921,1.2308l.05378.0125a.17608.17608,0,0,0,.00047.04527c.10063.35223-.20041.93105.38194,1.00755.42257.05546.52585-.234.54216-1.04853.00943-.47218-.11115-.99432.32393-1.37246C160.10429,27.93082,159.95773,27.64538,159.68232,27.6025Z" fill="#777677"/>
    <path d="M54.26086,39.22821a.31918.31918,0,0,0-.09714.22108c.01014.0626.10688.155.16244.15231.39825-.0194.31228.30512.247.60893.0756.1607.169.46582.2237.45706a1.15444,1.15444,0,0,0,.67054-.27957,1.25466,1.25466,0,0,0-.10918-1.18766A.99119.99119,0,0,0,54.26086,39.22821Z" fill="#777677"/>
    <path d="M136.9686,19.021c.058-.01466.10577-.082.19023-.15109a.63553.63553,0,0,0-.82708-.20466,1.95532,1.95532,0,0,0-1.07319,1.502c.299-.04977.68239-.09111.7998-.31428A1.42268,1.42268,0,0,1,136.9686,19.021Z" fill="#777677"/>
  </g>
</svg>
