<svg id="Artwork" xmlns="http://www.w3.org/2000/svg" xmlns:xlink="http://www.w3.org/1999/xlink" width="300" height="60" viewBox="0 0 300 60">
  <defs>
    <linearGradient id="New_Gradient_Swatch_1" data-name="New Gradient Swatch 1" x1="30.00001" y1="0.33334" x2="30.00001" y2="59.66666" gradientUnits="userSpaceOnUse">
      <stop offset="0" stop-color="#ffc74c"/>
      <stop offset="1" stop-color="#ffdc79"/>
    </linearGradient>
    <linearGradient id="linear-gradient" x1="30.00001" y1="52.16666" x2="30.00001" y2="7.83334" gradientUnits="userSpaceOnUse">
      <stop offset="0" stop-color="#004937"/>
      <stop offset="1" stop-color="#0db14b"/>
    </linearGradient>
    <linearGradient id="New_Gradient_Swatch_1-2" x1="30.09152" y1="22.58634" x2="30.09152" y2="17.03343" xlink:href="#New_Gradient_Swatch_1"/>
    <linearGradient id="New_Gradient_Swatch_1-3" x1="24.02455" y1="41.58884" x2="24.02455" y2="36.0443" xlink:href="#New_Gradient_Swatch_1"/>
    <linearGradient id="New_Gradient_Swatch_1-4" x1="20.21472" y1="29.80321" x2="20.21472" y2="24.25086" xlink:href="#New_Gradient_Swatch_1"/>
    <linearGradient id="New_Gradient_Swatch_1-5" x1="39.97012" y1="30.08355" x2="39.97012" y2="24.53263" xlink:href="#New_Gradient_Swatch_1"/>
    <linearGradient id="New_Gradient_Swatch_1-6" x1="36.15724" y1="41.69409" x2="36.15724" y2="36.15121" xlink:href="#New_Gradient_Swatch_1"/>
    <linearGradient id="New_Gradient_Swatch_1-7" x1="24.82063" y1="23.85164" x2="24.82063" y2="23.47026" xlink:href="#New_Gradient_Swatch_1"/>
    <linearGradient id="New_Gradient_Swatch_1-8" x1="24.96424" y1="27.66318" x2="24.96424" y2="11.99997" xlink:href="#New_Gradient_Swatch_1"/>
    <linearGradient id="New_Gradient_Swatch_1-9" x1="35.09002" y1="18.27842" x2="35.09002" y2="12.00001" xlink:href="#New_Gradient_Swatch_1"/>
    <linearGradient id="New_Gradient_Swatch_1-10" x1="35.35377" y1="23.88699" x2="35.35377" y2="23.45492" xlink:href="#New_Gradient_Swatch_1"/>
    <linearGradient id="New_Gradient_Swatch_1-11" x1="34.11796" y1="28.69939" x2="34.11796" y2="21.40954" xlink:href="#New_Gradient_Swatch_1"/>
    <linearGradient id="New_Gradient_Swatch_1-12" x1="34.69288" y1="23.53594" x2="34.69288" y2="23.15485" xlink:href="#New_Gradient_Swatch_1"/>
    <linearGradient id="New_Gradient_Swatch_1-13" x1="38.88339" y1="25.61028" x2="38.88339" y2="18.32186" xlink:href="#New_Gradient_Swatch_1"/>
    <linearGradient id="New_Gradient_Swatch_1-14" x1="45.91418" y1="34.79321" x2="45.91418" y2="26.496" xlink:href="#New_Gradient_Swatch_1"/>
    <linearGradient id="New_Gradient_Swatch_1-15" x1="37.8624" y1="33.48864" x2="37.8624" y2="33.31268" xlink:href="#New_Gradient_Swatch_1"/>
    <linearGradient id="New_Gradient_Swatch_1-16" x1="36.18366" y1="36.09884" x2="36.18366" y2="28.63758" xlink:href="#New_Gradient_Swatch_1"/>
    <linearGradient id="New_Gradient_Swatch_1-17" x1="38.24269" y1="33.00087" x2="38.24269" y2="32.85553" xlink:href="#New_Gradient_Swatch_1"/>
    <linearGradient id="New_Gradient_Swatch_1-18" x1="40.05264" y1="44.04458" x2="40.05264" y2="30.24828" xlink:href="#New_Gradient_Swatch_1"/>
    <linearGradient id="New_Gradient_Swatch_1-19" x1="34.78981" y1="48.00001" x2="34.78981" y2="44.08663" xlink:href="#New_Gradient_Swatch_1"/>
    <linearGradient id="New_Gradient_Swatch_1-20" x1="29.69343" y1="39.34664" x2="29.69343" y2="38.81212" xlink:href="#New_Gradient_Swatch_1"/>
    <linearGradient id="New_Gradient_Swatch_1-21" x1="30.10659" y1="42.94575" x2="30.10659" y2="31.54651" xlink:href="#New_Gradient_Swatch_1"/>
    <linearGradient id="New_Gradient_Swatch_1-22" x1="30.51537" y1="39.03704" x2="30.51537" y2="38.56604" xlink:href="#New_Gradient_Swatch_1"/>
    <linearGradient id="New_Gradient_Swatch_1-23" x1="26.97706" y1="47.69275" x2="26.97706" y2="34.91625" xlink:href="#New_Gradient_Swatch_1"/>
    <linearGradient id="New_Gradient_Swatch_1-24" x1="17.08581" y1="43.72174" x2="17.08581" y2="35.49364" xlink:href="#New_Gradient_Swatch_1"/>
    <linearGradient id="New_Gradient_Swatch_1-25" x1="21.992" y1="32.69241" x2="21.992" y2="32.53203" xlink:href="#New_Gradient_Swatch_1"/>
    <linearGradient id="New_Gradient_Swatch_1-26" x1="23.79866" y1="33.89117" x2="23.79866" y2="29.94131" xlink:href="#New_Gradient_Swatch_1"/>
    <linearGradient id="New_Gradient_Swatch_1-27" x1="22.07941" y1="33.26759" x2="22.07941" y2="33.12339" xlink:href="#New_Gradient_Swatch_1"/>
    <linearGradient id="New_Gradient_Swatch_1-28" x1="18.86163" y1="35.86859" x2="18.86163" y2="26.18938" xlink:href="#New_Gradient_Swatch_1"/>
    <linearGradient id="New_Gradient_Swatch_1-29" x1="17.12028" y1="23.62728" x2="17.12028" y2="18.09195" xlink:href="#New_Gradient_Swatch_1"/>
    <linearGradient id="New_Gradient_Swatch_1-30" x1="25.36909" y1="23.39899" x2="25.36909" y2="22.95912" xlink:href="#New_Gradient_Swatch_1"/>
    <linearGradient id="New_Gradient_Swatch_1-31" x1="26.61053" y1="30.39702" x2="26.61053" y2="19.17351" xlink:href="#New_Gradient_Swatch_1"/>
  </defs>
  <title>the-king-center-logo</title>
  <g>
    <path d="M160.72483,42.7101a.6033.6033,0,0,1,.17165-.394q.1721-.19611.36908-.38421c.13074-.12629.25436-.249.36909-.36908a.54387.54387,0,0,0,.17165-.37709.22053.22053,0,0,0-.09783-.19655.61021.61021,0,0,0-.23035-.09072,2.18594,2.18594,0,0,0-.26147-.032c-.088-.00534-.1592-.0089-.21345-.0089q-.27882,0-.55763.016a5.136,5.136,0,0,0-.55674.06581,4.37189,4.37189,0,0,0-.86891.25436,4.45208,4.45208,0,0,0-.90181.48382,3.01188,3.01188,0,0,0-.71327.68036,1.38223,1.38223,0,0,0-.28638.844,1.68045,1.68045,0,0,0,.33529.98364,6.33462,6.33462,0,0,0,.8449.95073q.50694.47625,1.10637.95073a11.64318,11.64318,0,0,1,1.10636.99964,5.93561,5.93561,0,0,1,.844,1.09036,2.321,2.321,0,0,1,.33618,1.20509,1.99947,1.99947,0,0,1-.30327,1.09836,2.70361,2.70361,0,0,1-.79509.8031,4.75,4.75,0,0,1-1.11438.54073,9.13051,9.13051,0,0,1-1.2789.33618,11.84084,11.84084,0,0,1-1.262.17165q-.607.05068-1.08235.0498a7.6396,7.6396,0,0,1-.86891-.0498c-.06492-.01067-.16631-.02135-.30327-.032a3.589,3.589,0,0,1-.40911-.05692,1.22111,1.22111,0,0,1-.36108-.13162.28056.28056,0,0,1-.15564-.25436c0-.185.04891-.29171.14763-.32017a1.46753,1.46753,0,0,1,.37709-.04091,3.05485,3.05485,0,0,1,.8031.10672,3.05483,3.05483,0,0,0,.80309.10672q.29482,0,.75418-.032a9.425,9.425,0,0,0,.96763-.12363q.50694-.08937,1.03255-.22945a4.23693,4.23693,0,0,0,.93383-.36019,2.35511,2.35511,0,0,0,.67236-.52473,1.06,1.06,0,0,0,.26236-.71327,1.40222,1.40222,0,0,0-.36908-.90181,7.4055,7.4055,0,0,0-.90982-.90182q-.54029-.45891-1.18819-.94272a10.3129,10.3129,0,0,1-1.18819-1.03166,5.93849,5.93849,0,0,1-.90982-1.18108,2.65859,2.65859,0,0,1-.36908-1.36873,2.11706,2.11706,0,0,1,.29527-1.12326,2.80722,2.80722,0,0,1,.77819-.82711,4.53492,4.53492,0,0,1,1.09836-.56563,8.33763,8.33763,0,0,1,1.254-.34419,11.07874,11.07874,0,0,1,1.2629-.17165q.62166-.05068,1.09747-.0498a4.92957,4.92957,0,0,1,.53273.03291,2.57894,2.57894,0,0,1,.58254.13073,1.2298,1.2298,0,0,1,.46691.28727.67679.67679,0,0,1,.18855.49982,1.42921,1.42921,0,0,1-.13074.59854,1.57461,1.57461,0,0,1-.36108.49982,2.245,2.245,0,0,1-.30327.24547c-.1254.088-.257.16987-.3931.24635a2.60519,2.60519,0,0,1-.418.18855,1.181,1.181,0,0,1-.37709.07381.42629.42629,0,0,1-.30328-.11472A.38651.38651,0,0,1,160.72483,42.7101Z"/>
    <path d="M163.53522,50.05357c0,.09872.00267.22945.00889.394a2.51134,2.51134,0,0,0,.06493.49181,1.36653,1.36653,0,0,0,.17253.426.36681.36681,0,0,0,.32729.18054,1.22086,1.22086,0,0,0,.72127-.30327,5.25784,5.25784,0,0,0,.76308-.73017,9.98391,9.98391,0,0,0,.67947-.87691q.31217-.44958.49182-.74529c.05514-.07648.11472-.153.18054-.22945a.29551.29551,0,0,1,.22945-.11473c.10939,0,.17254.03824.18855.11473a1.13659,1.13659,0,0,1,.0249.24546.53086.53086,0,0,1-.04891.19744,1.97182,1.97182,0,0,1-.12363.23746c-.04891.08182-.09783.15831-.14763.22945-.04892.07115-.08983.129-.12273.17165q-.22946.32819-.58965.77908a8.5855,8.5855,0,0,1-.79509.86091,5.76362,5.76362,0,0,1-.89381.69637,1.69747,1.69747,0,0,1-.90182.28726,1.01877,1.01877,0,0,1-.77819-.30416,2.16269,2.16269,0,0,1-.45091-.73728,3.61747,3.61747,0,0,1-.21344-.91782c-.032-.32284-.04892-.60388-.04892-.844a5.57317,5.57317,0,0,1,.10673-1.02455,9.32926,9.32926,0,0,1,.23746-.99253,2.25969,2.25969,0,0,1,.402-.74528.95543.95543,0,0,1,.77819-.30327q.37753,0,.37709.36019a1.56261,1.56261,0,0,1-.05692.386q-.0587.22146-.13963.45891-.08271.23747-.16364.47492-.08271.23747-.13163.418A7.14231,7.14231,0,0,0,163.53522,50.05357Zm.65635-6.06457a.51806.51806,0,0,1,.418.18766.66874.66874,0,0,1,.15564.4349.904.904,0,0,1-.22946.59854.70911.70911,0,0,1-.55763.27036.48991.48991,0,0,1-.41-.18854.68725.68725,0,0,1-.14764-.434.93416.93416,0,0,1,.22145-.59054A.67833.67833,0,0,1,164.19157,43.989Z"/>
    <path d="M166.865,52.59537a.29131.29131,0,0,1-.26236-.12273.50443.50443,0,0,1-.08271-.28727,12.7431,12.7431,0,0,1,.25436-2.492q.25347-1.27935.49982-2.45909.08271-.3762.14764-.77019.06535-.39354.14763-.77019a.99973.99973,0,0,1,.35219-.54073.90964.90964,0,0,1,.59854-.24636.444.444,0,0,1,.38509.14764.68907.68907,0,0,1,.10673.41,3.10224,3.10224,0,0,1-.13963.89293q-.13875.46691-.28638.8609a5.6744,5.6744,0,0,0-.27837.93383q-.09871.47625-.16453.95162.57364-.8031,1.11526-1.45945c.153-.18587.30861-.36552.46692-.54073a6.24215,6.24215,0,0,1,.46691-.46691,2.8731,2.8731,0,0,1,.4349-.32818.72542.72542,0,0,1,.3682-.12362.49572.49572,0,0,1,.37709.15653.97915.97915,0,0,1,.22145.38509,2.34891,2.34891,0,0,1,.09872.48293c.016.17075.024.32017.024.45179a.11572.11572,0,0,1-.06492.11384v2.29545c0,.09872.00267.20544.008.31928a1.20417,1.20417,0,0,0,.05692.32017.57863.57863,0,0,0,.15564.24546.4308.4308,0,0,0,.30327.09872,1.134,1.134,0,0,0,.67236-.25436,3.92709,3.92709,0,0,0,.64746-.60565,6.18517,6.18517,0,0,0,.54962-.74707c.16365-.26147.29438-.48025.3931-.65457a2.55629,2.55629,0,0,1,.16365-.24635.28211.28211,0,0,1,.22945-.13074.23653.23653,0,0,1,.20544.10584.38832.38832,0,0,1,.07382.22145.4553.4553,0,0,1-.04091.16364c-.02757.06581-.05247.121-.07382.16364a6.81165,6.81165,0,0,1-1.28691,1.77161,5.15206,5.15206,0,0,1-.91782.72039,1.80291,1.80291,0,0,1-.94272.29527.9544.9544,0,0,1-.61455-.18855,1.27356,1.27356,0,0,1-.36909-.46691,1.99253,1.99253,0,0,1-.17254-.61455,5.49078,5.49078,0,0,1-.04091-.64746v-.24635l.06582-1.86856a1.145,1.145,0,0,0-.02491-.19743q-.024-.13074-.12273-.13074a.33056.33056,0,0,0-.19655.09872c-.07648.06581-.137.12006-.18054.16364a5.902,5.902,0,0,0-.77019.91782q-.36151.52561-.65546.99965a13.25844,13.25844,0,0,0-.65635,1.17218q-.29483.599-.57364,1.222a1.31092,1.31092,0,0,1-.27036.3602A.56455.56455,0,0,1,166.865,52.59537Z"/>
    <path d="M176.65333,52.36591a1.75647,1.75647,0,0,1-.95874-.25435,2.146,2.146,0,0,1-.66435-.65635,2.75657,2.75657,0,0,1-.37709-.89293,4.31675,4.31675,0,0,1-.11473-.98363,5.28852,5.28852,0,0,1,.19655-1.36873,4.78988,4.78988,0,0,1,.59054-1.34383,3.68158,3.68158,0,0,1,.96673-1.02455,2.19593,2.19593,0,0,1,1.31182-.41,1.48215,1.48215,0,0,1,.97563.29438,1.17607,1.17607,0,0,1,.35218.95162,3.28534,3.28534,0,0,1-.0329.434,2.057,2.057,0,0,1-.11473.4509.92131.92131,0,0,1-.24635.36019.58555.58555,0,0,1-.40911.14764c-.12095,0-.18054-.05425-.18054-.16364a1.09607,1.09607,0,0,1,.14763-.46781,1.397,1.397,0,0,0,.14764-.64746,1.60368,1.60368,0,0,0-.05781-.434c-.03824-.137-.1503-.20456-.33618-.20456a1.05706,1.05706,0,0,0-.8191.426,3.83126,3.83126,0,0,0-.60655,1.01654,6.80947,6.80947,0,0,0-.37709,1.19708,4.78668,4.78668,0,0,0-.13163.96674,2.90881,2.90881,0,0,0,.06582.61455,1.67568,1.67568,0,0,0,.22145.54963,1.17309,1.17309,0,0,0,.41.39309,1.20678,1.20678,0,0,0,.61455.14764,2.748,2.748,0,0,0,1.03255-.19744,3.796,3.796,0,0,0,.90981-.51583,4.89815,4.89815,0,0,0,.77019-.73817,6.382,6.382,0,0,0,.61544-.86,2.41786,2.41786,0,0,1,.20456-.27837.36442.36442,0,0,1,.28726-.14763.23111.23111,0,0,1,.26147.26147.41336.41336,0,0,1-.04091.17254,1.5812,1.5812,0,0,1-.08982.17253,6.86178,6.86178,0,0,1-.82,1.17219,6.07181,6.07181,0,0,1-1.05656.96673,5.02032,5.02032,0,0,1-1.254.65546A4.1577,4.1577,0,0,1,176.65333,52.36591Z"/>
    <path d="M182.50623,52.21828a1.641,1.641,0,0,1-1.40164-.68125,1.96538,1.96538,0,0,1-.32017-.70438,3.573,3.573,0,0,1-.09783-.844A5.27509,5.27509,0,0,1,180.9,48.64482a7.11992,7.11992,0,0,1,.60565-1.51726,4.72535,4.72535,0,0,1,.94273-1.2371,1.73864,1.73864,0,0,1,1.20508-.50783.84192.84192,0,0,1,.68037.27926,1.05317,1.05317,0,0,1,.23746.70616,2.053,2.053,0,0,1-.25347.91248,5.31909,5.31909,0,0,1-.63945.96941,5.89629,5.89629,0,0,1-.828.83067,2.78494,2.78494,0,0,1-.82.4927,3.30961,3.30961,0,0,0-.08183.69015,1.40947,1.40947,0,0,0,.24636.88047.96854.96854,0,0,0,.8191.32017,2.39426,2.39426,0,0,0,.98364-.20455,3.84907,3.84907,0,0,0,.8529-.52473,4.86626,4.86626,0,0,0,.72127-.72928,7.72774,7.72774,0,0,0,.57364-.82,3.36453,3.36453,0,0,1,.19655-.27926.35837.35837,0,0,1,.29527-.14763.276.276,0,0,1,.15564.0498.15036.15036,0,0,1,.07381.13074.86975.86975,0,0,1-.0329.26236,1.142,1.142,0,0,1-.11473.22945,6.04448,6.04448,0,0,1-.76219,1.06546,5.74652,5.74652,0,0,1-.99164.89025,4.852,4.852,0,0,1-1.16417.60655A3.79607,3.79607,0,0,1,182.50623,52.21828Zm1.06545-6.06546c-.16364,0-.32817.1174-.49182.35219a5.1868,5.1868,0,0,0-.45891.82,8.22956,8.22956,0,0,0-.36108.93383,5.197,5.197,0,0,0-.17965.68037,4.72624,4.72624,0,0,0,.57364-.434,4.444,4.444,0,0,0,1.01654-1.2958,1.48782,1.48782,0,0,0,.17965-.67948.59553.59553,0,0,0-.05692-.25436A.22063.22063,0,0,0,183.57168,46.15282Z"/>
    <path d="M189.55532,52.28409a2.81886,2.81886,0,0,1,.11473-.63145q.11472-.43489.27036-.92671.15609-.49094.31128-.95073c.10406-.30505.17787-.54073.22145-.70527q.27882-.98185.50872-1.95837a13.44822,13.44822,0,0,0,.31127-1.99218q-.16408.13208-.46691.37-.30417.23745-.63945.466a7.10488,7.10488,0,0,1-.65635.402,1.17734,1.17734,0,0,1-.51583.17253.22147.22147,0,0,1-.21345-.09071.47985.47985,0,0,1,.04091-.49093,1.17327,1.17327,0,0,1,.21345-.22234,1.80582,1.80582,0,0,1,.27837-.17965,2.45784,2.45784,0,0,0,.27036-.16365,10.06968,10.06968,0,0,0,1.17218-.97563,8.28351,8.28351,0,0,0,.99164-1.15528,1.02729,1.02729,0,0,1,.402-.34507,1.2574,1.2574,0,0,1,.51672-.09783,1.94156,1.94156,0,0,1,.22945.016.89274.89274,0,0,1,.24547.06582.59632.59632,0,0,1,.19655.13162.284.284,0,0,1,.08271.21256.56552.56552,0,0,1-.06582.27037c-.04358.08182-.09338.16631-.14763.25347a5.97675,5.97675,0,0,0-.45891,1.08235c-.121.38332-.22946.76041-.32818,1.13127q-.1961.73773-.41,1.72981-.21211.9912-.3931,1.92636-.21345,1.08058-.41,2.19584a.77785.77785,0,0,1-.19655.3851,1.06772,1.06772,0,0,1-.36019.24635,1.81581,1.81581,0,0,1-.45091.12273,3.1509,3.1509,0,0,1-.4349.03291.18222.18222,0,0,1-.18854-.09783A.59051.59051,0,0,1,189.55532,52.28409Z"/>
    <path d="M200.43846,46.64375a8.79173,8.79173,0,0,1-.89292,3.98435,11.77734,11.77734,0,0,1-2.4671,3.27819c-.10939.09783-.25436.22946-.4349.3931a6.21816,6.21816,0,0,1-.58164.4678,6.02423,6.02423,0,0,1-.61455.3851,1.14311,1.14311,0,0,1-.51672.16453.55348.55348,0,0,1-.23746-.0498.21025.21025,0,0,1-.10672-.21345.238.238,0,0,1,.13073-.22056,2.34133,2.34133,0,0,1,.24636-.12274,3.77978,3.77978,0,0,0,1.02454-.68925,7.43139,7.43139,0,0,0,.95073-1.07346,10.17961,10.17961,0,0,0,.828-1.34472,11.54571,11.54571,0,0,0,.64746-1.50836,12.04067,12.04067,0,0,0,.426-1.54838,7.35849,7.35849,0,0,0,.15564-1.45945,4.866,4.866,0,0,0-.09872-.91782,3.787,3.787,0,0,0-.31928-.95873,2.35051,2.35051,0,0,0-.57364-.75418,1.27574,1.27574,0,0,0-.8609-.30328A2.59312,2.59312,0,0,0,194.3899,46.907a1.993,1.993,0,0,0,.62255,1.59018,2.41244,2.41244,0,0,0,1.6391.54074,2.16741,2.16741,0,0,0,.48381-.04981,2.919,2.919,0,0,0,.46692-.14763,1.889,1.889,0,0,0,.18854-.07293.48991.48991,0,0,1,.20544-.04091.22025.22025,0,0,1,.09783.024.09275.09275,0,0,1,.04981.08983.42332.42332,0,0,1-.19744.32017,2.33129,2.33129,0,0,1-.45891.27926,4.78205,4.78205,0,0,1-.53273.21256c-.17965.05958-.31394.10138-.4011.12273-.15386.0329-.30594.06314-.45891.08982a2.51785,2.51785,0,0,1-.4598.04091,2.3729,2.3729,0,0,1-.98275-.20455,2.638,2.638,0,0,1-.804-.54874,2.55117,2.55117,0,0,1-.73728-1.80274,2.86222,2.86222,0,0,1,.41-1.42653,5.146,5.146,0,0,1,1.04856-1.29492,6.08568,6.08568,0,0,1,1.39363-.94272,3.28968,3.28968,0,0,1,1.44255-.36909,2.61423,2.61423,0,0,1,1.21309.28727,3.14137,3.14137,0,0,1,.95873.75418,3.5874,3.5874,0,0,1,.63145,1.06545A3.38068,3.38068,0,0,1,200.43846,46.64375Z"/>
    <path d="M201.0121,49.15264a8.77885,8.77885,0,0,1,.89292-3.98345,11.7643,11.7643,0,0,1,2.46709-3.2782c.10939-.09872.25436-.22945.4349-.394a6.36734,6.36734,0,0,1,1.19619-.8529,1.14487,1.14487,0,0,1,.51672-.16365.546.546,0,0,1,.23746.04981.20807.20807,0,0,1,.10673.21256c0,.088-.06048.16986-.18055.24635a.55127.55127,0,0,1-.19654.09783,4.722,4.722,0,0,0-.66436.402,4.97857,4.97857,0,0,0-.58164.49982,9.00143,9.00143,0,0,0-1.08147,1.41765,12.002,12.002,0,0,0-.8858,1.7058,11.482,11.482,0,0,0-.59855,1.82675,7.73647,7.73647,0,0,0-.22056,1.77072,4.86772,4.86772,0,0,0,.09783.91871,3.82482,3.82482,0,0,0,.32017.95874,2.33816,2.33816,0,0,0,.57364.75418,1.27282,1.27282,0,0,0,.86.30238,2.59312,2.59312,0,0,0,2.75435-2.75347,1.99586,1.99586,0,0,0-.62255-1.59018,2.412,2.412,0,0,0-1.64-.54073,2.221,2.221,0,0,0-.48292.04891,3.05026,3.05026,0,0,0-.4678.14764c-.06493.02223-.12807.04713-.18855.07381a.49684.49684,0,0,1-.20455.04091.21371.21371,0,0,1-.09872-.0249.09186.09186,0,0,1-.04892-.08982.42451.42451,0,0,1,.19655-.31928,2.70072,2.70072,0,0,1,.45891-.28727,4.2167,4.2167,0,0,1,.53273-.22145c.18054-.06048.31395-.10139.402-.12273q.22946-.04937.45892-.08182a3.185,3.185,0,0,1,.45891-.03291,2.3806,2.3806,0,0,1,.98363.20544,2.64245,2.64245,0,0,1,.8031.54785,2.547,2.547,0,0,1,.73817,1.80363,2.87384,2.87384,0,0,1-.41,1.42654,5.16557,5.16557,0,0,1-1.04945,1.29491,6.06138,6.06138,0,0,1-1.39274.94273,3.291,3.291,0,0,1-1.44255.36819,2.60848,2.60848,0,0,1-1.21309-.28637,3.1589,3.1589,0,0,1-.95962-.75418,3.59644,3.59644,0,0,1-.63056-1.06546A3.3629,3.3629,0,0,1,201.0121,49.15264Z"/>
    <path d="M215.70171,43.79245a.31175.31175,0,0,1-.30328-.22234,2.10356,2.10356,0,0,1-.12273-.3842v-.0338a1.82648,1.82648,0,0,0-.32017-.69548,1.27578,1.27578,0,0,0-.48292-.37709,2.04324,2.04324,0,0,0-.63145-.15653q-.35219-.032-.74618-.032a4.28751,4.28751,0,0,0-.72927.07293,3.55978,3.55978,0,0,0-.79509.23835,2.06936,2.06936,0,0,0-.64746.434.90231.90231,0,0,0-.27037.66346,1.42213,1.42213,0,0,0,.17165.59944,5.56817,5.56817,0,0,0,.42689.72038q.25347.36953.52384.71327c.18054.22945.33618.42156.4678.57453l1.81964-1.13127c.14141-.08716.27837-.17254.41-.25436.13073-.08182.273-.16186.426-.23835a.72271.72271,0,0,1,.36019-.11384.3847.3847,0,0,1,.18855.04892.17221.17221,0,0,1,.09071.16364.24761.24761,0,0,1-.04091.13074c-.02757.04446-.0578.088-.09071.13162-.04358.04447-.08716.08716-.13074.13163a1.818,1.818,0,0,1-.36908.31127c-.137.08716-.27037.17966-.402.27838q-.42555.32817-.86.63945-.43489.31216-.87691.62255c.153.19744.31394.418.48292.66436q.25481.36953.47581.76218a5.33274,5.33274,0,0,1,.36909.8031,2.37714,2.37714,0,0,1,.14763.80309,2.40763,2.40763,0,0,1-.29527,1.18819,3.00485,3.00485,0,0,1-.77107.91071,3.43327,3.43327,0,0,1-1.07347.57275,3.87432,3.87432,0,0,1-1.22109.19744,2.621,2.621,0,0,1-1.72092-.56564,2.00748,2.00748,0,0,1-.68926-1.6471,2.50276,2.50276,0,0,1,.25436-1.12327,4.8501,4.8501,0,0,1,.63945-.97563,6.58763,6.58763,0,0,1,.852-.844q.46825-.38555.90982-.71327c-.16364-.18588-.35485-.40644-.57364-.66436a8.2648,8.2648,0,0,1-.61455-.8191,6.28775,6.28775,0,0,1-.48381-.86891,2.01482,2.01482,0,0,1-.19655-.82711,1.3926,1.3926,0,0,1,.426-1.04944,2.98057,2.98057,0,0,1,1.04144-.63946,5.89419,5.89419,0,0,1,1.2789-.31928,8.6722,8.6722,0,0,1,1.15529-.09071,5.61255,5.61255,0,0,1,.92582.09071,4.52079,4.52079,0,0,1,1.01655.29438,2.40552,2.40552,0,0,1,.812.54874,1.213,1.213,0,0,1,.32729.8698.6478.6478,0,0,1-.15564.4091A.47347.47347,0,0,1,215.70171,43.79245Zm-3.90164,3.58947q-.31083.28015-.68837.59854a7.50592,7.50592,0,0,0-.70526.68037,3.88358,3.88358,0,0,0-.54874.77018,1.8358,1.8358,0,0,0-.22145.88581,1.77509,1.77509,0,0,0,.10672.60655,1.57475,1.57475,0,0,0,.30328.51583,1.47112,1.47112,0,0,0,.46691.35218,1.34589,1.34589,0,0,0,.59854.13163,1.69156,1.69156,0,0,0,.77909-.18054,1.83648,1.83648,0,0,0,.59765-.48292,2.20833,2.20833,0,0,0,.37709-.68926,2.41145,2.41145,0,0,0,.13162-.77819,2.02309,2.02309,0,0,0-.11472-.64746,4.36,4.36,0,0,0-.28727-.65635,5.07272,5.07272,0,0,0-.38509-.60655A6.26144,6.26144,0,0,0,211.80007,47.38192Z"/>
  </g>
  <g>
    <g>
      <path d="M82.5992,29.597H74.14056v-.55737c2.64563-.10725,2.71748-.78054,2.71748-2.92154V11.622H75.30161c-3.18377,0-3.96549.55618-4.60576,3.70622H70l.17625-4.92405H86.5078l.1728,4.92405h-.69466c-.60084-3.186-1.42318-3.70622-4.60113-3.70622H79.81674V26.43594c0,1.97461.34454,2.518,2.78246,2.60372Z"/>
      <path d="M87.67456,29.12327c2.10514-.10618,2.20952-.65939,2.20952-2.53946V15.7319c0-1.85632-.35724-2.10169-2.20952-2.25122v-.48017h6.959v.48017c-1.89634.14953-2.1967.47376-2.1967,2.25122v4.866h7.59225v-4.866c0-1.85632-.3538-2.10169-2.21535-2.25122v-.48017H104.782v.48017c-1.90786.14953-2.20834.47376-2.20834,2.25122V26.8616c0,1.66024.25523,2.134,2.20834,2.26167V29.597H97.81375v-.47376c2.11558-.10618,2.21535-.65939,2.21535-2.53946v-4.887H92.43685V26.8616c0,1.66024.25166,2.134,2.1967,2.26167V29.597h-6.959Z"/>
      <path d="M119.1013,29.597H105.58v-.47376c1.61332-.10618,2.18161-.33635,2.18161-2.26167V15.7319c0-1.98281-.59846-2.13233-2.18161-2.25122v-.48017h13.29862l.07992,3.58734h-.63089c-.37922-2.23852-1.02875-2.63341-3.80313-2.63341h-3.37736c-.52542,0-.82815,0-.82815.85417V20.3677h3.853c2.22331,0,2.47735-.60144,2.765-2.38175h.56711v5.82181H116.937c-.30856-2.00823-.68314-2.355-2.765-2.38874l-3.853-.04467v6.21089c0,1.02876,0,1.05144,3.73472,1.05144,3.12331,0,4.38295-.75038,5.47322-3.27653h.71557Z"/>
      <path d="M139.37942,10.40416h7.587V10.958c-1.74444.145-2.34991.23029-4.40741,2.26107l-5.50161,5.45007,6.7496,7.24022c1.88352,2.08827,2.89375,3.19589,4.543,3.13033V29.597h-8.828v-.55737c1.531-.05333,2.02509-.08575,2.02509-.71783,0-.90013-2.78127-3.88947-3.76477-4.86953l-3.07011-3.04458-.75273.60892v5.4193c0,2.02794.3468,2.49647,2.605,2.60372V29.597h-8.16411v-.55737c2.264-.10725,2.60739-.55144,2.60739-2.92154V13.56762c0-2.26285-.64027-2.46464-2.60739-2.60965v-.55381h8.22789V10.958c-2.26167.145-2.66879.46865-2.66879,2.60965v5.93712c6.54484-5.8832,7.38582-6.66493,7.38582-7.64379,0-.787-.5487-.84954-1.96593-.903Z"/>
      <path d="M148.77454,29.12327c2.1271-.05808,2.42176-.48659,2.42176-2.26167V15.7319c0-1.85632-.341-2.155-2.42176-2.25122v-.48017h7.4311v.48017c-1.82094.07126-2.4485.24585-2.4485,2.25122V26.8616c0,1.96012.60321,2.20359,2.4485,2.26167V29.597h-7.4311Z"/>
      <path d="M174.36381,13.48068c-1.57853.17386-2.37651.26841-2.37651,3.20337V29.873h-.42793l-11.01949-13.7352h-.04525v9.77149c0,2.57889.52305,3.13033,2.34979,3.21394V29.597h-5.88035v-.47376c1.90216-.12769,2.42984-.50927,2.42984-3.21394V14.8573c-1.02876-1.25773-1.42769-1.37662-2.42984-1.37662v-.48017h4.27867l9.59061,12.0581h.051V16.68405c0-2.881-.70392-3.08448-2.4043-3.20337v-.48017h5.88381Z"/>
      <path d="M192.5,21.17555c-1.10986.09216-1.75251.15011-1.75251,1.92757v5.03653c0,.34857-3.34256,1.80477-6.09366,1.80477a9.62409,9.62409,0,0,1-7.03667-2.6821c-1.321-1.45619-2.07377-2.9321-2.07377-6.21551a8.37794,8.37794,0,0,1,8.556-8.39607c2.533,0,3.68472.82994,4.49316.82994.19953,0,1.02875-.12648,1.16914-.82994h.55665l.20535,5.28831h-.58457c-.67625-1.80121-1.97757-4.28451-5.48022-4.28451-2.3846,0-6.07051,1.57509-6.07051,7.924,0,4.52629,2.61072,7.35971,6.49972,7.35971,1.69682,0,3.41679-.5677,3.41679-1.4765V23.40348c0-2.07782-.48825-2.101-2.1967-2.22793v-.45119H192.5Z"/>
    </g>
    <path d="M217.48654,16.52466c-.71912-3.044-2.80336-5.36194-6.371-5.36194a6.42142,6.42142,0,0,0-4.34008,1.76c-1.12614,1.11177-2.40086,2.96049-2.40086,7.137,0,6.14532,3.45052,8.66387,7.08892,8.66387a9.03617,9.03617,0,0,0,6.54142-2.9239l.52541.52079A9.6395,9.6395,0,0,1,210.68646,30c-4.66134,0-9.67185-2.78293-9.67185-9.99656A9.60058,9.60058,0,0,1,210.85807,10c2.57592,0,4.463.958,5.09508.958A1.294,1.294,0,0,0,217.287,10h.60547l.25738,6.52466Z"/>
    <path d="M233.34481,29.597H219.81542v-.47376c1.60869-.10618,2.18162-.33635,2.18162-2.26167V15.7319c0-1.98281-.60547-2.13233-2.18162-2.25122v-.48017h13.29969l.06959,3.58734h-.62162c-.37-2.23852-1.02875-2.63341-3.8042-2.63341h-3.38555c-.52079,0-.82008,0-.82008.85417V20.3677h3.85182c2.22925,0,2.47628-.60144,2.76038-2.38175h.56722v5.82181h-.56722c-.30037-2.00823-.68078-2.355-2.76038-2.38874l-3.85182-.04467v6.21089c0,1.02876,0,1.05144,3.7289,1.05144,3.12344,0,4.38295-.75038,5.4813-3.27653h.70749Z"/>
    <path d="M252.52139,13.48068c-1.57507.17386-2.38352.26841-2.38352,3.20337V29.873h-.42328l-11.01141-13.7352h-.06377v9.77149c0,2.57889.5405,3.13033,2.358,3.21394V29.597h-5.8838v-.47376c1.89741-.12769,2.43209-.50927,2.43209-3.21394V14.8573c-1.01711-1.25773-1.42424-1.37662-2.43209-1.37662v-.48017h4.28663l9.58479,12.0581h.06033V16.68405c0-2.881-.70748-3.08448-2.40086-3.20337v-.48017h5.87691Z"/>
    <path d="M264.2194,29.597h-7.31506v-.47376c2.28376-.10618,2.358-.68374,2.358-2.53946V14.05064h-1.35584c-2.75347,0-3.42854.4797-3.98639,3.2093h-.60072l.16117-4.25943h14.1244l.13338,4.25943h-.595c-.52424-2.75288-1.21546-3.2093-3.98058-3.2093h-1.35v12.811c0,1.70667.29929,2.17806,2.40668,2.26167Z"/>
    <path d="M282.02851,29.597H268.49914v-.47376c1.60287-.10618,2.19207-.33635,2.19207-2.26167V15.7319c0-1.98281-.60547-2.13233-2.19207-2.25122v-.48017h13.31013l.05808,3.58734h-.61592c-.38041-2.23852-1.02876-2.63341-3.81464-2.63341h-3.38557c-.52079,0-.82113,0-.82113.85417V20.3677h3.85871c2.23386,0,2.48672-.60144,2.75347-2.38175h.57874v5.82181h-.57874c-.30036-2.00823-.6797-2.355-2.75347-2.38874l-3.85871-.04467v6.21089c0,1.02876,0,1.05144,3.73459,1.05144,3.12925,0,4.38414-.75038,5.48712-3.27653h.69716Z"/>
    <path d="M300,29.597h-4.02453l-5.958-7.717-1.415.047v4.9345c0,1.68292.25286,2.15549,2.25585,2.26167V29.597h-6.93807v-.47376c2.04122-.12769,2.13754-.65939,2.13754-2.53946V15.7319c0-1.85632-.38041-2.07736-2.13754-2.25122v-.48017h6.91135c2.23387,0,6.3768.52483,6.3768,4.3858,0,3.3618-3.26382,3.96429-4.543,4.21834l5.15886,6.33666A2.80111,2.80111,0,0,0,300,29.12327Zm-11.39754-8.60367c2.10739-.02542,5.8629-.07423,5.8629-3.65574,0-3.33567-3.2846-3.40693-4.2972-3.40693-1.32911,0-1.5657.174-1.5657.9012Z"/>
  </g>
  <g>
    <g>
      <circle cx="30.00001" cy="30" r="29.66666" fill="url(#New_Gradient_Swatch_1)"/>
      <path d="M30,.66667A29.33333,29.33333,0,1,1,.66667,30,29.36655,29.36655,0,0,1,30,.66667M30,0A30,30,0,1,0,60,30,30,30,0,0,0,30,0Z" fill="#6b4129"/>
    </g>
    <g>
      <circle cx="30.00001" cy="30" r="22.16666" fill="url(#linear-gradient)"/>
      <path d="M30,8.16664A21.83336,21.83336,0,1,1,8.16664,30,21.85809,21.85809,0,0,1,30,8.16664M30,7.5A22.5,22.5,0,1,0,52.5,30,22.52558,22.52558,0,0,0,30,7.5Z" fill="#6b4129"/>
    </g>
    <g>
      <g>
        <path d="M32.8635,19.8102a2.772,2.772,0,1,1-2.77169-2.77677A2.77339,2.77339,0,0,1,32.8635,19.8102Z" fill="url(#New_Gradient_Swatch_1-2)"/>
        <path d="M30.09181,22.75293a2.94312,2.94312,0,1,1,2.93847-2.94271A2.94414,2.94414,0,0,1,30.09181,22.75293Zm0-5.55289A2.60978,2.60978,0,1,0,32.697,19.81022,2.61085,2.61085,0,0,0,30.09181,17.2Z" fill="#004937"/>
      </g>
      <g>
        <path d="M26.79614,38.81822a2.77159,2.77159,0,1,1-2.76976-2.77392A2.77126,2.77126,0,0,1,26.79614,38.81822Z" fill="url(#New_Gradient_Swatch_1-3)"/>
        <path d="M24.02638,41.75553a2.939,2.939,0,1,1,2.93652-2.93717A2.94208,2.94208,0,0,1,24.02638,41.75553Zm0-5.54459a2.60563,2.60563,0,1,0,2.60319,2.60742A2.60991,2.60991,0,0,0,24.02638,36.21094Z" fill="#004937"/>
      </g>
      <g>
        <path d="M22.98852,27.02785a2.77381,2.77381,0,1,1-2.77534-2.777A2.77539,2.77539,0,0,1,22.98852,27.02785Z" fill="url(#New_Gradient_Swatch_1-4)"/>
        <path d="M20.21323,29.96989a2.94287,2.94287,0,1,1,2.94206-2.94206A2.94386,2.94386,0,0,1,20.21323,29.96989Zm0-5.55241A2.60954,2.60954,0,1,0,22.822,27.02783,2.61106,2.61106,0,0,0,20.21323,24.41748Z" fill="#004937"/>
      </g>
      <g>
        <path d="M42.74379,27.30821a2.77367,2.77367,0,1,1-2.77392-2.77558A2.77329,2.77329,0,0,1,42.74379,27.30821Z" fill="url(#New_Gradient_Swatch_1-5)"/>
        <path d="M39.96973,30.25016a2.94214,2.94214,0,1,1,2.94076-2.94189A2.94406,2.94406,0,0,1,39.96973,30.25016Zm0-5.55094a2.60881,2.60881,0,1,0,2.60743,2.60905A2.61071,2.61071,0,0,0,39.96973,24.69922Z" fill="#004937"/>
      </g>
      <g>
        <path d="M38.92979,38.92347A2.77256,2.77256,0,1,1,36.158,36.15121,2.7692,2.7692,0,0,1,38.92979,38.92347Z" fill="url(#New_Gradient_Swatch_1-6)"/>
        <path d="M36.15789,41.86067a2.938,2.938,0,1,1,2.93847-2.93717A2.9418,2.9418,0,0,1,36.15789,41.86067Zm0-5.54264A2.60466,2.60466,0,1,0,38.763,38.9235,2.609,2.609,0,0,0,36.15789,36.318Z" fill="#004937"/>
      </g>
      <g>
        <g>
          <path d="M24.67949,23.47026c.08769.12943.18376.25748.28228.38138C24.87465,23.72221,24.77807,23.59444,24.67949,23.47026Z" fill="url(#New_Gradient_Swatch_1-7)"/>
          <path d="M24.83139,23.95541c-.10123-.12712-.19954-.25863-.29-.39161l.26856-.19726c.10124.1276.20052.25895.29036.39193Z" fill="#004937"/>
        </g>
        <g>
          <path d="M28.62354,12.84022A1.86364,1.86364,0,0,0,26.9125,12a4.1797,4.1797,0,0,0-2.61079,1.07269c-.05428.04539-.105.09071-.15868.13581a.36341.36341,0,0,1-.04287.03649c-.06016.05822-.11637.11192-.16062.15617a8.86386,8.86386,0,0,0-2.73,6.409,8.76138,8.76138,0,0,0,.14419,1.58293,8.90654,8.90654,0,0,0,4.57487,6.27005c.01563-.18011.02617-.36022.02617-.5429a5.85358,5.85358,0,0,0-.993-3.26864c-.09852-.1239-.19459-.252-.28228-.38138a6.54007,6.54007,0,0,1,3.59107-9.939,1.38534,1.38534,0,0,0,.29061-.07714.21354.21354,0,0,0,.128-.11637A.5775.5775,0,0,0,28.62354,12.84022Z" fill="url(#New_Gradient_Swatch_1-8)"/>
          <path d="M26.07293,27.929l-.22266-.11866a9.13025,9.13025,0,0,1-4.66048-6.38785,9.0325,9.0325,0,0,1,2.63412-8.14144l.37109-.33626a4.33329,4.33329,0,0,1,2.69694-1.11149h.02148a2.02653,2.02653,0,0,1,1.85547.92529.74438.74438,0,0,1,.0791.62972.36649.36649,0,0,1-.22135.21908,1.51533,1.51533,0,0,1-.32552.08772,6.37438,6.37438,0,0,0-3.48372,9.68164c.08528.12565.179.25033.27506.37093a6.02983,6.02983,0,0,1,1.029,3.37256c0,.17041-.00846.34766-.02669.55729ZM24.20607,13.37452l-.14877.14453A8.69764,8.69764,0,0,0,21.51792,21.363a8.796,8.796,0,0,0,4.263,6.02815c.00488-.09505.00716-.18392.00716-.27083a5.69084,5.69084,0,0,0-.96452-3.17594c-.09342-.11605-.19173-.24756-.28223-.38054A6.70708,6.70708,0,0,1,28.224,13.37126a1.40266,1.40266,0,0,0,.27018-.06966.1342.1342,0,0,0,.04069-.02409.41269.41269,0,0,0-.056-.35465l-.0013-.00212a1.694,1.694,0,0,0-1.56575-.75407,4.00876,4.00876,0,0,0-2.50293,1.03386l-.15886.13558A.4698.4698,0,0,1,24.20607,13.37452Z" fill="#004937"/>
        </g>
      </g>
      <g>
        <g>
          <path d="M36.30616,13.46a6.0067,6.0067,0,0,0-.49279-.44489A4.1347,4.1347,0,0,0,33.27664,12a1.85823,1.85823,0,0,0-1.711.84018.56326.56326,0,0,0-.06739.49752.22288.22288,0,0,0,.13028.11973,1.66941,1.66941,0,0,0,.27949.07378,6.53826,6.53826,0,0,1,4.53234,4.74717,9.61749,9.61749,0,0,1,2.27224-.60385A8.8745,8.8745,0,0,0,36.30616,13.46Z" fill="url(#New_Gradient_Swatch_1-9)"/>
          <path d="M36.32325,18.50505l-.04492-.18783a6.36419,6.36419,0,0,0-4.41667-4.62581l-.03352-.00683a1.46875,1.46875,0,0,1-.26433-.07357.39054.39054,0,0,1-.222-.21647.729.729,0,0,1,.08008-.63835,2.00791,2.00791,0,0,1,1.85416-.92285h.015a4.28356,4.28356,0,0,1,2.6276,1.05257,6.0428,6.0428,0,0,1,.50456.45573,9.02883,9.02883,0,0,1,2.45117,4.29329l.04427.17969-.1836.02523a9.43822,9.43822,0,0,0-2.23242.59326Zm-4.66666-5.22152c.00162,0,.01237.00879.04231.02295a1.28458,1.28458,0,0,0,.19857.05209l.0459.00992a6.70287,6.70287,0,0,1,4.612,4.6862,9.77969,9.77969,0,0,1,1.94954-.51807,8.69846,8.69846,0,0,0-2.31543-3.95768l-.00163-.0013a5.73378,5.73378,0,0,0-.47884-.43245,3.95914,3.95914,0,0,0-2.418-.97852h-.01368a1.70063,1.70063,0,0,0-1.5651.75277.40222.40222,0,0,0-.056.36474Z" fill="#004937"/>
        </g>
        <g>
          <path d="M35.19367,23.887c.11249-.1414.2194-.28423.3202-.43207C35.40246,23.59244,35.29505,23.73778,35.19367,23.887Z" fill="url(#New_Gradient_Swatch_1-10)"/>
          <path d="M35.32423,23.99089l-.26856-.19743c.10547-.15544.21615-.30469.3291-.44352l.26693.19889C35.54851,23.7,35.43914,23.84619,35.32423,23.99089Z" fill="#004937"/>
        </g>
        <g>
          <path d="M35.51387,23.45492c-.1008.14784-.20771.29067-.3202.43207a6.519,6.519,0,0,1-4.75943,2.44853c-.11471.00553-.22943.012-.34243.012-.191,0-.37807-.012-.56571-.02731.01448.22521.029.4555.029.68573a9.75943,9.75943,0,0,1-.14812,1.66674c.22384.01533.451.02674.68487.02674.13638,0,.27-.00394.40646-.01141a8.7804,8.7804,0,0,0,3.73606-1.01727A8.88717,8.88717,0,0,0,38.829,21.40954,5.84471,5.84471,0,0,0,35.51387,23.45492Z" fill="url(#New_Gradient_Swatch_1-11)"/>
          <path d="M30.09181,28.86605c-.20736,0-.4222-.0083-.69629-.027l-.18457-.0127.0319-.18212a9.65283,9.65283,0,0,0,.14551-1.63835c0-.21712-.013-.43408-.02865-.675l-.01237-.19254.19238.01562a6.73668,6.73668,0,0,0,.84148.01725l.04492-.00227A6.36336,6.36336,0,0,0,35.06349,23.783c.11-.138.21419-.27767.31282-.422l.00814-.0109a6.03412,6.03412,0,0,1,3.4095-2.10352l.24382-.0524-.0446.24528a9.11511,9.11511,0,0,1-4.681,6.37874,8.90158,8.90158,0,0,1-3.80631,1.03629C30.36817,28.862,30.23113,28.86605,30.09181,28.86605Zm-.49056-.34815a7.73417,7.73417,0,0,0,.888.00375,8.57806,8.57806,0,0,0,3.667-.99805,8.78456,8.78456,0,0,0,4.459-5.8916,5.70483,5.70483,0,0,0-2.96744,1.92253c-.10222.14908-.21.29345-.32357.43636A6.69706,6.69706,0,0,1,30.443,26.502l-.04524.00212a6.36047,6.36047,0,0,1-.69336-.00358c.01009.1735.01725.33821.01725.50537A9.84274,9.84274,0,0,1,29.60125,28.5179Z" fill="#004937"/>
        </g>
      </g>
      <g>
        <g>
          <g>
            <path d="M34.8318,23.15485c-.09858.1219-.18821.25167-.27784.38109C34.65026,23.41456,34.7449,23.28513,34.8318,23.15485Z" fill="url(#New_Gradient_Swatch_1-12)"/>
            <path d="M34.68458,23.63965l-.26758-.19857c.096-.13867.1862-.26871.28516-.39111l.26823.19726C34.88087,23.38135,34.78386,23.51465,34.68458,23.63965Z" fill="#004937"/>
          </g>
          <g>
            <path d="M46.14859,23.70881a1.8734,1.8734,0,0,0,.28171-1.88613A4.21457,4.21457,0,0,0,44.623,19.65541c-.06237-.03706-.12024-.07407-.17874-.11164-.01614-.007-.0317-.01785-.04732-.02617-.074-.0426-.1414-.07966-.19819-.10805a8.8463,8.8463,0,0,0-6.92653-.67261,9.07227,9.07227,0,0,0-1.46491.61583,8.88655,8.88655,0,0,0-4.59077,6.25751c.17486-.03843.34916-.08461.5234-.14A5.79707,5.79707,0,0,0,34.554,23.53594c.08963-.12942.17926-.25919.27784-.38109a6.52633,6.52633,0,0,1,10.5473.4234,1.77732,1.77732,0,0,0,.16147.25782.21243.21243,0,0,0,.15144.08381A.57187.57187,0,0,0,46.14859,23.70881Z" fill="url(#New_Gradient_Swatch_1-13)"/>
            <path d="M31.00717,25.82715l.04525-.24691a9.11115,9.11115,0,0,1,4.67708-6.375,9.31218,9.31218,0,0,1,1.49219-.62711,8.96434,8.96434,0,0,1,7.05664.68506c.05436.027.12467.06559.20182.11l-.04264.16732.07389-.14925c.07975.049.13607.0848.19661.12093a4.36074,4.36074,0,0,1,1.88151,2.26107,2.04151,2.04151,0,0,1-.319,2.04915.74978.74978,0,0,1-.58138.26416.36693.36693,0,0,1-.27213-.139,1.51545,1.51545,0,0,1-.16048-.24723l-.02214-.03988a6.36072,6.36072,0,0,0-10.27181-.4025c-.09505.11751-.18033.24105-.2653.36409a5.97491,5.97491,0,0,1-2.90722,2.00716c-.17122.05453-.35221.10287-.53776.14388Zm8.95215-7.3418a8.73758,8.73758,0,0,0-2.637.41049,8.98519,8.98519,0,0,0-1.43782.60449A8.77693,8.77693,0,0,0,31.431,25.38672q.13233-.03516.25846-.07536a5.63145,5.63145,0,0,0,2.73405-1.8789c.08952-.13005.17969-.26009.27865-.38249a6.65376,6.65376,0,0,1,3.22851-2.22819,6.72105,6.72105,0,0,1,7.58724,2.66406l.02962.0516a1.3179,1.3179,0,0,0,.12012.19075.09927.09927,0,0,0,.03125.026.42565.42565,0,0,0,.32715-.15869l.00065-.00065a1.70865,1.70865,0,0,0,.24446-1.72265,4.03138,4.03138,0,0,0-1.738-2.0765c-.05957-.03516-.11914-.07324-.17936-.112.00814.005-.00782-.00277-.02442-.0127-.08659-.05-.151-.08528-.2054-.11246A8.66819,8.66819,0,0,0,39.95932,18.48535Z" fill="#004937"/>
          </g>
        </g>
        <g>
          <g>
            <path d="M47.87131,31.228a4.99717,4.99717,0,0,0,.27892-.60465,4.14111,4.14111,0,0,0,.1999-2.72883,1.88048,1.88048,0,0,0-1.31569-1.38114.58522.58522,0,0,0-.49387.09128.20465.20465,0,0,0-.07241.16039,1.2689,1.2689,0,0,0,.01174.287,6.55047,6.55047,0,0,1-3.15427,5.75778,9.6669,9.6669,0,0,1,1.2617,1.98334A8.82225,8.82225,0,0,0,47.87131,31.228Z" fill="url(#New_Gradient_Swatch_1-14)"/>
            <path d="M44.51661,35.03157l-.07976-.16634A9.51666,9.51666,0,0,0,43.197,32.916l-.123-.14908.16569-.09994a6.37724,6.37724,0,0,0,3.07357-5.61084,1.30844,1.30844,0,0,1-.01042-.31119.3487.3487,0,0,1,.14258-.27686.74641.74641,0,0,1,.62109-.11833,2.04587,2.04587,0,0,1,1.44271,1.49382,4.291,4.291,0,0,1-.2041,2.841,5.15576,5.15576,0,0,1-.28613.62077,8.97528,8.97528,0,0,1-3.34506,3.6302Zm-.943-2.18a9.85351,9.85351,0,0,1,1.082,1.70247,8.64168,8.64168,0,0,0,3.06706-3.401l.00261-.00553a4.81486,4.81486,0,0,0,.2692-.584,3.96506,3.96506,0,0,0,.19727-2.61784,1.71736,1.71736,0,0,0-1.19369-1.2697.41349.41349,0,0,0-.36035.06429l.00065-.00032a.31633.31633,0,0,1-.0039.03613,1.1863,1.1863,0,0,0,.01074.25635A6.71622,6.71622,0,0,1,43.57357,32.85156Z" fill="#004937"/>
          </g>
          <g>
            <path d="M37.60959,33.31268c.16369.0646.33411.12641.50562.176C37.94981,33.42181,37.77944,33.3628,37.60959,33.31268Z" fill="url(#New_Gradient_Swatch_1-15)"/>
            <path d="M38.069,33.64876c-.1556-.04492-.321-.10254-.52051-.181l.1084-.31478c.17871.05274.35384.11361.52083.181Z" fill="#004937"/>
          </g>
          <g>
            <path d="M38.11521,33.48864c-.17151-.04955-.34193-.11136-.50562-.176a6.51239,6.51239,0,0,1-3.77112-3.80259c-.04231-.10583-.08073-.21466-.11415-.32436-.0557-.18234-.10359-.36524-.1459-.54815-.20936.08547-.42425.16506-.64644.23468a9.74144,9.74144,0,0,1-1.62859.36244c.04955.22.1097.44239.18148.66093.03791.13142.08524.25754.12977.3856a8.87063,8.87063,0,0,0,9.4493,5.74637A5.86,5.86,0,0,0,38.11521,33.48864Z" fill="url(#New_Gradient_Swatch_1-16)"/>
            <path d="M39.92644,36.26692a9.042,9.042,0,0,1-8.46842-5.928l-.03158-.09066c-.0358-.10108-.07161-.202-.10189-.30615-.069-.21029-.13118-.43783-.18391-.67074l-.03972-.17708.17969-.02458a9.63137,9.63137,0,0,0,1.60091-.35628c.20313-.06364.41048-.13884.63379-.23014l.18131-.07406.04427.19075c.04135.1792.08822.35857.14291.53711.0319.10515.069.20964.10937.3112a6.362,6.362,0,0,0,3.67643,3.709c.19043.07519.34636.12923.49187.17122l.01464.00488a6.04867,6.04867,0,0,1,3.03223,2.61133l.124.2168L41.085,36.193A9.14854,9.14854,0,0,1,39.92644,36.26692ZM31.5075,29.37321c.04069.16162.08593.31917.13574.47054.03.10335.06348.19824.09733.29329l.03158.08936a8.70422,8.70422,0,0,0,9.01464,5.66487,5.71893,5.71893,0,0,0-2.72526-2.24479c-.15364-.04459-.31673-.10123-.513-.17871a6.69242,6.69242,0,0,1-3.86621-3.89941c-.04264-.10645-.08236-.21973-.11751-.334q-.05664-.18529-.10319-.37109c-.16537.06364-.3239.11914-.47982.168A9.80719,9.80719,0,0,1,31.5075,29.37321Z" fill="#004937"/>
          </g>
        </g>
      </g>
      <g>
        <g>
          <g>
            <path d="M38.46876,33.00087c-.14978-.05565-.29956-.10354-.45213-.14534C38.16755,32.9073,38.31619,32.95633,38.46876,33.00087Z" fill="url(#New_Gradient_Swatch_1-17)"/>
            <path d="M38.42188,33.16081c-.15494-.04525-.30566-.09506-.45931-.14779l.09831-.31836c.15723.04329.31152.09277.46582.15007Z" fill="#004937"/>
          </g>
          <g>
            <path d="M41.48209,43.92123a1.87983,1.87983,0,0,0,1.8814-.31849,4.2,4.2,0,0,0,1.48776-2.40144c.01785-.0679.03564-.13473.049-.2032a.45561.45561,0,0,0,.0134-.05348c.01779-.08182.02948-.15868.04065-.22271a8.83726,8.83726,0,0,0-1.53286-6.78508A8.86892,8.86892,0,0,0,35.006,30.3302c.09191.15423.18764.30595.29791.45573a5.8422,5.8422,0,0,0,2.71269,2.0696c.15257.0418.30235.08969.45213.14534a6.46164,6.46164,0,0,1,3.04509,2.309,6.5286,6.5286,0,0,1-.14813,7.84187,1.3,1.3,0,0,0-.19043.235.22139.22139,0,0,0-.03786.167A.578.578,0,0,0,41.48209,43.92123Z" fill="url(#New_Gradient_Swatch_1-18)"/>
            <path d="M42.10352,44.209a1.69648,1.69648,0,0,1-.69075-.13639h-.00065a.74441.74441,0,0,1-.4336-.46875.375.375,0,0,1,.05209-.30013,1.44077,1.44077,0,0,1,.21386-.26661,6.38861,6.38861,0,0,0,.13444-7.62955,6.285,6.285,0,0,0-2.96712-2.25c-.14616-.05436-.29134-.10059-.43945-.14128A6.00905,6.00905,0,0,1,35.169,30.88314a5.53371,5.53371,0,0,1-.306-.46778l-.1289-.21614.24967-.03418a9.00709,9.00709,0,0,1,7.51367,2.45019A9.11172,9.11172,0,0,1,43.557,33.83952,8.95655,8.95655,0,0,1,45.1185,40.752l-.00944.05371c-.00912.05339-.01921.1123-.03223.17415a.29214.29214,0,0,1-.01139.04623c-.01465.07259-.03256.14-.05046.20833a4.354,4.354,0,0,1-1.55436,2.50391A2.32575,2.32575,0,0,1,42.10352,44.209Zm-.55208-.43913a1.72771,1.72771,0,0,0,1.71582-.30306,4.02031,4.02031,0,0,0,1.42252-2.30631c.01888-.07194.03484-.13184.04655-.19336l.0101-.03841c.0166-.07552.02571-.12989.03417-.17871l.00977-.0573a8.62589,8.62589,0,0,0-1.50391-6.6582,8.77706,8.77706,0,0,0-1.0205-1.17936,8.66836,8.66836,0,0,0-6.98112-2.39095c.05241.08138.10254.15365.15332.22266a5.67076,5.67076,0,0,0,2.63639,2.01237c.14356.03873.29785.08821.45215.14551a6.61591,6.61591,0,0,1,3.12272,2.36816,6.72664,6.72664,0,0,1-.15234,8.04134,1.31248,1.31248,0,0,0-.17643.21386.16629.16629,0,0,0-.02181.04916A.41352.41352,0,0,0,41.55144,43.76985Z" fill="#004937"/>
          </g>
        </g>
        <g>
          <g>
            <path d="M34.89189,47.91734a5.85969,5.85969,0,0,0,.65813.07349,4.1233,4.1233,0,0,0,2.65316-.6648,1.87463,1.87463,0,0,0,.8964-1.68094.57931.57931,0,0,0-.2394-.44381.21758.21758,0,0,0-.1743-.02166,1.69064,1.69064,0,0,0-.27117.10519A6.54777,6.54777,0,0,1,31.961,44.08663a9.44228,9.44228,0,0,1-1.48719,1.82347A8.90751,8.90751,0,0,0,34.89189,47.91734Z" fill="url(#New_Gradient_Swatch_1-19)"/>
            <path d="M35.87175,48.16666c-.11556,0-.22656-.00358-.331-.00944a6.00467,6.00467,0,0,1-.67513-.0752,9.06934,9.06934,0,0,1-4.49967-2.04459l-.14128-.11979.13379-.12793a9.30156,9.30156,0,0,0,1.46126-1.79134l.10254-.16472.14746.12663a6.36961,6.36961,0,0,0,6.28874,1.16764,1.704,1.704,0,0,1,.28808-.11035.37994.37994,0,0,1,.31283.04981.7388.7388,0,0,1,.30566.55827,2.039,2.039,0,0,1-.96354,1.83528A4.09744,4.09744,0,0,1,35.87175,48.16666Zm-5.14908-2.2666A8.737,8.737,0,0,0,34.917,47.7526l.00293.00032a5.74815,5.74815,0,0,0,.63932.07162,3.95348,3.95348,0,0,0,2.54525-.63281,1.70706,1.70706,0,0,0,.82943-1.52767.41173.41173,0,0,0-.17025-.32683.44291.44291,0,0,0-.04525.00586,1.61077,1.61077,0,0,0-.22851.0905,6.70979,6.70979,0,0,1-6.49056-1.09766A9.62864,9.62864,0,0,1,30.72267,45.90006Z" fill="#004937"/>
          </g>
          <g>
            <path d="M29.6976,38.81212c-.00838.181-.0134.35857-.00838.53452C29.69925,39.17069,29.70205,38.99309,29.6976,38.81212Z" fill="url(#New_Gradient_Swatch_1-20)"/>
            <path d="M29.85548,39.35612l-.333-.00489c-.00488-.18,0-.36165.00879-.54687l.333.00358C29.86883,38.99088,29.8659,39.17545,29.85548,39.35612Z" fill="#004937"/>
          </g>
          <g>
            <path d="M29.68922,39.34664c-.005-.176,0-.35355.00838-.53452a6.51052,6.51052,0,0,1,2.42926-4.77c.08969-.06962.17989-.14032.2706-.20715.15645-.11191.31569-.211.47665-.3101-.147-.17544-.29124-.35247-.42482-.54011a9.484,9.484,0,0,1-.853-1.43822c-.19659.1186-.38645.24722-.57187.38144q-.16455.11938-.32237.24665a8.78057,8.78057,0,0,0-2.44043,3.01167,8.885,8.885,0,0,0-.06067,7.75948A5.8779,5.8779,0,0,0,29.68922,39.34664Z" fill="url(#New_Gradient_Swatch_1-21)"/>
            <path d="M28.15821,43.24316l-.10774-.22591a8.99326,8.99326,0,0,1,.06185-7.90495A8.89716,8.89716,0,0,1,30.599,32.04362c.10612-.08529.21582-.1696.3278-.25065.207-.15007.39778-.27735.58366-.38933l.15657-.09407.07943.16439a9.231,9.231,0,0,0,.83789,1.41308c.13346.1875.27962.36589.41764.5306l.12338.14779-.16374.10124c-.15755.09733-.3138.194-.46712.30371-.07911.05826-.15951.12076-.23926.18294a6.37307,6.37307,0,0,0-2.39128,4.667c-.00814.17643-.013.34961-.00814.52181l-.00032.01367a6.06167,6.06167,0,0,1-1.5306,3.70117Zm3.37012-11.458c-.12956.083-.26367.1748-.40625.278q-.16113.1167-.31543.24121a8.568,8.568,0,0,0-2.39551,2.9554,8.66112,8.66112,0,0,0-.16764,7.37956,5.73077,5.73077,0,0,0,1.279-3.29492c-.00488-.17806,0-.3571.00879-.54a6.69036,6.69036,0,0,1,2.49121-4.89225l.028-.02181c.082-.06413.165-.12858.24837-.18978.10775-.07715.21614-.14779.32519-.21647-.10449-.12761-.21061-.26205-.31054-.40267A9.42592,9.42592,0,0,1,31.52833,31.78516Z" fill="#004937"/>
          </g>
        </g>
      </g>
      <g>
        <g>
          <g>
            <path d="M30.51606,39.037c.00445-.15644.00445-.31455,0-.471C30.50774,38.72249,30.51218,38.8806,30.51606,39.037Z" fill="url(#New_Gradient_Swatch_1-22)"/>
            <path d="M30.68263,39.042l-.33334-.00065.16667-.00423-.16667-.00489v-.002H30.349c-.00391-.15723-.00749-.31576.00065-.473l.333.0039C30.68718,38.721,30.68718,38.88216,30.68263,39.042Z" fill="#004937"/>
          </g>
          <g>
            <path d="M21.09207,45.326a1.87046,1.87046,0,0,0,.892,1.68767,4.20171,4.20171,0,0,0,2.7408.66588c.07127-.0061.14088-.01112.21215-.02.01585-.00171.03866-.00171.054-.005.0849-.01117.159-.02115.22162-.03176a8.8288,8.8288,0,0,0,5.966-3.583,9.04813,9.04813,0,0,0,.81629-1.3669,8.90789,8.90789,0,0,0-.029-7.75667,5.22635,5.22635,0,0,0-.33964.42425A5.80056,5.80056,0,0,0,30.51606,38.566c.00445.15645.00445.31456,0,.471a6.52919,6.52919,0,0,1-8.73051,5.93652,1.63139,1.63139,0,0,0-.28422-.108.22016.22016,0,0,0-.17236.02058A.57568.57568,0,0,0,21.09207,45.326Z" fill="url(#New_Gradient_Swatch_1-23)"/>
            <path d="M24.33628,47.85937a4.12971,4.12971,0,0,1-2.45085-.71126,2.03535,2.03535,0,0,1-.959-1.84082.74.74,0,0,1,.30371-.55534.38636.38636,0,0,1,.30436-.04981,1.18783,1.18783,0,0,1,.24642.08789l.068.02963a6.36235,6.36235,0,0,0,8.50032-5.78744c.00456-.15332.00456-.30794,0-.46126a5.97233,5.97233,0,0,1,1.14193-3.32812,5.29331,5.29331,0,0,1,.35091-.43848l.16537-.18262.10807.22136a9.04363,9.04363,0,0,1-.80208,9.29459,8.9414,8.9414,0,0,1-6.07813,3.65006c-.05436.00944-.125.01888-.20475.02963a.58568.58568,0,0,1-.0651.00716c-.06511.00781-.12207.01237-.17969.01725l-.04655.00391C24.613,47.85416,24.47755,47.85937,24.33628,47.85937Zm-2.9056-2.835-.01042.001a.4105.4105,0,0,0-.16243.31835l-.00033.00261a1.70221,1.70221,0,0,0,.8252,1.53288,4.01883,4.01883,0,0,0,2.63118.63411l.0446-.00358c.0524-.00456.10449-.00879.15755-.01563l.04492-.00325c.10059-.014.167-.02279.22331-.03255a8.6148,8.6148,0,0,0,5.85937-3.51628,8.70839,8.70839,0,0,0,.88184-8.71972c-.05111.06413-.10515.13542-.16472.21647a5.63525,5.63525,0,0,0-1.07812,3.13281c.00455.14942.00455.31055,0,.47038a6.69557,6.69557,0,0,1-8.95345,6.08854l-.08333-.03581a.93309.93309,0,0,0-.17644-.06543A.19233.19233,0,0,0,21.43068,45.02441Z" fill="#004937"/>
          </g>
        </g>
        <g>
          <g>
            <path d="M15.23771,40.31043a5.4278,5.4278,0,0,0,.13194.65089,4.162,4.162,0,0,0,1.46353,2.31461,1.88951,1.88951,0,0,0,1.87918.32681.59169.59169,0,0,0,.3438-.36747.2195.2195,0,0,0-.03592-.17258,1.445,1.445,0,0,0-.18068-.22385,6.54249,6.54249,0,0,1-.89087-6.50279,9.59821,9.59821,0,0,1-2.19179-.84241A8.82333,8.82333,0,0,0,15.23771,40.31043Z" fill="url(#New_Gradient_Swatch_1-24)"/>
            <path d="M18.09572,43.88606a2.31818,2.31818,0,0,1-1.35938-.47428A4.31986,4.31986,0,0,1,15.209,41.00455a5.5331,5.5331,0,0,1-.13607-.66894,8.98051,8.98051,0,0,1,.52962-4.90495l.06967-.17155.16341.08757a9.431,9.431,0,0,0,2.15364.82747l.18685.0472-.07357.17806a6.37261,6.37261,0,0,0,.86849,6.33691l.02019.02214a1.31065,1.31065,0,0,1,.17382.22168.3711.3711,0,0,1,.05111.30111.76248.76248,0,0,1-.431.47135A1.7714,1.7714,0,0,1,18.09572,43.88606Zm-2.25163-8.15885a8.64779,8.64779,0,0,0-.44206,4.555l.001.00619a5.24175,5.24175,0,0,0,.12793.63053,3.9951,3.9951,0,0,0,1.39941,2.222,1.74463,1.74463,0,0,0,1.71615.30859.42225.42225,0,0,0,.25032-.26367l-.00032.00065c-.00163,0-.00423-.01335-.01856-.03679a1.08188,1.08188,0,0,0-.13346-.16764l-.029-.0319a6.71144,6.71144,0,0,1-.99121-6.50065A9.78288,9.78288,0,0,1,15.84409,35.72721Z" fill="#004937"/>
          </g>
          <g>
            <path d="M22.24578,32.532c-.16956.04789-.34215.10023-.50755.16038C21.90557,32.64788,22.07873,32.59275,22.24578,32.532Z" fill="url(#New_Gradient_Swatch_1-25)"/>
            <path d="M21.78126,32.85351l-.09993-.3177c.16894-.06153.34538-.11491.51888-.16439l.10254.31706C22.12762,32.75228,21.95184,32.80794,21.78126,32.85351Z" fill="#004937"/>
          </g>
          <g>
            <path d="M21.73823,32.69241c.1654-.06015.338-.11249.50755-.16038a6.50821,6.50821,0,0,1,5.29315.81236c.0963.0618.19038.12532.28394.19436.15646.11135.29734.23052.441.35242.1231-.19431.24443-.38418.38252-.57181a9.32262,9.32262,0,0,1,1.09578-1.26227c-.17373-.14756-.35521-.28782-.539-.42317-.11135-.08239-.22384-.15919-.33519-.23382a8.877,8.877,0,0,0-11.01279,1.00336A5.84129,5.84129,0,0,0,21.73823,32.69241Z" fill="url(#New_Gradient_Swatch_1-26)"/>
            <path d="M28.30177,34.14225l-.14616-.124c-.12825-.10905-.27376-.23275-.42936-.34375-.0931-.06836-.18425-.12989-.27735-.19011a6.36127,6.36127,0,0,0-5.15885-.79166c-.16439.04655-.333.09733-.49479.15625l-.01335.00423a6.02554,6.02554,0,0,1-3.99381-.2972l-.22819-.10059.18-.17252A9.04424,9.04424,0,0,1,28.959,31.26042c.1149.07714.22981.15559.34309.23925.208.153.387.294.54786.43034l.14062.11914-.13281.12761a9.18139,9.18139,0,0,0-1.07585,1.23991c-.139.18847-.26041.37923-.3776.5638Zm-4.3099-2.01334a6.66913,6.66913,0,0,1,3.638,1.07584c.09831.06315.19532.12858.292.19987.10742.0765.209.15788.30371.23633.08919-.13835.18261-.2793.28678-.42057a9.46631,9.46631,0,0,1,.98145-1.15267c-.11817-.09571-.24675-.19466-.38965-.29981-.10938-.08105-.21973-.15625-.3291-.22949a8.71125,8.71125,0,0,0-10.61621.81022,5.6931,5.6931,0,0,0,3.52929.18457c.167-.06055.34082-.11295.512-.16178A6.74641,6.74641,0,0,1,23.99187,32.12891Z" fill="#004937"/>
          </g>
        </g>
      </g>
      <g>
        <g>
          <g>
            <path d="M21.8546,33.26759c.152-.04066.30235-.09243.44962-.1442C22.15,33.16456,22.00215,33.21632,21.8546,33.26759Z" fill="url(#New_Gradient_Swatch_1-27)"/>
            <path d="M21.89747,33.42871,21.80014,33.11l.05437.15756-.043-.16114.01041-.0026-.00032-.0013c.1442-.04981.28906-.09994.43945-.1403l.09863.31836C22.208,33.33366,22.05372,33.38672,21.89747,33.42871Z" fill="#004937"/>
          </g>
          <g>
            <path d="M12.99159,26.20718a1.86718,1.86718,0,0,0-1.33132,1.36609,4.1977,4.1977,0,0,0,.20412,2.81651c.0264.06574.05371.12948.0821.19237a.51369.51369,0,0,0,.02087.05126c.03592.07458.06933.14419.0955.2032a8.8529,8.8529,0,0,0,5.23522,4.59021,9.01278,9.01278,0,0,0,1.54792.35634,8.893,8.893,0,0,0,7.38-2.39476c-.16814-.07184-.33519-.13644-.51-.19431a5.81615,5.81615,0,0,0-3.41176-.0707c-.14727.05177-.29762.10354-.44962.1442a6.52835,6.52835,0,0,1-8.31709-6.50753,1.86925,1.86925,0,0,0,.01813-.30207.20824.20824,0,0,0-.07212-.1556A.57007.57007,0,0,0,12.99159,26.20718Z" fill="url(#New_Gradient_Swatch_1-28)"/>
            <path d="M20.04884,36.03353a8.85379,8.85379,0,0,1-1.22591-.08529,9.22648,9.22648,0,0,1-1.5765-.363,8.96381,8.96381,0,0,1-5.33365-4.67643c-.027-.06087-.0586-.12662-.09245-.19694a.7173.7173,0,0,1-.03027-.07194c-.028-.06152-.05469-.124-.08041-.18815a4.3328,4.3328,0,0,1-.20768-2.93115,2.02814,2.02814,0,0,1,1.457-1.47689.73221.73221,0,0,1,.62305.12435.36716.36716,0,0,1,.13867.26693,1.73777,1.73777,0,0,1-.0153.32113,6.40385,6.40385,0,0,0,4.376,6.27962,6.33772,6.33772,0,0,0,3.72722.07161c.15071-.04036.2972-.09082.44043-.14128a5.98477,5.98477,0,0,1,3.51855.06934c.17285.05729.34408.12272.52409.19954l.23112.09929-.18132.17415A9.13619,9.13619,0,0,1,20.04884,36.03353ZM13.15171,26.356a.62537.62537,0,0,0-.126.01432l-.00325.00065a1.69534,1.69534,0,0,0-1.2041,1.255,4.00755,4.00755,0,0,0,.20052,2.70166c.02539.06331.05175.12483.07942.18538l.01075.0319a.14283.14283,0,0,1,.015.03158c.03223.0651.06543.13411.09115.19271a8.63241,8.63241,0,0,0,5.13476,4.499,8.87878,8.87878,0,0,0,1.5192.34993,8.77988,8.77988,0,0,0,7.05209-2.17383c-.08659-.0332-.1722-.0638-.25782-.09212a5.63848,5.63848,0,0,0-3.31315-.06868c-.14225.05013-.29655.10319-.4528.14518a6.67031,6.67031,0,0,1-3.91992-.07617,6.73808,6.73808,0,0,1-4.60677-6.59814l.00358-.03467a1.5544,1.5544,0,0,0,.015-.25049.149.149,0,0,0-.01042-.04053A.37907.37907,0,0,0,13.15171,26.356Z" fill="#004937"/>
          </g>
        </g>
        <g>
          <g>
            <path d="M15.97407,19.09386a5.06315,5.06315,0,0,0-.57546.32658,4.15171,4.15171,0,0,0-1.75613,2.10023,1.87562,1.87562,0,0,0,.26421,1.88807.57112.57112,0,0,0,.45407.21854.211.211,0,0,0,.15172-.08883,1.43677,1.43677,0,0,0,.15673-.24026,6.544,6.544,0,0,1,5.922-2.83157,9.53906,9.53906,0,0,1,.13364-2.35046A8.899,8.899,0,0,0,15.97407,19.09386Z" fill="url(#New_Gradient_Swatch_1-29)"/>
            <path d="M14.36069,23.794a.73759.73759,0,0,1-.57845-.27409,2.03756,2.03756,0,0,1-.2985-2.05013A4.308,4.308,0,0,1,15.308,19.28044a5.13666,5.13666,0,0,1,.59212-.33594A9.05847,9.05847,0,0,1,20.73732,17.95l.18489.01367-.0332.18245a9.37713,9.37713,0,0,0-.13151,2.30925l.013.193-.193-.01562A6.37273,6.37273,0,0,0,14.807,23.39209a1.4531,1.4531,0,0,1-.16959.25635A.3744.3744,0,0,1,14.36069,23.794ZM20.071,18.25863a8.7418,8.7418,0,0,0-4.02051.98323l-.00553.00277a4.81288,4.81288,0,0,0-.55567.31559,3.98152,3.98152,0,0,0-1.68815,2.01172,1.70907,1.70907,0,0,0,.22949,1.72526.40558.40558,0,0,0,.32683.16341c-.00163-.00146.00976-.00927.02929-.03157a1.34482,1.34482,0,0,0,.13672-.21159,6.70468,6.70468,0,0,1,5.89063-2.92969,9.69521,9.69521,0,0,1,.11523-2.01709Q20.29982,18.25871,20.071,18.25863Z" fill="#004937"/>
          </g>
          <g>
            <path d="M25.52554,23.399c-.09858-.15115-.20126-.29762-.3129-.43987C25.31117,23.11026,25.4142,23.2556,25.52554,23.399Z" fill="url(#New_Gradient_Swatch_1-30)"/>
            <path d="M25.39389,23.50114c-.11165-.14355-.21647-.291-.321-.45085l.27083-.194c.10775.13737.21289.28516.32129.45166Z" fill="#004937"/>
          </g>
          <g>
            <path d="M25.21264,22.95912c.11164.14225.21432.28872.3129.43987a6.5315,6.5315,0,0,1,.84355,5.29287c-.03119.10827-.063.216-.09636.32681-.06009.181-.13028.35635-.20155.52842.21775.05542.43879.11723.65813.18929a9.411,9.411,0,0,1,1.53452.66064c.08689-.21215.17042-.42676.2389-.64422q.06516-.195.11916-.39055a8.8928,8.8928,0,0,0-4.31574-10.18874A5.8602,5.8602,0,0,0,25.21264,22.95912Z" fill="url(#New_Gradient_Swatch_1-31)"/>
            <path d="M28.34767,30.63184l-.16309-.08822a9.24888,9.24888,0,0,0-1.50748-.64893c-.19434-.0638-.40593-.12467-.64681-.18619l-.18653-.04753.07357-.17773c.06966-.16846.13835-.34.19727-.51709.03157-.10564.06347-.21273.0944-.32048a6.37845,6.37845,0,0,0-.82292-5.15543c-.10352-.1587-.2028-.29867-.30469-.42823l-.00879-.01253a6.04281,6.04281,0,0,1-.93229-3.89355l.026-.24756.21908.11865a9.10205,9.10205,0,0,1,4.599,6.43734,8.96425,8.96425,0,0,1-.20215,3.94254q-.05519.19995-.12175.39893c-.07324.23388-.16373.46224-.24251.65446Zm-2.05046-1.19776c.17416.0472.334.09457.484.14388a9.57214,9.57214,0,0,1,1.39681.58561c.057-.1442.11524-.30127.16569-.46077.04362-.13005.082-.25733.11751-.38493a8.6327,8.6327,0,0,0,.19434-3.79752A8.773,8.773,0,0,0,24.45086,19.446a5.7146,5.7146,0,0,0,.89778,3.4165c.10612.13558.20964.28141.31641.44547A6.71241,6.71241,0,0,1,26.53,28.73551c-.03223.11133-.06413.21973-.09766.33106C26.39031,29.193,26.34474,29.31478,26.29721,29.43408Z" fill="#004937"/>
          </g>
        </g>
      </g>
    </g>
    <g>
      <path d="M5.83563,18.35124l-.473.93669-.75846-.383,1.38346-2.73877.75846.383-.47331.93668,2.36426,1.19434-.43717.86523Z" fill="#6b4129"/>
      <path d="M6.86037,14.74512l.58008-.77767,1.05013.78369.74479-.998-1.05013-.78353.5804-.77751L11.571,14.28549l-.58008.7775-1.06608-.79541L9.18,15.26547l1.06608.79557-.58008.77751Z" fill="#6b4129"/>
      <path d="M10.10125,10.72885l2.056-1.92432.5638.60254-1.35481,1.26807.3623.387,1.22722-1.14844.52278.55876-1.22689,1.14844.37924.40543,1.37337-1.28515.5638.60254-2.07422,1.9414Z" fill="#6b4129"/>
      <path d="M15.54884,6.35466l.85352-.46077.67448,1.24951.38574-1.82194,1.012-.54639-.45084,1.95378,2.153,1.10465-1.02506.55339-1.39193-.72575-.12467.51611.43.79639-.85352.46077Z" fill="#6b4129"/>
      <path d="M19.92905,4.21827l.91471-.33919,1.21745,3.28271-.91439.33919Z" fill="#6b4129"/>
      <path d="M22.64259,3.27133l.88574-.18685,1.79134,1.513-.38216-1.81038.93946-.19824.72265,3.425-.8317.17562L23.90854,4.61931,24.305,6.49822l-.93946.19824Z" fill="#6b4129"/>
      <path d="M27.74676,4.13266l-.00033-.00993a1.81762,1.81762,0,0,1,1.84993-1.85645,2.04186,2.04186,0,0,1,1.42969.48259l-.55664.696a1.23527,1.23527,0,0,0-.85124-.31364.91973.91973,0,0,0-.87662.97722l.00032.01009a.9244.9244,0,0,0,.96875.95149.98648.98648,0,0,0,.557-.15576l-.00814-.425-.68978.01334-.014-.71,1.61-.03109L31.196,5.33643a2.3653,2.3653,0,0,1-1.50944.56934A1.7997,1.7997,0,0,1,27.74676,4.13266Z" fill="#6b4129"/>
      <path d="M34.79037,4.48308l.00261-.0096a1.79786,1.79786,0,0,1,2.2347-1.31218,1.71447,1.71447,0,0,1,1.26074,1.07178l-.84635.36882a.9362.9362,0,0,0-.641-.585.86587.86587,0,0,0-1.03646.69189l-.00228.00976a.86582.86582,0,0,0,.58008,1.11117.95536.95536,0,0,0,.87011-.21842l.58041.6831a1.84268,1.84268,0,0,1-3.00261-1.81136Z" fill="#6b4129"/>
      <path d="M40.071,4.18881,42.63966,5.34l-.33757.75277-1.69271-.75863-.21647.48357,1.53288.687-.31283.69808-1.53287-.687-.22722.50652,1.7155.76871-.33724.75277-2.59147-1.1613Z" fill="#6b4129"/>
      <path d="M44.318,6.26254l.74577.51383L45.2002,9.118l1.05013-1.52425.791.54492-1.987,2.88379-.7002-.48243-.14192-2.43066-1.08985,1.582-.791-.54492Z" fill="#6b4129"/>
      <path d="M48.474,10.55665l-.74739-.737.59635-.60531,2.1862,2.155-.59668.6053-.74772-.73714-1.86,1.88705-.69075-.68083Z" fill="#6b4129"/>
      <path d="M51.55957,12.60564l1.66081,2.2736-.66634.48681-1.0944-1.49821-.42806.31267.99121,1.35693-.61784.45133-.99121-1.35693-.44824.32747,1.10905,1.5184-.66634.48681-1.67546-2.29394Z" fill="#6b4129"/>
      <path d="M54.20476,16.50879l.72753,1.48649a1.52986,1.52986,0,0,1,.15951,1.19108,1.08457,1.08457,0,0,1-.5957.63656l-.00912.00439a1.10657,1.10657,0,0,1-1.2819-.17431l-.72917,1.28613-.49218-1.006.64258-1.09912-.00456-.00895-.18229-.37273-.95215.46582-.42611-.87125Zm-.80144,2.18441c.14519.29639.3724.39681.60124.28467l.00911-.0044c.24707-.12077.28484-.362.14193-.654l-.279-.57031-.75456.36914Z" fill="#6b4129"/>
    </g>
    <g>
      <path d="M13.3646,48.30338,14.94923,49.639l-.28711.34082L13.45151,48.9593l-.48958.58106,1.07357.90495-.28711.34049-1.07357-.90495-.73079.86686-.374-.3151Z" fill="#6b4129"/>
      <path d="M14.86818,51.33853l.00423-.00651a1.45495,1.45495,0,0,1,2.46517,1.54558l-.00423.00683a1.455,1.455,0,0,1-2.46517-1.5459Zm2.02734,1.279.00423-.00684a.95323.95323,0,0,0-.27213-1.3418.94038.94038,0,0,0-1.31738.32976l-.00424.00683a.95356.95356,0,0,0,.27214,1.34212A.94035.94035,0,0,0,16.89552,52.61751Z" fill="#6b4129"/>
      <path d="M18.37013,53.64778l.6416-1.46777.44792.196-.63346,1.44922a.68443.68443,0,0,0,.32617,1.01009.6691.6691,0,0,0,.95117-.42969l.6416-1.46777.44792.196-.63184,1.44564a1.111,1.111,0,0,1-1.596.66439A1.09676,1.09676,0,0,1,18.37013,53.64778Z" fill="#6b4129"/>
      <path d="M22.32749,53.53612l.43717.11915.93327,2.24706.50488-1.85611.46387.126-.72982,2.68457-.39486-.10742-.96126-2.31217-.5192,1.90983-.46387-.12631Z" fill="#6b4129"/>
      <path d="M25.88413,54.40624l1.03027.12207a1.38683,1.38683,0,0,1,1.30534,1.54753l-.001.00814a1.3929,1.3929,0,0,1-1.63183,1.20735l-1.03028-.12239Zm.7552,2.443a.90674.90674,0,0,0,1.06934-.818l.001-.00781a.91293.91293,0,0,0-.84766-1.05306l-.5446-.06445-.223,1.87858Z" fill="#6b4129"/>
      <path d="M29.4756,54.72851l2.06445-.03679.00781.4375-1.57519.028.013.724,1.39616-.02507.00781.4375-1.39616.02507.01335.74772,1.59505-.02832.00781.4375-2.08431.03711Z" fill="#6b4129"/>
      <path d="M32.65984,54.60546l1.02507-.16048a1.38683,1.38683,0,0,1,1.6748,1.13737l.001.00781a1.39241,1.39241,0,0,1-1.24512,1.60319l-1.02474.16081Zm1.38672,2.14811a.90671.90671,0,0,0,.80892-1.07617l-.0013-.00781a.91294.91294,0,0,0-1.10059-.78483l-.54167.085.293,1.86881Z" fill="#6b4129"/>
      <path d="M38.38705,53.765l-.42513.29947-.23112-.33951.6237-.47624.32194-.11491.943,2.639-.4567.16341Z" fill="#6b4129"/>
      <path d="M40.9017,54.96288l.07715-.45247A.93036.93036,0,0,0,41.666,54.47c.36882-.17838.43327-.61132.22461-1.08007a.81994.81994,0,0,1-.45931.5485.88209.88209,0,0,1-1.27181-.36589l-.00358-.00716a.96843.96843,0,0,1,.516-1.318.99878.99878,0,0,1,.82292-.07064,1.39328,1.39328,0,0,1,.766.80924l.00358.00717c.389.80566.25781,1.55794-.41536,1.88313A1.32242,1.32242,0,0,1,40.9017,54.96288Zm.70671-2.12109-.00359-.00716a.52578.52578,0,0,0-.74576-.20931.51126.51126,0,0,0-.27312.70573l.00359.00716a.50817.50817,0,0,0,.72819.20019A.51431.51431,0,0,0,41.60841,52.84179Z" fill="#6b4129"/>
      <path d="M44.24415,53.25585a1.38177,1.38177,0,0,1-.86524-.708l-.00423-.00683c-.46484-.71289-.48763-1.49089.17188-1.9209a1.26161,1.26161,0,0,1,.88248-.20475l-.01367.45963a.92371.92371,0,0,0-.63867.127c-.34668.22591-.33561.665-.0778,1.10449a.96486.96486,0,0,1,1.69857-.39518l.00423.00683a.96592.96592,0,0,1-.34929,1.35742A1.0487,1.0487,0,0,1,44.24415,53.25585Zm.75879-1.2539-.00456-.00684a.50652.50652,0,0,0-.74121-.0957.51252.51252,0,0,0-.20606.7181l.00423.00651a.52077.52077,0,0,0,.75684.10514A.506.506,0,0,0,45.00294,52.002Z" fill="#6b4129"/>
      <path d="M46.44792,51.11718l-.00521-.00618a.70308.70308,0,0,1-.05664-.84278.66972.66972,0,0,1-.71061-.21159l-.00488-.00618a.997.997,0,0,1,1.47558-1.24837l.00521.00618a.66885.66885,0,0,1,.09082.73568.71872.71872,0,0,1,.81413.18652l.00521.00586c.321.37956.17513.90918-.28939,1.30241C47.30762,51.43163,46.75586,51.48144,46.44792,51.11718Zm.376-1.9694-.00521-.00619a.51257.51257,0,0,0-.76172.639l.00521.00619a.506.506,0,0,0,.76172-.639Zm.86035.88184-.00521-.00619c-.16439-.19434-.46647-.15755-.71842.05566s-.33854.50521-.17416.69955l.00521.00586c.14649.17318.43653.17773.71615-.0586C47.78711,50.48958,47.83334,50.20572,47.68425,50.02962Z" fill="#6b4129"/>
    </g>
  </g>
</svg>
