<svg id="Artwork" xmlns="http://www.w3.org/2000/svg" xmlns:xlink="http://www.w3.org/1999/xlink" width="230" height="90" viewBox="0 0 230 90">
  <defs>
    <linearGradient id="New_Gradient_Swatch_1" data-name="New Gradient Swatch 1" x1="115.00001" y1="0.33334" x2="115.00001" y2="59.66666" gradientUnits="userSpaceOnUse">
      <stop offset="0" stop-color="#ffc74c"/>
      <stop offset="1" stop-color="#ffdc79"/>
    </linearGradient>
    <linearGradient id="linear-gradient" x1="115.00001" y1="52.16666" x2="115.00001" y2="7.83334" gradientUnits="userSpaceOnUse">
      <stop offset="0" stop-color="#004937"/>
      <stop offset="1" stop-color="#0db14b"/>
    </linearGradient>
    <linearGradient id="New_Gradient_Swatch_1-2" x1="115.09152" y1="22.58634" x2="115.09152" y2="17.03343" xlink:href="#New_Gradient_Swatch_1"/>
    <linearGradient id="New_Gradient_Swatch_1-3" x1="109.02455" y1="41.58884" x2="109.02455" y2="36.0443" xlink:href="#New_Gradient_Swatch_1"/>
    <linearGradient id="New_Gradient_Swatch_1-4" x1="105.21472" y1="29.80321" x2="105.21472" y2="24.25086" xlink:href="#New_Gradient_Swatch_1"/>
    <linearGradient id="New_Gradient_Swatch_1-5" x1="124.97012" y1="30.08355" x2="124.97012" y2="24.53263" xlink:href="#New_Gradient_Swatch_1"/>
    <linearGradient id="New_Gradient_Swatch_1-6" x1="121.15724" y1="41.69409" x2="121.15724" y2="36.15121" xlink:href="#New_Gradient_Swatch_1"/>
    <linearGradient id="New_Gradient_Swatch_1-7" x1="109.82063" y1="23.85164" x2="109.82063" y2="23.47026" xlink:href="#New_Gradient_Swatch_1"/>
    <linearGradient id="New_Gradient_Swatch_1-8" x1="109.96424" y1="27.66318" x2="109.96424" y2="11.99997" xlink:href="#New_Gradient_Swatch_1"/>
    <linearGradient id="New_Gradient_Swatch_1-9" x1="120.09002" y1="18.27842" x2="120.09002" y2="12.00001" xlink:href="#New_Gradient_Swatch_1"/>
    <linearGradient id="New_Gradient_Swatch_1-10" x1="120.35377" y1="23.88699" x2="120.35377" y2="23.45492" xlink:href="#New_Gradient_Swatch_1"/>
    <linearGradient id="New_Gradient_Swatch_1-11" x1="119.11796" y1="28.69939" x2="119.11796" y2="21.40954" xlink:href="#New_Gradient_Swatch_1"/>
    <linearGradient id="New_Gradient_Swatch_1-12" x1="119.69288" y1="23.53594" x2="119.69288" y2="23.15485" xlink:href="#New_Gradient_Swatch_1"/>
    <linearGradient id="New_Gradient_Swatch_1-13" x1="123.88339" y1="25.61028" x2="123.88339" y2="18.32186" xlink:href="#New_Gradient_Swatch_1"/>
    <linearGradient id="New_Gradient_Swatch_1-14" x1="130.91418" y1="34.79321" x2="130.91418" y2="26.496" xlink:href="#New_Gradient_Swatch_1"/>
    <linearGradient id="New_Gradient_Swatch_1-15" x1="122.8624" y1="33.48864" x2="122.8624" y2="33.31268" xlink:href="#New_Gradient_Swatch_1"/>
    <linearGradient id="New_Gradient_Swatch_1-16" x1="121.18366" y1="36.09884" x2="121.18366" y2="28.63758" xlink:href="#New_Gradient_Swatch_1"/>
    <linearGradient id="New_Gradient_Swatch_1-17" x1="123.24269" y1="33.00087" x2="123.24269" y2="32.85553" xlink:href="#New_Gradient_Swatch_1"/>
    <linearGradient id="New_Gradient_Swatch_1-18" x1="125.05264" y1="44.04458" x2="125.05264" y2="30.24828" xlink:href="#New_Gradient_Swatch_1"/>
    <linearGradient id="New_Gradient_Swatch_1-19" x1="119.78981" y1="48.00001" x2="119.78981" y2="44.08663" xlink:href="#New_Gradient_Swatch_1"/>
    <linearGradient id="New_Gradient_Swatch_1-20" x1="114.69343" y1="39.34664" x2="114.69343" y2="38.81212" xlink:href="#New_Gradient_Swatch_1"/>
    <linearGradient id="New_Gradient_Swatch_1-21" x1="115.10659" y1="42.94575" x2="115.10659" y2="31.54651" xlink:href="#New_Gradient_Swatch_1"/>
    <linearGradient id="New_Gradient_Swatch_1-22" x1="115.51537" y1="39.03704" x2="115.51537" y2="38.56604" xlink:href="#New_Gradient_Swatch_1"/>
    <linearGradient id="New_Gradient_Swatch_1-23" x1="111.97706" y1="47.69275" x2="111.97706" y2="34.91625" xlink:href="#New_Gradient_Swatch_1"/>
    <linearGradient id="New_Gradient_Swatch_1-24" x1="102.08581" y1="43.72174" x2="102.08581" y2="35.49364" xlink:href="#New_Gradient_Swatch_1"/>
    <linearGradient id="New_Gradient_Swatch_1-25" x1="106.992" y1="32.69241" x2="106.992" y2="32.53203" xlink:href="#New_Gradient_Swatch_1"/>
    <linearGradient id="New_Gradient_Swatch_1-26" x1="108.79866" y1="33.89117" x2="108.79866" y2="29.94131" xlink:href="#New_Gradient_Swatch_1"/>
    <linearGradient id="New_Gradient_Swatch_1-27" x1="107.07941" y1="33.26759" x2="107.07941" y2="33.12339" xlink:href="#New_Gradient_Swatch_1"/>
    <linearGradient id="New_Gradient_Swatch_1-28" x1="103.86163" y1="35.86859" x2="103.86163" y2="26.18938" xlink:href="#New_Gradient_Swatch_1"/>
    <linearGradient id="New_Gradient_Swatch_1-29" x1="102.12028" y1="23.62728" x2="102.12028" y2="18.09195" xlink:href="#New_Gradient_Swatch_1"/>
    <linearGradient id="New_Gradient_Swatch_1-30" x1="110.36909" y1="23.39899" x2="110.36909" y2="22.95912" xlink:href="#New_Gradient_Swatch_1"/>
    <linearGradient id="New_Gradient_Swatch_1-31" x1="111.61053" y1="30.39702" x2="111.61053" y2="19.17351" xlink:href="#New_Gradient_Swatch_1"/>
  </defs>
  <title>the-king-center-logo-stacked</title>
  <g>
    <g>
      <path d="M12.5992,89.597H4.14056v-.55737c2.64563-.10725,2.71748-.78054,2.71748-2.92154V71.622H5.30161c-3.18377,0-3.96549.55618-4.60576,3.70622H0l.17625-4.924H16.5078l.1728,4.924h-.69466c-.60084-3.186-1.42318-3.70622-4.60113-3.70622H9.81674v14.814c0,1.97461.34454,2.518,2.78246,2.60372Z"/>
      <path d="M17.67456,89.12327c2.10514-.10618,2.20952-.65939,2.20952-2.53946V75.7319c0-1.85632-.35724-2.10169-2.20952-2.25122v-.48017h6.959v.48017c-1.89634.14953-2.1967.47376-2.1967,2.25122v4.866H30.0291v-4.866c0-1.85632-.3538-2.10169-2.21535-2.25122v-.48017H34.782v.48017c-1.90786.14953-2.20834.47376-2.20834,2.25122V86.8616c0,1.66024.25523,2.134,2.20834,2.26167V89.597H27.81375v-.47376c2.11558-.10618,2.21535-.65939,2.21535-2.53946v-4.887H22.43685V86.8616c0,1.66024.25166,2.134,2.1967,2.26167V89.597h-6.959Z"/>
      <path d="M49.1013,89.597H35.58v-.47376c1.61332-.10618,2.18161-.33635,2.18161-2.26167V75.7319c0-1.98281-.59846-2.13233-2.18161-2.25122v-.48017H48.87862l.07992,3.58734h-.63089c-.37922-2.23852-1.02875-2.63341-3.80313-2.63341H41.14716c-.52542,0-.82815,0-.82815.85417V80.3677h3.853c2.22331,0,2.47735-.60144,2.765-2.38175h.56711v5.82181H46.937c-.30856-2.00823-.68314-2.355-2.765-2.38874l-3.853-.04467v6.21089c0,1.02876,0,1.05144,3.73472,1.05144,3.12331,0,4.383-.75038,5.47322-3.27653h.71557Z"/>
      <path d="M69.37942,70.40416h7.587V70.958c-1.74444.145-2.34991.23029-4.40741,2.26107l-5.50161,5.45007,6.7496,7.24022c1.88352,2.08827,2.89375,3.19589,4.54305,3.13033V89.597H69.522v-.55737c1.531-.05333,2.02509-.08575,2.02509-.71783,0-.90013-2.78127-3.88947-3.76477-4.86953l-3.07011-3.04458-.75273.60892v5.4193c0,2.02794.3468,2.49647,2.605,2.60372V89.597H58.40043v-.55737c2.264-.10725,2.60739-.55144,2.60739-2.92154V73.56762c0-2.26285-.64027-2.46464-2.60739-2.60965v-.55381h8.22789V70.958c-2.26167.145-2.66879.46865-2.66879,2.60965v5.93712c6.54484-5.8832,7.38582-6.66493,7.38582-7.64379,0-.787-.5487-.84954-1.96593-.903Z"/>
      <path d="M78.77454,89.12327c2.1271-.05808,2.42176-.48659,2.42176-2.26167V75.7319c0-1.85632-.341-2.155-2.42176-2.25122v-.48017h7.4311v.48017c-1.82094.07126-2.4485.24585-2.4485,2.25122V86.8616c0,1.96012.60321,2.20359,2.4485,2.26167V89.597h-7.4311Z"/>
      <path d="M104.36381,73.48068c-1.57853.17386-2.37651.26841-2.37651,3.20337V89.873h-.42793L90.53988,76.13784h-.04525v9.77149c0,2.57889.523,3.13033,2.34979,3.21394V89.597H86.96407v-.47376c1.90216-.12769,2.42984-.50927,2.42984-3.21394V74.8573c-1.02876-1.25773-1.42769-1.37662-2.42984-1.37662v-.48017h4.27867l9.59061,12.0581h.051V76.68405c0-2.88105-.70392-3.08448-2.4043-3.20337v-.48017h5.88381Z"/>
      <path d="M122.5,81.17555c-1.10986.09216-1.75251.15011-1.75251,1.92757v5.03653c0,.34857-3.34256,1.80477-6.09366,1.80477a9.62409,9.62409,0,0,1-7.03667-2.6821c-1.321-1.45619-2.07377-2.9321-2.07377-6.21551a8.37794,8.37794,0,0,1,8.556-8.39607c2.533,0,3.68472.82994,4.49316.82994.19953,0,1.02875-.12648,1.16914-.82994h.55665l.20535,5.28831h-.58457c-.67625-1.80121-1.97757-4.28451-5.48022-4.28451-2.3846,0-6.07051,1.57509-6.07051,7.924,0,4.52629,2.61072,7.35971,6.49972,7.35971,1.69682,0,3.41679-.5677,3.41679-1.4765V83.40348c0-2.07782-.48825-2.101-2.1967-2.22793v-.45119H122.5Z"/>
    </g>
    <path d="M147.48654,76.52466c-.71912-3.044-2.80336-5.36194-6.371-5.36194a6.42142,6.42142,0,0,0-4.34008,1.76c-1.12614,1.11177-2.40086,2.96049-2.40086,7.137,0,6.14532,3.45052,8.66387,7.08892,8.66387a9.03617,9.03617,0,0,0,6.54142-2.9239l.52541.52079A9.6395,9.6395,0,0,1,140.68646,90c-4.66134,0-9.67185-2.78293-9.67185-9.99656A9.60058,9.60058,0,0,1,140.85807,70c2.57592,0,4.463.958,5.09508.958A1.294,1.294,0,0,0,147.287,70h.60547l.25738,6.52466Z"/>
    <path d="M163.34481,89.597H149.81542v-.47376c1.60869-.10618,2.18162-.33635,2.18162-2.26167V75.7319c0-1.98281-.60547-2.13233-2.18162-2.25122v-.48017h13.29969l.06959,3.58734h-.62162c-.37-2.23852-1.02875-2.63341-3.8042-2.63341h-3.38555c-.52079,0-.82008,0-.82008.85417V80.3677h3.85182c2.22925,0,2.47628-.60144,2.76038-2.38175h.56722v5.82181h-.56722c-.30037-2.00823-.68078-2.355-2.76038-2.38874l-3.85182-.04467v6.21089c0,1.02876,0,1.05144,3.7289,1.05144,3.12344,0,4.38295-.75038,5.4813-3.27653h.70749Z"/>
    <path d="M182.52139,73.48068c-1.57507.17386-2.38352.26841-2.38352,3.20337V89.873h-.42328l-11.01141-13.7352h-.06377v9.77149c0,2.57889.5405,3.13033,2.358,3.21394V89.597h-5.8838v-.47376c1.89741-.12769,2.43209-.50927,2.43209-3.21394V74.8573c-1.01711-1.25773-1.42424-1.37662-2.43209-1.37662v-.48017h4.28663l9.58479,12.0581h.06033V76.68405c0-2.88105-.70748-3.08448-2.40086-3.20337v-.48017h5.87691Z"/>
    <path d="M194.2194,89.597h-7.31506v-.47376c2.28376-.10618,2.358-.68374,2.358-2.53946V74.05064h-1.35584c-2.75347,0-3.42854.4797-3.98639,3.2093h-.60072l.16117-4.25943H197.605l.13338,4.25943h-.595c-.52424-2.75288-1.21546-3.2093-3.98058-3.2093h-1.35v12.811c0,1.70667.29929,2.17806,2.40668,2.26167Z"/>
    <path d="M212.02851,89.597H198.49914v-.47376c1.60287-.10618,2.19207-.33635,2.19207-2.26167V75.7319c0-1.98281-.60547-2.13233-2.19207-2.25122v-.48017h13.31013l.05808,3.58734h-.61592c-.38041-2.23852-1.02876-2.63341-3.81464-2.63341h-3.38557c-.52079,0-.82113,0-.82113.85417V80.3677h3.85871c2.23386,0,2.48672-.60144,2.75347-2.38175h.57874v5.82181h-.57874c-.30036-2.00823-.6797-2.355-2.75347-2.38874l-3.85871-.04467v6.21089c0,1.02876,0,1.05144,3.73459,1.05144,3.12925,0,4.38414-.75038,5.48712-3.27653h.69716Z"/>
    <path d="M230,89.597h-4.02453l-5.958-7.717-1.415.047v4.9345c0,1.68292.25286,2.15549,2.25585,2.26167V89.597h-6.93807v-.47376c2.04122-.12769,2.13754-.65939,2.13754-2.53946V75.7319c0-1.85632-.38041-2.07736-2.13754-2.25122v-.48017h6.91135c2.23387,0,6.3768.52483,6.3768,4.3858,0,3.3618-3.26382,3.96429-4.54305,4.21834l5.15886,6.33666A2.80111,2.80111,0,0,0,230,89.12327Zm-11.39754-8.60367c2.10739-.02542,5.8629-.07423,5.8629-3.65574,0-3.33567-3.2846-3.40693-4.2972-3.40693-1.32911,0-1.5657.174-1.5657.9012Z"/>
  </g>
  <g>
    <g>
      <circle cx="115.00001" cy="30" r="29.66666" fill="url(#New_Gradient_Swatch_1)"/>
      <path d="M115,.66667A29.33333,29.33333,0,1,1,85.66667,30,29.36655,29.36655,0,0,1,115,.66667M115,0a30,30,0,1,0,30,30A30,30,0,0,0,115,0Z" fill="#6b4129"/>
    </g>
    <g>
      <circle cx="115.00001" cy="30" r="22.16666" fill="url(#linear-gradient)"/>
      <path d="M115,8.16664A21.83336,21.83336,0,1,1,93.16664,30,21.85809,21.85809,0,0,1,115,8.16664M115,7.5A22.5,22.5,0,1,0,137.5,30,22.52558,22.52558,0,0,0,115,7.5Z" fill="#6b4129"/>
    </g>
    <g>
      <g>
        <path d="M117.8635,19.8102a2.772,2.772,0,1,1-2.77169-2.77677A2.77339,2.77339,0,0,1,117.8635,19.8102Z" fill="url(#New_Gradient_Swatch_1-2)"/>
        <path d="M115.09181,22.75293a2.94312,2.94312,0,1,1,2.93847-2.94271A2.94413,2.94413,0,0,1,115.09181,22.75293Zm0-5.55289a2.60978,2.60978,0,1,0,2.60514,2.61018A2.61085,2.61085,0,0,0,115.09181,17.2Z" fill="#004937"/>
      </g>
      <g>
        <path d="M111.79614,38.81822a2.77159,2.77159,0,1,1-2.76976-2.77392A2.77126,2.77126,0,0,1,111.79614,38.81822Z" fill="url(#New_Gradient_Swatch_1-3)"/>
        <path d="M109.02638,41.75553a2.939,2.939,0,1,1,2.93652-2.93717A2.94208,2.94208,0,0,1,109.02638,41.75553Zm0-5.54459a2.60563,2.60563,0,1,0,2.60319,2.60742A2.60991,2.60991,0,0,0,109.02638,36.21094Z" fill="#004937"/>
      </g>
      <g>
        <path d="M107.98852,27.02785a2.77381,2.77381,0,1,1-2.77534-2.777A2.77539,2.77539,0,0,1,107.98852,27.02785Z" fill="url(#New_Gradient_Swatch_1-4)"/>
        <path d="M105.21323,29.96989a2.94287,2.94287,0,1,1,2.94206-2.94206A2.94386,2.94386,0,0,1,105.21323,29.96989Zm0-5.55241a2.60954,2.60954,0,1,0,2.60872,2.61035A2.61106,2.61106,0,0,0,105.21323,24.41748Z" fill="#004937"/>
      </g>
      <g>
        <path d="M127.74379,27.30821a2.77367,2.77367,0,1,1-2.77392-2.77558A2.77329,2.77329,0,0,1,127.74379,27.30821Z" fill="url(#New_Gradient_Swatch_1-5)"/>
        <path d="M124.96973,30.25016a2.94214,2.94214,0,1,1,2.94076-2.94189A2.94406,2.94406,0,0,1,124.96973,30.25016Zm0-5.55094a2.60881,2.60881,0,1,0,2.60742,2.60905A2.61071,2.61071,0,0,0,124.96973,24.69922Z" fill="#004937"/>
      </g>
      <g>
        <path d="M123.92979,38.92347a2.77256,2.77256,0,1,1-2.77176-2.77226A2.7692,2.7692,0,0,1,123.92979,38.92347Z" fill="url(#New_Gradient_Swatch_1-6)"/>
        <path d="M121.15789,41.86067a2.938,2.938,0,1,1,2.93847-2.93717A2.9418,2.9418,0,0,1,121.15789,41.86067Zm0-5.54264A2.60466,2.60466,0,1,0,123.763,38.9235,2.609,2.609,0,0,0,121.15789,36.318Z" fill="#004937"/>
      </g>
      <g>
        <g>
          <path d="M109.67949,23.47026c.08769.12943.18376.25748.28228.38138C109.87465,23.72221,109.77807,23.59444,109.67949,23.47026Z" fill="url(#New_Gradient_Swatch_1-7)"/>
          <path d="M109.83139,23.95541c-.10123-.12712-.19954-.25863-.29-.39161l.26856-.19726c.10123.1276.20052.25895.29036.39193Z" fill="#004937"/>
        </g>
        <g>
          <path d="M113.62354,12.84022A1.86364,1.86364,0,0,0,111.9125,12a4.17976,4.17976,0,0,0-2.6108,1.07269c-.05427.04539-.105.09071-.15867.13581a.36269.36269,0,0,1-.04288.03649c-.06015.05822-.11636.11192-.16061.15617a8.86386,8.86386,0,0,0-2.73,6.409,8.76138,8.76138,0,0,0,.14419,1.58293,8.90654,8.90654,0,0,0,4.57487,6.27005c.01563-.18011.02617-.36022.02617-.5429a5.85358,5.85358,0,0,0-.993-3.26864c-.09852-.1239-.19459-.252-.28228-.38138a6.54007,6.54007,0,0,1,3.59107-9.939,1.38534,1.38534,0,0,0,.29061-.07714.21354.21354,0,0,0,.12805-.11637A.5775.5775,0,0,0,113.62354,12.84022Z" fill="url(#New_Gradient_Swatch_1-8)"/>
          <path d="M111.07293,27.929l-.22266-.11866a9.13025,9.13025,0,0,1-4.66048-6.38785,9.0325,9.0325,0,0,1,2.63412-8.14144l.37109-.33626a4.33329,4.33329,0,0,1,2.69694-1.11149h.02148a2.02653,2.02653,0,0,1,1.85547.92529.74438.74438,0,0,1,.0791.62972.36649.36649,0,0,1-.22135.21908,1.51533,1.51533,0,0,1-.32552.08772,6.37439,6.37439,0,0,0-3.48373,9.68164c.08529.12565.179.25033.27507.37093a6.02983,6.02983,0,0,1,1.029,3.37256c0,.17041-.00846.34766-.02669.55729Zm-1.86686-14.55452-.14877.14453a8.69764,8.69764,0,0,0-2.53938,7.84391,8.796,8.796,0,0,0,4.263,6.02815c.00488-.09505.00716-.18392.00716-.27083a5.69084,5.69084,0,0,0-.96452-3.17594c-.09342-.11605-.19173-.24756-.28223-.38054A6.70708,6.70708,0,0,1,113.224,13.37126a1.40266,1.40266,0,0,0,.27018-.06966.1342.1342,0,0,0,.04069-.02409.41269.41269,0,0,0-.056-.35465l-.0013-.00212a1.694,1.694,0,0,0-1.56575-.75407,4.00876,4.00876,0,0,0-2.50293,1.03386l-.15886.13558A.4698.4698,0,0,1,109.20607,13.37452Z" fill="#004937"/>
        </g>
      </g>
      <g>
        <g>
          <path d="M121.30616,13.46a6.0067,6.0067,0,0,0-.49279-.44489A4.1347,4.1347,0,0,0,118.27664,12a1.85823,1.85823,0,0,0-1.711.84018.56326.56326,0,0,0-.06739.49752.22288.22288,0,0,0,.13028.11973,1.66941,1.66941,0,0,0,.27949.07378,6.53823,6.53823,0,0,1,4.53233,4.74717,9.6177,9.6177,0,0,1,2.27225-.60385A8.8745,8.8745,0,0,0,121.30616,13.46Z" fill="url(#New_Gradient_Swatch_1-9)"/>
          <path d="M121.32325,18.50505l-.04492-.18783a6.36419,6.36419,0,0,0-4.41667-4.62581l-.03353-.00683a1.46887,1.46887,0,0,1-.26432-.07357.39054.39054,0,0,1-.222-.21647.72908.72908,0,0,1,.08007-.63835,2.008,2.008,0,0,1,1.85417-.92285h.015a4.28357,4.28357,0,0,1,2.62761,1.05257,6.0428,6.0428,0,0,1,.50456.45573,9.02883,9.02883,0,0,1,2.45117,4.29329l.04427.17969-.1836.02523a9.43822,9.43822,0,0,0-2.23242.59326Zm-4.66666-5.22152c.00162,0,.01236.00879.04231.02295a1.28458,1.28458,0,0,0,.19857.05209l.0459.00992a6.70287,6.70287,0,0,1,4.612,4.6862,9.77969,9.77969,0,0,1,1.94954-.51807,8.69846,8.69846,0,0,0-2.31543-3.95768l-.00163-.0013a5.73378,5.73378,0,0,0-.47884-.43245,3.95917,3.95917,0,0,0-2.418-.97852h-.01367a1.70063,1.70063,0,0,0-1.5651.75277.40222.40222,0,0,0-.056.36474Z" fill="#004937"/>
        </g>
        <g>
          <path d="M120.19367,23.887c.11249-.1414.2194-.28423.3202-.43207C120.40246,23.59244,120.29505,23.73778,120.19367,23.887Z" fill="url(#New_Gradient_Swatch_1-10)"/>
          <path d="M120.32423,23.99089l-.26856-.19743c.10547-.15544.21615-.30469.3291-.44352l.26693.19889C120.54851,23.7,120.43914,23.84619,120.32423,23.99089Z" fill="#004937"/>
        </g>
        <g>
          <path d="M120.51387,23.45492c-.1008.14784-.20771.29067-.3202.43207a6.519,6.519,0,0,1-4.75943,2.44853c-.11471.00553-.22943.012-.34243.012-.191,0-.37807-.012-.56571-.02731.01448.22521.029.4555.029.68573a9.75943,9.75943,0,0,1-.14812,1.66674c.22384.01533.451.02674.68487.02674.13638,0,.27-.00394.40646-.01141a8.7804,8.7804,0,0,0,3.73606-1.01727,8.88717,8.88717,0,0,0,4.59465-6.26117A5.84471,5.84471,0,0,0,120.51387,23.45492Z" fill="url(#New_Gradient_Swatch_1-11)"/>
          <path d="M115.09181,28.86605c-.20736,0-.4222-.0083-.69629-.027l-.18457-.0127.0319-.18212a9.65283,9.65283,0,0,0,.14551-1.63835c0-.21712-.013-.43408-.02865-.675l-.01237-.19254.19238.01562a6.73651,6.73651,0,0,0,.84147.01725l.04493-.00227a6.36336,6.36336,0,0,0,4.63737-2.38591c.11-.138.21419-.27767.31282-.422l.00814-.0109a6.03412,6.03412,0,0,1,3.4095-2.10352l.24382-.0524-.0446.24528a9.11511,9.11511,0,0,1-4.681,6.37874,8.90158,8.90158,0,0,1-3.80631,1.03629C115.36817,28.862,115.23113,28.86605,115.09181,28.86605Zm-.49056-.34815a7.73417,7.73417,0,0,0,.888.00375,8.57806,8.57806,0,0,0,3.667-.99805,8.78456,8.78456,0,0,0,4.459-5.8916,5.70489,5.70489,0,0,0-2.96745,1.92253c-.10221.14908-.21.29345-.32356.43636A6.69706,6.69706,0,0,1,115.443,26.502l-.04524.00212a6.36047,6.36047,0,0,1-.69336-.00358c.01009.1735.01725.33821.01725.50537A9.84274,9.84274,0,0,1,114.60125,28.5179Z" fill="#004937"/>
        </g>
      </g>
      <g>
        <g>
          <g>
            <path d="M119.83179,23.15485c-.09858.1219-.1882.25167-.27783.38109C119.65026,23.41456,119.7449,23.28513,119.83179,23.15485Z" fill="url(#New_Gradient_Swatch_1-12)"/>
            <path d="M119.68458,23.63965l-.26758-.19857c.096-.13867.1862-.26871.28516-.39111l.26823.19726C119.88087,23.38135,119.78386,23.51465,119.68458,23.63965Z" fill="#004937"/>
          </g>
          <g>
            <path d="M131.14859,23.70881a1.8734,1.8734,0,0,0,.28171-1.88613,4.21457,4.21457,0,0,0-1.80734-2.16727c-.06237-.03706-.12024-.07407-.17874-.11164-.01614-.007-.0317-.01785-.04732-.02617-.074-.0426-.1414-.07966-.19819-.10805a8.84632,8.84632,0,0,0-6.92654-.67261,9.07254,9.07254,0,0,0-1.4649.61583,8.88659,8.88659,0,0,0-4.59078,6.25751c.17487-.03843.34917-.08461.52341-.14a5.79711,5.79711,0,0,0,2.81406-1.93431c.08963-.12942.17925-.25919.27783-.38109a6.52635,6.52635,0,0,1,10.54731.4234,1.77732,1.77732,0,0,0,.16147.25782.21243.21243,0,0,0,.15143.08381A.57189.57189,0,0,0,131.14859,23.70881Z" fill="url(#New_Gradient_Swatch_1-13)"/>
            <path d="M116.00717,25.82715l.04525-.24691a9.11115,9.11115,0,0,1,4.67708-6.375,9.31218,9.31218,0,0,1,1.49219-.62711,8.96434,8.96434,0,0,1,7.05664.68506c.05436.027.12467.06559.20182.11l-.04264.16732.07389-.14925c.07975.049.13607.0848.19661.12093a4.36074,4.36074,0,0,1,1.88151,2.26107,2.04151,2.04151,0,0,1-.319,2.04915.74978.74978,0,0,1-.58138.26416.36693.36693,0,0,1-.27213-.139,1.51545,1.51545,0,0,1-.16048-.24723l-.02214-.03988a6.36072,6.36072,0,0,0-10.27181-.4025c-.09505.11751-.18033.24105-.2653.36409a5.97491,5.97491,0,0,1-2.90722,2.00716c-.17123.05453-.35221.10287-.53776.14388Zm8.95215-7.3418a8.73758,8.73758,0,0,0-2.63705.41049,8.98519,8.98519,0,0,0-1.43782.60449,8.77693,8.77693,0,0,0-4.45345,5.88639q.13233-.03516.25846-.07536a5.63145,5.63145,0,0,0,2.734-1.8789c.08952-.13005.17969-.26009.27865-.38249a6.65376,6.65376,0,0,1,3.22851-2.22819,6.72105,6.72105,0,0,1,7.58724,2.66406l.02962.0516a1.317,1.317,0,0,0,.12012.19075.09927.09927,0,0,0,.03125.026.42566.42566,0,0,0,.32715-.15869l.00065-.00065a1.70865,1.70865,0,0,0,.24446-1.72265,4.03138,4.03138,0,0,0-1.738-2.0765c-.05957-.03516-.11914-.07324-.17936-.112.00813.005-.00782-.00277-.02442-.0127-.08659-.05-.151-.08528-.2054-.11246A8.66819,8.66819,0,0,0,124.95932,18.48535Z" fill="#004937"/>
          </g>
        </g>
        <g>
          <g>
            <path d="M132.87131,31.228a4.99717,4.99717,0,0,0,.27892-.60465,4.14111,4.14111,0,0,0,.1999-2.72883,1.88048,1.88048,0,0,0-1.31569-1.38114.58522.58522,0,0,0-.49387.09128.20465.20465,0,0,0-.07241.16039,1.2689,1.2689,0,0,0,.01174.287,6.55047,6.55047,0,0,1-3.15427,5.75778,9.6669,9.6669,0,0,1,1.2617,1.98334A8.82225,8.82225,0,0,0,132.87131,31.228Z" fill="url(#New_Gradient_Swatch_1-14)"/>
            <path d="M129.51661,35.03157l-.07976-.16634a9.51666,9.51666,0,0,0-1.2399-1.94922l-.123-.14908.16569-.09994a6.37724,6.37724,0,0,0,3.07357-5.61084,1.30844,1.30844,0,0,1-.01042-.31119.34867.34867,0,0,1,.14258-.27686.74641.74641,0,0,1,.62109-.11833,2.04587,2.04587,0,0,1,1.44271,1.49382,4.291,4.291,0,0,1-.2041,2.841,5.15392,5.15392,0,0,1-.28614.62077,8.97519,8.97519,0,0,1-3.345,3.6302Zm-.943-2.18a9.85411,9.85411,0,0,1,1.082,1.70247,8.64168,8.64168,0,0,0,3.06706-3.401l.0026-.00553a4.81459,4.81459,0,0,0,.26921-.584,3.96506,3.96506,0,0,0,.19727-2.61784,1.71737,1.71737,0,0,0-1.19369-1.2697.41348.41348,0,0,0-.36035.06429l.00065-.00032a.3153.3153,0,0,1-.00391.03613,1.187,1.187,0,0,0,.01075.25635A6.71622,6.71622,0,0,1,128.57357,32.85156Z" fill="#004937"/>
          </g>
          <g>
            <path d="M122.60959,33.31268c.16369.0646.33411.12641.50562.176C122.9498,33.42181,122.77944,33.3628,122.60959,33.31268Z" fill="url(#New_Gradient_Swatch_1-15)"/>
            <path d="M123.069,33.64876c-.1556-.04492-.321-.10254-.52051-.181l.1084-.31478c.17871.05274.35384.11361.52083.181Z" fill="#004937"/>
          </g>
          <g>
            <path d="M123.11521,33.48864c-.17151-.04955-.34193-.11136-.50562-.176a6.51239,6.51239,0,0,1-3.77112-3.80259c-.04231-.10583-.08073-.21466-.11415-.32436-.0557-.18234-.10359-.36524-.1459-.54815-.20936.08547-.42425.16506-.64644.23468a9.74144,9.74144,0,0,1-1.62859.36244c.04955.22.10969.44239.18148.66093.03791.13142.08524.25754.12977.3856a8.87063,8.87063,0,0,0,9.4493,5.74637A5.86,5.86,0,0,0,123.11521,33.48864Z" fill="url(#New_Gradient_Swatch_1-16)"/>
            <path d="M124.92644,36.26692a9.042,9.042,0,0,1-8.46842-5.928l-.03158-.09066c-.03581-.10108-.07161-.202-.10189-.30615-.069-.21029-.13118-.43783-.18392-.67074l-.03971-.17708.17969-.02458a9.63137,9.63137,0,0,0,1.60091-.35628c.20312-.06364.41048-.13884.63379-.23014l.18131-.07406.04427.19075c.04135.1792.08822.35857.14291.53711.0319.10515.069.20964.10937.3112a6.362,6.362,0,0,0,3.67643,3.709c.19043.07519.34636.12923.49187.17122l.01464.00488a6.04867,6.04867,0,0,1,3.03223,2.61133l.124.2168-.24739.03157A9.14854,9.14854,0,0,1,124.92644,36.26692Zm-8.41894-6.89371c.04069.16162.08593.31917.13574.47054.02995.10335.06348.19824.09733.29329l.03158.08936a8.70422,8.70422,0,0,0,9.01464,5.66487,5.71893,5.71893,0,0,0-2.72526-2.24479c-.15364-.04459-.31673-.10123-.513-.17871a6.69242,6.69242,0,0,1-3.86621-3.89941c-.04264-.10645-.08236-.21973-.11751-.334q-.05664-.18529-.10319-.37109c-.16537.06364-.3239.11914-.47982.168A9.80719,9.80719,0,0,1,116.5075,29.37321Z" fill="#004937"/>
          </g>
        </g>
      </g>
      <g>
        <g>
          <g>
            <path d="M123.46876,33.00087c-.14978-.05565-.29956-.10354-.45213-.14534C123.16755,32.9073,123.31619,32.95633,123.46876,33.00087Z" fill="url(#New_Gradient_Swatch_1-17)"/>
            <path d="M123.42188,33.16081c-.15495-.04525-.30566-.09506-.45931-.14779l.09831-.31836c.15723.04329.31152.09277.46582.15007Z" fill="#004937"/>
          </g>
          <g>
            <path d="M126.48209,43.92123a1.87983,1.87983,0,0,0,1.8814-.31849,4.2,4.2,0,0,0,1.48776-2.40144c.01785-.0679.03564-.13473.049-.2032a.45761.45761,0,0,0,.0134-.05348c.01779-.08182.02948-.15868.04065-.22271a8.83726,8.83726,0,0,0-1.53286-6.78508A8.86892,8.86892,0,0,0,120.006,30.3302c.09191.15423.18764.30595.29791.45573a5.8422,5.8422,0,0,0,2.71269,2.0696c.15257.0418.30235.08969.45213.14534a6.46164,6.46164,0,0,1,3.04509,2.309,6.5286,6.5286,0,0,1-.14813,7.84187,1.29955,1.29955,0,0,0-.19043.235.22139.22139,0,0,0-.03786.167A.578.578,0,0,0,126.48209,43.92123Z" fill="url(#New_Gradient_Swatch_1-18)"/>
            <path d="M127.10352,44.209a1.69648,1.69648,0,0,1-.69075-.13639h-.00065a.74441.74441,0,0,1-.4336-.46875.375.375,0,0,1,.05209-.30013,1.44077,1.44077,0,0,1,.21386-.26661,6.38861,6.38861,0,0,0,.13444-7.62955,6.285,6.285,0,0,0-2.96712-2.25c-.14616-.05436-.29134-.10059-.43945-.14128a6.00905,6.00905,0,0,1-2.80339-2.13313,5.53371,5.53371,0,0,1-.306-.46778l-.1289-.21614.24967-.03418a9.00709,9.00709,0,0,1,7.51367,2.45019,9.11244,9.11244,0,0,1,1.05957,1.22429,8.9565,8.9565,0,0,1,1.56152,6.91243l-.00944.05371c-.00911.05339-.0192.1123-.03222.17415a.2915.2915,0,0,1-.0114.04623c-.01464.07259-.03255.14-.05045.20833a4.354,4.354,0,0,1-1.55436,2.50391A2.32577,2.32577,0,0,1,127.10352,44.209Zm-.55208-.43913a1.72771,1.72771,0,0,0,1.71582-.30306,4.02031,4.02031,0,0,0,1.42252-2.30631c.01888-.07194.03483-.13184.04655-.19336l.01009-.03841c.01661-.07552.02572-.12989.03418-.17871l.00977-.0573a8.62589,8.62589,0,0,0-1.50391-6.6582,8.77706,8.77706,0,0,0-1.0205-1.17936,8.66836,8.66836,0,0,0-6.98112-2.39095c.05241.08138.10254.15365.15332.22266a5.67076,5.67076,0,0,0,2.63639,2.01237c.14356.03873.29785.08821.45215.14551a6.61591,6.61591,0,0,1,3.12272,2.36816,6.72664,6.72664,0,0,1-.15234,8.04134,1.31311,1.31311,0,0,0-.17644.21386.16706.16706,0,0,0-.02181.04916A.41357.41357,0,0,0,126.55144,43.76985Z" fill="#004937"/>
          </g>
        </g>
        <g>
          <g>
            <path d="M119.89189,47.91734a5.85969,5.85969,0,0,0,.65813.07349,4.1233,4.1233,0,0,0,2.65316-.6648,1.87463,1.87463,0,0,0,.8964-1.68094.57931.57931,0,0,0-.2394-.44381.21758.21758,0,0,0-.1743-.02166,1.69064,1.69064,0,0,0-.27117.10519,6.54777,6.54777,0,0,1-6.45376-1.19818,9.44228,9.44228,0,0,1-1.48719,1.82347A8.90751,8.90751,0,0,0,119.89189,47.91734Z" fill="url(#New_Gradient_Swatch_1-19)"/>
            <path d="M120.87175,48.16666c-.11556,0-.22656-.00358-.33105-.00944a6.00467,6.00467,0,0,1-.67513-.0752,9.06934,9.06934,0,0,1-4.49967-2.04459l-.14128-.11979.13379-.12793a9.30156,9.30156,0,0,0,1.46126-1.79134l.10254-.16472.14746.12663a6.36961,6.36961,0,0,0,6.28874,1.16764,1.704,1.704,0,0,1,.28808-.11035.37994.37994,0,0,1,.31283.04981.7388.7388,0,0,1,.30566.55827,2.039,2.039,0,0,1-.96354,1.83528A4.09744,4.09744,0,0,1,120.87175,48.16666Zm-5.14908-2.2666A8.737,8.737,0,0,0,119.917,47.7526l.00293.00032a5.74788,5.74788,0,0,0,.63932.07162,3.95348,3.95348,0,0,0,2.54525-.63281,1.70706,1.70706,0,0,0,.82943-1.52767.41173.41173,0,0,0-.17025-.32683.44291.44291,0,0,0-.04525.00586,1.6103,1.6103,0,0,0-.22851.0905,6.70979,6.70979,0,0,1-6.49056-1.09766A9.62864,9.62864,0,0,1,115.72267,45.90006Z" fill="#004937"/>
          </g>
          <g>
            <path d="M114.6976,38.81212c-.00838.181-.0134.35857-.00838.53452C114.69925,39.17069,114.70205,38.99309,114.6976,38.81212Z" fill="url(#New_Gradient_Swatch_1-20)"/>
            <path d="M114.85548,39.35612l-.333-.00489c-.00488-.18,0-.36165.00879-.54687l.333.00358C114.86883,38.99088,114.8659,39.17545,114.85548,39.35612Z" fill="#004937"/>
          </g>
          <g>
            <path d="M114.68922,39.34664c-.005-.176,0-.35355.00838-.53452a6.51052,6.51052,0,0,1,2.42926-4.77c.08969-.06962.17989-.14032.2706-.20715.15645-.11191.31569-.211.47665-.3101-.147-.17544-.29124-.35247-.42482-.54011a9.48316,9.48316,0,0,1-.853-1.43822c-.19659.1186-.38645.24722-.57187.38144q-.16455.11938-.32237.24665a8.78057,8.78057,0,0,0-2.44043,3.01167,8.885,8.885,0,0,0-.06067,7.75948A5.8779,5.8779,0,0,0,114.68922,39.34664Z" fill="url(#New_Gradient_Swatch_1-21)"/>
            <path d="M113.15821,43.24316l-.10774-.22591a8.99326,8.99326,0,0,1,.06185-7.90495,8.897,8.897,0,0,1,2.48665-3.06868c.10612-.08529.21582-.1696.3278-.25065.207-.15007.39778-.27735.58366-.38933l.15657-.09407.07943.16439a9.231,9.231,0,0,0,.83789,1.41308c.13346.1875.27962.36589.41764.5306l.12337.14779-.16373.10124c-.15755.09733-.3138.194-.46712.30371-.07911.05826-.15951.12076-.23926.18294a6.37307,6.37307,0,0,0-2.39128,4.667c-.00814.17643-.013.34961-.00814.52181l-.00032.01367a6.06167,6.06167,0,0,1-1.5306,3.70117Zm3.37012-11.458c-.12956.083-.26367.1748-.40625.278q-.16113.1167-.31543.24121a8.56785,8.56785,0,0,0-2.39551,2.9554,8.66112,8.66112,0,0,0-.16764,7.37956,5.73077,5.73077,0,0,0,1.279-3.29492c-.00488-.17806,0-.3571.00879-.54a6.69036,6.69036,0,0,1,2.49121-4.89225l.028-.02181c.082-.06413.165-.12858.24837-.18978.10774-.07715.21614-.14779.32519-.21647-.10449-.12761-.21061-.26205-.31054-.40267A9.42493,9.42493,0,0,1,116.52833,31.78516Z" fill="#004937"/>
          </g>
        </g>
      </g>
      <g>
        <g>
          <g>
            <path d="M115.51606,39.037c.00445-.15644.00445-.31455,0-.471C115.50773,38.72249,115.51218,38.8806,115.51606,39.037Z" fill="url(#New_Gradient_Swatch_1-22)"/>
            <path d="M115.68263,39.042l-.33334-.00065.16667-.00423-.16667-.00489v-.002H115.349c-.00391-.15723-.00749-.31576.00065-.473l.333.0039C115.68718,38.721,115.68718,38.88216,115.68263,39.042Z" fill="#004937"/>
          </g>
          <g>
            <path d="M106.09207,45.326a1.87046,1.87046,0,0,0,.892,1.68767,4.20171,4.20171,0,0,0,2.7408.66588c.07127-.0061.14088-.01112.21215-.02.01585-.00171.03866-.00171.054-.005.0849-.01117.159-.02115.22162-.03176a8.8288,8.8288,0,0,0,5.966-3.583,9.04813,9.04813,0,0,0,.81629-1.3669,8.90789,8.90789,0,0,0-.029-7.75667,5.22635,5.22635,0,0,0-.33964.42425,5.80056,5.80056,0,0,0-1.11026,3.22554c.00445.15645.00445.31456,0,.471a6.5292,6.5292,0,0,1-8.73051,5.93652,1.63139,1.63139,0,0,0-.28422-.108.22016.22016,0,0,0-.17236.02058A.57568.57568,0,0,0,106.09207,45.326Z" fill="url(#New_Gradient_Swatch_1-23)"/>
            <path d="M109.33628,47.85937a4.12971,4.12971,0,0,1-2.45085-.71126,2.03535,2.03535,0,0,1-.959-1.84082.74.74,0,0,1,.30371-.55534.38636.38636,0,0,1,.30436-.04981,1.18783,1.18783,0,0,1,.24642.08789l.068.02963a6.36235,6.36235,0,0,0,8.50032-5.78744c.00456-.15332.00456-.30794,0-.46126a5.97233,5.97233,0,0,1,1.14193-3.32812,5.29331,5.29331,0,0,1,.35091-.43848l.16537-.18262.10807.22136a9.04363,9.04363,0,0,1-.80208,9.29459,8.9414,8.9414,0,0,1-6.07813,3.65006c-.05436.00944-.125.01888-.20475.02963a.58568.58568,0,0,1-.0651.00716c-.06511.00781-.12207.01237-.17969.01725l-.04655.00391C109.613,47.85416,109.47755,47.85937,109.33628,47.85937Zm-2.9056-2.835-.01042.001a.4105.4105,0,0,0-.16243.31835l-.00033.00261a1.70221,1.70221,0,0,0,.8252,1.53288,4.01882,4.01882,0,0,0,2.63118.63411l.0446-.00358c.0524-.00456.10449-.00879.15755-.01563l.04492-.00325c.10059-.014.167-.02279.22331-.03255a8.6148,8.6148,0,0,0,5.85937-3.51628,8.70839,8.70839,0,0,0,.88184-8.71972c-.05111.06413-.10515.13542-.16472.21647a5.63525,5.63525,0,0,0-1.07812,3.13281c.00455.14942.00455.31055,0,.47038a6.69557,6.69557,0,0,1-8.95345,6.08854l-.08333-.03581a.93309.93309,0,0,0-.17644-.06543A.19233.19233,0,0,0,106.43068,45.02441Z" fill="#004937"/>
          </g>
        </g>
        <g>
          <g>
            <path d="M100.23771,40.31043a5.4278,5.4278,0,0,0,.13194.65089,4.162,4.162,0,0,0,1.46353,2.31461,1.88951,1.88951,0,0,0,1.87918.32681.59169.59169,0,0,0,.3438-.36747.21954.21954,0,0,0-.03592-.17258,1.445,1.445,0,0,0-.18068-.22385,6.54249,6.54249,0,0,1-.89087-6.50279,9.59821,9.59821,0,0,1-2.19179-.84241A8.82333,8.82333,0,0,0,100.23771,40.31043Z" fill="url(#New_Gradient_Swatch_1-24)"/>
            <path d="M103.09572,43.88606a2.31818,2.31818,0,0,1-1.35938-.47428,4.31986,4.31986,0,0,1-1.52734-2.40723,5.5331,5.5331,0,0,1-.13607-.66894,8.98051,8.98051,0,0,1,.52962-4.90495l.06967-.17155.16341.08757a9.431,9.431,0,0,0,2.15364.82747l.18685.0472-.07357.17806a6.37259,6.37259,0,0,0,.86849,6.33691l.02018.02214a1.3107,1.3107,0,0,1,.17383.22168.3711.3711,0,0,1,.05111.30111.76248.76248,0,0,1-.431.47135A1.7714,1.7714,0,0,1,103.09572,43.88606Zm-2.25163-8.15885a8.64779,8.64779,0,0,0-.44206,4.555l.001.00619a5.24175,5.24175,0,0,0,.12793.63053,3.9951,3.9951,0,0,0,1.39941,2.222,1.74463,1.74463,0,0,0,1.71615.30859.42225.42225,0,0,0,.25032-.26367l-.00032.00065c-.00163,0-.00423-.01335-.01856-.03679a1.08188,1.08188,0,0,0-.13346-.16764l-.029-.0319a6.71144,6.71144,0,0,1-.99121-6.50065A9.78288,9.78288,0,0,1,100.84409,35.72721Z" fill="#004937"/>
          </g>
          <g>
            <path d="M107.24578,32.532c-.16956.04789-.34215.10023-.50755.16038C106.90557,32.64788,107.07873,32.59275,107.24578,32.532Z" fill="url(#New_Gradient_Swatch_1-25)"/>
            <path d="M106.78126,32.85351l-.09993-.3177c.16894-.06153.34538-.11491.51888-.16439l.10254.31706C107.12762,32.75228,106.95184,32.80794,106.78126,32.85351Z" fill="#004937"/>
          </g>
          <g>
            <path d="M106.73823,32.69241c.1654-.06015.338-.11249.50755-.16038a6.50821,6.50821,0,0,1,5.29315.81236c.0963.0618.19038.12532.28394.19436.15646.11135.29734.23052.441.35242.1231-.19431.24443-.38418.38252-.57181a9.32262,9.32262,0,0,1,1.09578-1.26227c-.17373-.14756-.35521-.28782-.539-.42317-.11135-.08239-.22384-.15919-.33519-.23382a8.877,8.877,0,0,0-11.01279,1.00336A5.84129,5.84129,0,0,0,106.73823,32.69241Z" fill="url(#New_Gradient_Swatch_1-26)"/>
            <path d="M113.30177,34.14225l-.14616-.124c-.12826-.10905-.27376-.23275-.42936-.34375-.0931-.06836-.18425-.12989-.27735-.19011a6.36127,6.36127,0,0,0-5.15885-.79166c-.16439.04655-.333.09733-.49479.15625l-.01335.00423a6.02554,6.02554,0,0,1-3.99381-.2972l-.22819-.10059.18-.17252A9.04422,9.04422,0,0,1,113.959,31.26042c.11491.07714.22982.15559.3431.23925.208.153.387.294.54786.43034l.14062.11914-.13281.12761a9.18139,9.18139,0,0,0-1.07585,1.23991c-.139.18847-.26041.37923-.3776.5638Zm-4.3099-2.01334a6.66913,6.66913,0,0,1,3.638,1.07584c.09831.06315.19532.12858.292.19987.10742.0765.209.15788.30371.23633.08919-.13835.18261-.2793.28678-.42057a9.46542,9.46542,0,0,1,.98145-1.15267c-.11817-.09571-.24675-.19466-.38965-.29981-.10938-.08105-.21973-.15625-.3291-.22949a8.71125,8.71125,0,0,0-10.61621.81022,5.6931,5.6931,0,0,0,3.52929.18457c.167-.06055.34082-.11295.51205-.16178A6.74641,6.74641,0,0,1,108.99187,32.12891Z" fill="#004937"/>
          </g>
        </g>
      </g>
      <g>
        <g>
          <g>
            <path d="M106.8546,33.26759c.152-.04066.30235-.09243.44962-.1442C107.15,33.16456,107.00215,33.21632,106.8546,33.26759Z" fill="url(#New_Gradient_Swatch_1-27)"/>
            <path d="M106.89747,33.42871l-.09733-.31869.05436.15756-.043-.16114.01041-.0026-.00032-.0013c.1442-.04981.28906-.09994.43945-.1403l.09863.31836C107.208,33.33366,107.05372,33.38672,106.89747,33.42871Z" fill="#004937"/>
          </g>
          <g>
            <path d="M97.99159,26.20718a1.86718,1.86718,0,0,0-1.33132,1.36609,4.1977,4.1977,0,0,0,.20412,2.81651c.0264.06574.05371.12948.0821.19237a.51369.51369,0,0,0,.02087.05126c.03592.07458.06933.14419.0955.2032a8.8529,8.8529,0,0,0,5.23522,4.59021,9.01278,9.01278,0,0,0,1.54792.35634,8.893,8.893,0,0,0,7.38-2.39476c-.16814-.07184-.33519-.13644-.51-.19431a5.81616,5.81616,0,0,0-3.41176-.0707c-.14727.05177-.29762.10354-.44962.1442a6.52835,6.52835,0,0,1-8.31709-6.50753,1.86925,1.86925,0,0,0,.01813-.30207.20824.20824,0,0,0-.07212-.1556A.57007.57007,0,0,0,97.99159,26.20718Z" fill="url(#New_Gradient_Swatch_1-28)"/>
            <path d="M105.04884,36.03353a8.85379,8.85379,0,0,1-1.22591-.08529,9.22648,9.22648,0,0,1-1.5765-.363,8.96381,8.96381,0,0,1-5.33365-4.67643c-.027-.06087-.0586-.12662-.09245-.19694a.7173.7173,0,0,1-.03027-.07194c-.028-.06152-.05469-.124-.08041-.18815a4.33274,4.33274,0,0,1-.20768-2.93115,2.02814,2.02814,0,0,1,1.457-1.47689.73221.73221,0,0,1,.623.12435.36716.36716,0,0,1,.13867.26693,1.73777,1.73777,0,0,1-.0153.32113,6.40385,6.40385,0,0,0,4.376,6.27962,6.33772,6.33772,0,0,0,3.72722.07161c.15071-.04036.2972-.09082.44043-.14128a5.98477,5.98477,0,0,1,3.51855.06934c.17285.05729.34408.12272.52409.19954l.23112.09929-.18132.17415A9.13619,9.13619,0,0,1,105.04884,36.03353ZM98.15171,26.356a.62537.62537,0,0,0-.126.01432l-.00325.00065a1.69534,1.69534,0,0,0-1.2041,1.255,4.00755,4.00755,0,0,0,.20052,2.70166c.02539.06331.05175.12483.07942.18538l.01075.0319a.14283.14283,0,0,1,.015.03158c.03223.0651.06543.13411.09115.19271a8.63241,8.63241,0,0,0,5.13476,4.499,8.87878,8.87878,0,0,0,1.5192.34993,8.77988,8.77988,0,0,0,7.05209-2.17383c-.08659-.0332-.17221-.0638-.25782-.09212a5.63848,5.63848,0,0,0-3.31315-.06868c-.14225.05013-.29655.10319-.4528.14518a6.67031,6.67031,0,0,1-3.91992-.07617,6.73808,6.73808,0,0,1-4.60677-6.59814l.00358-.03467a1.5544,1.5544,0,0,0,.015-.25049.149.149,0,0,0-.01042-.04053A.37907.37907,0,0,0,98.15171,26.356Z" fill="#004937"/>
          </g>
        </g>
        <g>
          <g>
            <path d="M100.97407,19.09386a5.06315,5.06315,0,0,0-.57546.32658,4.15177,4.15177,0,0,0-1.75614,2.10023,1.87565,1.87565,0,0,0,.26421,1.88807.57114.57114,0,0,0,.45408.21854.211.211,0,0,0,.15172-.08883,1.43677,1.43677,0,0,0,.15673-.24026,6.544,6.544,0,0,1,5.922-2.83157,9.53906,9.53906,0,0,1,.13364-2.35046A8.899,8.899,0,0,0,100.97407,19.09386Z" fill="url(#New_Gradient_Swatch_1-29)"/>
            <path d="M99.36069,23.794a.73759.73759,0,0,1-.57845-.27409,2.03756,2.03756,0,0,1-.2985-2.05013,4.308,4.308,0,0,1,1.82422-2.18929,5.13666,5.13666,0,0,1,.59212-.33594,9.05847,9.05847,0,0,1,4.83724-.99446l.18489.01367-.0332.18245a9.37713,9.37713,0,0,0-.13151,2.30925l.013.193-.193-.01562A6.37272,6.37272,0,0,0,99.807,23.39209a1.45262,1.45262,0,0,1-.1696.25635A.37436.37436,0,0,1,99.36069,23.794Zm5.71029-5.53532a8.7418,8.7418,0,0,0-4.02051.98323l-.00553.00277a4.81288,4.81288,0,0,0-.55567.31559,3.98147,3.98147,0,0,0-1.68815,2.01172,1.70907,1.70907,0,0,0,.22949,1.72526.40558.40558,0,0,0,.32683.16341c-.00163-.00146.00976-.00927.02929-.03157a1.34482,1.34482,0,0,0,.13672-.21159,6.70467,6.70467,0,0,1,5.89063-2.92969,9.69452,9.69452,0,0,1,.11523-2.01709Q105.29983,18.25871,105.071,18.25863Z" fill="#004937"/>
          </g>
          <g>
            <path d="M110.52554,23.399c-.09858-.15115-.20126-.29762-.3129-.43987C110.31117,23.11026,110.4142,23.2556,110.52554,23.399Z" fill="url(#New_Gradient_Swatch_1-30)"/>
            <path d="M110.39389,23.50114c-.11165-.14355-.21647-.291-.321-.45085l.27083-.194c.10775.13737.21289.28516.32129.45166Z" fill="#004937"/>
          </g>
          <g>
            <path d="M110.21264,22.95912c.11164.14225.21432.28872.3129.43987a6.5315,6.5315,0,0,1,.84355,5.29287c-.03119.10827-.063.216-.09636.32681-.06009.181-.13028.35635-.20155.52842.21775.05542.43879.11723.65813.18929a9.411,9.411,0,0,1,1.53452.66064c.08689-.21215.17042-.42676.2389-.64422q.06516-.195.11916-.39055a8.8928,8.8928,0,0,0-4.31574-10.18874A5.8602,5.8602,0,0,0,110.21264,22.95912Z" fill="url(#New_Gradient_Swatch_1-31)"/>
            <path d="M113.34767,30.63184l-.16309-.08822a9.24861,9.24861,0,0,0-1.50749-.64893c-.19433-.0638-.40592-.12467-.64681-.18619l-.18652-.04753.07357-.17773c.06966-.16846.13835-.34.19726-.51709.03158-.10564.06348-.21273.09441-.32048a6.37849,6.37849,0,0,0-.82292-5.15543c-.10352-.1587-.2028-.29867-.30469-.42823l-.00879-.01253a6.04281,6.04281,0,0,1-.93229-3.89355l.026-.24756.21908.11865a9.10205,9.10205,0,0,1,4.599,6.43734,8.96425,8.96425,0,0,1-.20215,3.94254q-.05518.19995-.12175.39893c-.07324.23388-.16373.46224-.24251.65446Zm-2.05046-1.19776c.17416.0472.334.09457.484.14388a9.57214,9.57214,0,0,1,1.39681.58561c.057-.1442.11523-.30127.16569-.46077.04362-.13005.082-.25733.11751-.38493a8.6327,8.6327,0,0,0,.19434-3.79752,8.773,8.773,0,0,0-4.20475-6.07438,5.71453,5.71453,0,0,0,.89778,3.4165c.10612.13558.20964.28141.31641.44547a6.71249,6.71249,0,0,1,.86491,5.42757c-.03223.11133-.06413.21973-.09766.33106C111.39031,29.193,111.34474,29.31478,111.29721,29.43408Z" fill="#004937"/>
          </g>
        </g>
      </g>
    </g>
    <g>
      <path d="M90.83563,18.35124l-.473.93669-.75846-.383,1.38346-2.73877.75846.383-.47331.93668,2.36426,1.19434-.43717.86523Z" fill="#6b4129"/>
      <path d="M91.86037,14.74512l.58008-.77767,1.05013.78369.74479-.998-1.05013-.78353.5804-.77751L96.571,14.28549l-.58008.7775-1.06608-.79541-.74479.99789,1.06608.79557-.58008.77751Z" fill="#6b4129"/>
      <path d="M95.10125,10.72885l2.056-1.92432.5638.60254-1.35481,1.26807.3623.387,1.22721-1.14844.52279.55876-1.22689,1.14844.37924.40543,1.37337-1.28515.5638.60254-2.07422,1.9414Z" fill="#6b4129"/>
      <path d="M100.54884,6.35466l.85352-.46077.67448,1.24951.38574-1.82194,1.012-.54639-.45084,1.95378,2.153,1.10465-1.02506.55339-1.39193-.72575-.12467.51611.43.79639-.85352.46077Z" fill="#6b4129"/>
      <path d="M104.92905,4.21827l.91471-.33919,1.21745,3.28271-.91439.33919Z" fill="#6b4129"/>
      <path d="M107.64259,3.27133l.88574-.18685,1.79134,1.513-.38216-1.81038.93945-.19824.72266,3.425-.8317.17562-1.85938-1.57015.39649,1.87891-.93946.19824Z" fill="#6b4129"/>
      <path d="M112.74676,4.13266l-.00033-.00993a1.81762,1.81762,0,0,1,1.84993-1.85645,2.04186,2.04186,0,0,1,1.42969.48259l-.55664.696a1.23528,1.23528,0,0,0-.85124-.31364.91973.91973,0,0,0-.87662.97722l.00032.01009a.9244.9244,0,0,0,.96875.95149.9865.9865,0,0,0,.557-.15576l-.00814-.425-.68978.01334-.014-.71,1.61-.03109.03027,1.57487a2.36532,2.36532,0,0,1-1.50944.56934A1.7997,1.7997,0,0,1,112.74676,4.13266Z" fill="#6b4129"/>
      <path d="M119.79037,4.48308l.00261-.0096a1.79786,1.79786,0,0,1,2.2347-1.31218,1.71447,1.71447,0,0,1,1.26074,1.07178l-.84635.36882a.9362.9362,0,0,0-.641-.585.86586.86586,0,0,0-1.03645.69189l-.00228.00976a.86582.86582,0,0,0,.58008,1.11117.95536.95536,0,0,0,.87011-.21842l.58041.6831a1.84268,1.84268,0,0,1-3.00261-1.81136Z" fill="#6b4129"/>
      <path d="M125.071,4.18881,127.63965,5.34l-.33756.75277-1.69271-.75863-.21647.48357,1.53288.687-.31283.69808-1.53287-.687-.22722.50652,1.7155.76871-.33724.75277-2.59147-1.1613Z" fill="#6b4129"/>
      <path d="M129.318,6.26254l.74577.51383L130.2002,9.118l1.05013-1.52425.791.54492-1.987,2.88379-.7002-.48243-.14192-2.43066-1.08985,1.582-.791-.54492Z" fill="#6b4129"/>
      <path d="M133.474,10.55665l-.74739-.737.59635-.60531,2.1862,2.155-.59668.6053-.74772-.73714-1.86,1.88705-.69075-.68083Z" fill="#6b4129"/>
      <path d="M136.55957,12.60564l1.66081,2.2736-.66634.48681-1.0944-1.49821-.42806.31267.99121,1.35693-.61784.45133-.99121-1.35693-.44824.32747,1.109,1.5184-.66634.48681-1.67546-2.29394Z" fill="#6b4129"/>
      <path d="M139.20475,16.50879l.72754,1.48649a1.52986,1.52986,0,0,1,.15951,1.19108,1.08457,1.08457,0,0,1-.5957.63656l-.00912.00439a1.10657,1.10657,0,0,1-1.2819-.17431l-.72917,1.28613-.49218-1.006.64257-1.09912-.00455-.00895-.18229-.37273-.95215.46582-.42611-.87125Zm-.80143,2.18441c.14519.29639.3724.39681.60124.28467l.00911-.0044c.24707-.12077.28483-.362.14193-.654l-.279-.57031-.75456.36914Z" fill="#6b4129"/>
    </g>
    <g>
      <path d="M98.3646,48.30338,99.94923,49.639l-.28711.34082L98.45151,48.9593l-.48958.58106,1.07357.90495-.28711.34049-1.07357-.90495-.73079.86686-.374-.3151Z" fill="#6b4129"/>
      <path d="M99.86818,51.33853l.00423-.00651a1.45495,1.45495,0,0,1,2.46517,1.54558l-.00423.00683a1.455,1.455,0,0,1-2.46517-1.5459Zm2.02734,1.279.00423-.00684a.95323.95323,0,0,0-.27213-1.3418.94038.94038,0,0,0-1.31738.32976l-.00424.00683a.95356.95356,0,0,0,.27214,1.34212A.94035.94035,0,0,0,101.89552,52.61751Z" fill="#6b4129"/>
      <path d="M103.37013,53.64778l.6416-1.46777.44792.196-.63346,1.44922a.68443.68443,0,0,0,.32617,1.01009.6691.6691,0,0,0,.95117-.42969l.6416-1.46777.44792.196-.63184,1.44564a1.111,1.111,0,0,1-1.596.66439A1.09676,1.09676,0,0,1,103.37013,53.64778Z" fill="#6b4129"/>
      <path d="M107.32749,53.53612l.43717.11915.93327,2.24706.50488-1.85611.46387.126-.72982,2.68457-.39486-.10742-.96126-2.31217-.5192,1.90983-.46387-.12631Z" fill="#6b4129"/>
      <path d="M110.88413,54.40624l1.03027.12207a1.38683,1.38683,0,0,1,1.30534,1.54753l-.001.00814a1.3929,1.3929,0,0,1-1.63183,1.20735l-1.03028-.12239Zm.7552,2.443a.90674.90674,0,0,0,1.06934-.818l.001-.00781a.91293.91293,0,0,0-.84766-1.05306l-.5446-.06445-.223,1.87858Z" fill="#6b4129"/>
      <path d="M114.4756,54.72851l2.06445-.03679.00781.4375-1.57519.028.013.724,1.39616-.02507.00781.4375-1.39616.02507.01335.74772,1.59505-.02832.00781.4375-2.08431.03711Z" fill="#6b4129"/>
      <path d="M117.65984,54.60546l1.02506-.16048a1.38684,1.38684,0,0,1,1.67481,1.13737l.001.00781a1.39242,1.39242,0,0,1-1.24512,1.60319l-1.02474.16081Zm1.38672,2.14811a.90671.90671,0,0,0,.80892-1.07617l-.0013-.00781a.91294.91294,0,0,0-1.10059-.78483l-.54167.085.293,1.86881Z" fill="#6b4129"/>
      <path d="M123.38705,53.765l-.42513.29947-.23112-.33951.6237-.47624.32194-.11491.943,2.639-.4567.16341Z" fill="#6b4129"/>
      <path d="M125.9017,54.96288l.07715-.45247A.93036.93036,0,0,0,126.666,54.47c.36882-.17838.43327-.61132.22461-1.08007a.81994.81994,0,0,1-.45931.5485.88209.88209,0,0,1-1.27181-.36589l-.00358-.00716a.96843.96843,0,0,1,.516-1.318.99878.99878,0,0,1,.82292-.07064,1.39328,1.39328,0,0,1,.766.80924l.00358.00717c.389.80566.25781,1.55794-.41537,1.88313A1.32239,1.32239,0,0,1,125.9017,54.96288Zm.7067-2.12109-.00358-.00716a.52578.52578,0,0,0-.74576-.20931.51126.51126,0,0,0-.27312.70573l.00358.00716a.50818.50818,0,0,0,.72819.20019A.51429.51429,0,0,0,126.6084,52.84179Z" fill="#6b4129"/>
      <path d="M129.24415,53.25585a1.38177,1.38177,0,0,1-.86524-.708l-.00423-.00683c-.46484-.71289-.48763-1.49089.17188-1.9209a1.26161,1.26161,0,0,1,.88248-.20475l-.01367.45963a.92371.92371,0,0,0-.63867.127c-.34668.22591-.33561.665-.0778,1.10449a.96486.96486,0,0,1,1.69857-.39518l.00423.00683a.96592.96592,0,0,1-.34929,1.35742A1.0487,1.0487,0,0,1,129.24415,53.25585Zm.75879-1.2539-.00456-.00684a.50652.50652,0,0,0-.74121-.0957.51251.51251,0,0,0-.20606.7181l.00423.00651a.52077.52077,0,0,0,.75684.10514A.506.506,0,0,0,130.00294,52.002Z" fill="#6b4129"/>
      <path d="M131.44792,51.11718l-.00521-.00618a.70308.70308,0,0,1-.05664-.84278.66972.66972,0,0,1-.71061-.21159l-.00488-.00618a.997.997,0,0,1,1.47558-1.24837l.00521.00618a.66885.66885,0,0,1,.09082.73568.71872.71872,0,0,1,.81413.18652l.00521.00586c.321.37956.17513.90918-.28939,1.30241C132.30762,51.43163,131.75586,51.48144,131.44792,51.11718Zm.376-1.9694-.00521-.00619a.51257.51257,0,0,0-.76172.639l.00521.00619a.506.506,0,0,0,.76172-.639Zm.86035.88184-.00521-.00619c-.16439-.19434-.46647-.15755-.71842.05566s-.33854.50521-.17416.69955l.00521.00586c.14649.17318.43652.17773.71615-.0586C132.78711,50.48958,132.83334,50.20572,132.68425,50.02962Z" fill="#6b4129"/>
    </g>
  </g>
</svg>
