<svg id="Isolation_Mode" data-name="Isolation Mode" xmlns="http://www.w3.org/2000/svg" xmlns:xlink="http://www.w3.org/1999/xlink" width="300" height="60" viewBox="0 0 300 60">
  <defs>
    <linearGradient id="linear-gradient" x1="30" y1="52.5" x2="30" y2="7.5" gradientUnits="userSpaceOnUse">
      <stop offset="0" stop-color="#004937"/>
      <stop offset="1" stop-color="#0db14b"/>
    </linearGradient>
  </defs>
  <title>the-king-center-logo</title>
  <g>
    <g>
      <path d="M30,59.75041a29.75024,29.75024,0,1,1,29.75-29.75A29.78357,29.78357,0,0,1,30,59.75041Z" fill="#ffcc4d"/>
      <path d="M30,.5A29.5,29.5,0,1,1,.5,30,29.53338,29.53338,0,0,1,30,.5M30,0a30,30,0,1,0,30,30A30,30,0,0,0,30,0Z" fill="#6b4129"/>
    </g>
    <circle cx="30" cy="30" r="22.5" stroke="#6b4129" stroke-miterlimit="10" stroke-width="0.5" fill="url(#linear-gradient)"/>
    <g>
      <path d="M32.86347,19.81019a2.772,2.772,0,1,1-2.77169-2.77676A2.77339,2.77339,0,0,1,32.86347,19.81019Z" fill="#ffcc4d" stroke="#004937" stroke-miterlimit="10" stroke-width="0.25"/>
      <path d="M26.79611,38.81819a2.77158,2.77158,0,1,1-2.76976-2.77392A2.77125,2.77125,0,0,1,26.79611,38.81819Z" fill="#ffcc4d" stroke="#004937" stroke-miterlimit="10" stroke-width="0.25"/>
      <path d="M22.9885,27.02784a2.77381,2.77381,0,1,1-2.77534-2.777A2.77538,2.77538,0,0,1,22.9885,27.02784Z" fill="#ffcc4d" stroke="#004937" stroke-miterlimit="10" stroke-width="0.25"/>
      <path d="M42.74374,27.30819a2.77366,2.77366,0,1,1-2.77391-2.77557A2.77329,2.77329,0,0,1,42.74374,27.30819Z" fill="#ffcc4d" stroke="#004937" stroke-miterlimit="10" stroke-width="0.25"/>
      <path d="M38.92975,38.92344A2.77255,2.77255,0,1,1,36.158,36.15118,2.7692,2.7692,0,0,1,38.92975,38.92344Z" fill="#ffcc4d" stroke="#004937" stroke-miterlimit="10" stroke-width="0.25"/>
      <g>
        <path d="M24.67947,23.47025c.08769.12942.18376.25748.28228.38137C24.87463,23.7222,24.77805,23.59443,24.67947,23.47025Z" fill="#ffcc4d" stroke="#004937" stroke-miterlimit="10" stroke-width="0.25"/>
        <path d="M28.62351,12.84022A1.86362,1.86362,0,0,0,26.91248,12a4.17981,4.17981,0,0,0-2.6108,1.07268c-.05428.04539-.105.09072-.15867.13582a.36526.36526,0,0,1-.04288.03649c-.06015.05821-.11637.11192-.16061.15617a8.86382,8.86382,0,0,0-2.73,6.409,8.76138,8.76138,0,0,0,.14419,1.58293,8.90653,8.90653,0,0,0,4.57487,6.27005c.01562-.18011.02617-.36023.02617-.5429a5.85369,5.85369,0,0,0-.993-3.26865c-.09852-.12389-.19459-.252-.28228-.38137a6.54006,6.54006,0,0,1,3.59106-9.939,1.386,1.386,0,0,0,.29061-.07714.21354.21354,0,0,0,.128-.11637A.5775.5775,0,0,0,28.62351,12.84022Z" fill="#ffcc4d" stroke="#004937" stroke-miterlimit="10" stroke-width="0.25"/>
      </g>
      <g>
        <path d="M36.30612,13.46a6.00257,6.00257,0,0,0-.49278-.44489A4.1347,4.1347,0,0,0,33.27661,12a1.85821,1.85821,0,0,0-1.711.84018.5633.5633,0,0,0-.0674.49752.22294.22294,0,0,0,.13028.11973,1.67185,1.67185,0,0,0,.27949.07378,6.53823,6.53823,0,0,1,4.53234,4.74717,9.61716,9.61716,0,0,1,2.27224-.60386A8.87442,8.87442,0,0,0,36.30612,13.46Z" fill="#ffcc4d" stroke="#004937" stroke-miterlimit="10" stroke-width="0.25"/>
        <path d="M35.19364,23.887c.11249-.14139.21939-.28422.3202-.43206C35.40243,23.59243,35.295,23.73776,35.19364,23.887Z" fill="#ffcc4d" stroke="#004937" stroke-miterlimit="10" stroke-width="0.25"/>
        <path d="M35.51384,23.45491c-.10081.14784-.20771.29067-.3202.43206a6.519,6.519,0,0,1-4.75943,2.44853c-.11471.00554-.22943.012-.34243.012-.191,0-.37807-.012-.56571-.02731.01448.22521.029.45549.029.68572a9.75934,9.75934,0,0,1-.14812,1.66674c.22384.01533.451.02674.68487.02674.13638,0,.27-.00394.40646-.01141a8.78035,8.78035,0,0,0,3.73605-1.01727A8.88719,8.88719,0,0,0,38.829,21.40953,5.84464,5.84464,0,0,0,35.51384,23.45491Z" fill="#ffcc4d" stroke="#004937" stroke-miterlimit="10" stroke-width="0.25"/>
      </g>
      <g>
        <g>
          <path d="M34.83176,23.15484c-.09858.1219-.18821.25166-.27784.38109C34.65022,23.41454,34.74487,23.28512,34.83176,23.15484Z" fill="#ffcc4d" stroke="#004937" stroke-miterlimit="10" stroke-width="0.25"/>
          <path d="M46.14854,23.7088a1.8734,1.8734,0,0,0,.28171-1.88613,4.21455,4.21455,0,0,0-1.80733-2.16727c-.06237-.03706-.12025-.07407-.17875-.11164-.01613-.007-.0317-.01785-.04732-.02617-.074-.0426-.1414-.07966-.19818-.108a8.8463,8.8463,0,0,0-6.92653-.67262,9.07217,9.07217,0,0,0-1.4649.61583,8.88656,8.88656,0,0,0-4.59078,6.25751c.17487-.03843.34917-.08461.52341-.14a5.79711,5.79711,0,0,0,2.814-1.93431c.08963-.12943.17926-.25919.27784-.38109a6.52634,6.52634,0,0,1,10.5473.42339,1.778,1.778,0,0,0,.16147.25783.21246.21246,0,0,0,.15143.08381A.5719.5719,0,0,0,46.14854,23.7088Z" fill="#ffcc4d" stroke="#004937" stroke-miterlimit="10" stroke-width="0.25"/>
        </g>
        <g>
          <path d="M47.87126,31.228a4.99462,4.99462,0,0,0,.27892-.60464,4.14109,4.14109,0,0,0,.1999-2.72882,1.88052,1.88052,0,0,0-1.31569-1.38115.58526.58526,0,0,0-.49387.09128.2047.2047,0,0,0-.07241.16039,1.26844,1.26844,0,0,0,.01175.287,6.55044,6.55044,0,0,1-3.15427,5.75776,9.66713,9.66713,0,0,1,1.26169,1.98334A8.82212,8.82212,0,0,0,47.87126,31.228Z" fill="#ffcc4d" stroke="#004937" stroke-miterlimit="10" stroke-width="0.25"/>
          <path d="M37.60956,33.31266c.16369.0646.33411.12641.50561.176C37.94977,33.42179,37.7794,33.36278,37.60956,33.31266Z" fill="#ffcc4d" stroke="#004937" stroke-miterlimit="10" stroke-width="0.25"/>
          <path d="M38.11517,33.48861c-.1715-.04954-.34192-.11135-.50561-.176a6.51233,6.51233,0,0,1-3.77112-3.80259c-.04231-.10583-.08074-.21466-.11415-.32436-.0557-.18234-.1036-.36524-.1459-.54815-.20936.08547-.42425.16506-.64644.23468a9.74247,9.74247,0,0,1-1.62859.36245c.04954.22.10969.44238.18148.66092.03791.13142.08523.25754.12977.3856a8.87061,8.87061,0,0,0,9.44929,5.74636A5.86,5.86,0,0,0,38.11517,33.48861Z" fill="#ffcc4d" stroke="#004937" stroke-miterlimit="10" stroke-width="0.25"/>
        </g>
      </g>
      <g>
        <g>
          <path d="M38.46872,33.00085c-.14978-.05565-.29956-.10355-.45213-.14534C38.16751,32.90728,38.31615,32.95631,38.46872,33.00085Z" fill="#ffcc4d" stroke="#004937" stroke-miterlimit="10" stroke-width="0.25"/>
          <path d="M41.48205,43.9212a1.87985,1.87985,0,0,0,1.8814-.31849,4.20007,4.20007,0,0,0,1.48776-2.40144c.01784-.0679.03563-.13473.049-.2032a.45364.45364,0,0,0,.0134-.05348c.01779-.08182.02948-.15868.04066-.22271a8.83725,8.83725,0,0,0-1.53286-6.78507A8.86891,8.86891,0,0,0,35.006,30.33018c.09191.15423.18764.306.29791.45573a5.84213,5.84213,0,0,0,2.71268,2.0696c.15257.04179.30235.08969.45213.14534a6.46164,6.46164,0,0,1,3.04509,2.309,6.52858,6.52858,0,0,1-.14813,7.84185,1.3,1.3,0,0,0-.19043.235.22133.22133,0,0,0-.03786.16705A.578.578,0,0,0,41.48205,43.9212Z" fill="#ffcc4d" stroke="#004937" stroke-miterlimit="10" stroke-width="0.25"/>
        </g>
        <g>
          <path d="M34.89186,47.9173a5.85679,5.85679,0,0,0,.65812.07349,4.12324,4.12324,0,0,0,2.65316-.6648,1.87462,1.87462,0,0,0,.8964-1.68093.57927.57927,0,0,0-.2394-.44381.21754.21754,0,0,0-.1743-.02167,1.69289,1.69289,0,0,0-.27117.10519,6.54773,6.54773,0,0,1-6.45375-1.19817,9.443,9.443,0,0,1-1.48719,1.82347A8.9075,8.9075,0,0,0,34.89186,47.9173Z" fill="#ffcc4d" stroke="#004937" stroke-miterlimit="10" stroke-width="0.25"/>
          <path d="M29.69757,38.81209c-.00838.181-.0134.35857-.00838.53452C29.69922,39.17066,29.702,38.99306,29.69757,38.81209Z" fill="#ffcc4d" stroke="#004937" stroke-miterlimit="10" stroke-width="0.25"/>
          <path d="M29.68919,39.34661c-.005-.176,0-.35355.00838-.53452a6.51053,6.51053,0,0,1,2.42926-4.77c.08969-.06961.17988-.14031.2706-.20714.15645-.11192.31569-.211.47665-.3101-.147-.17544-.29124-.35247-.42483-.54011a9.48481,9.48481,0,0,1-.853-1.43822c-.19658.1186-.38644.24722-.57186.38144q-.16455.11938-.32237.24665a8.78057,8.78057,0,0,0-2.44043,3.01167,8.885,8.885,0,0,0-.06067,7.75947A5.87793,5.87793,0,0,0,29.68919,39.34661Z" fill="#ffcc4d" stroke="#004937" stroke-miterlimit="10" stroke-width="0.25"/>
        </g>
      </g>
      <g>
        <g>
          <path d="M30.516,39.037c.00445-.15644.00445-.31455,0-.471C30.5077,38.72246,30.51215,38.88057,30.516,39.037Z" fill="#ffcc4d" stroke="#004937" stroke-miterlimit="10" stroke-width="0.25"/>
          <path d="M21.09205,45.326a1.87045,1.87045,0,0,0,.892,1.68766,4.20158,4.20158,0,0,0,2.74079.66588c.07127-.0061.14088-.01111.21215-.02.01585-.00171.03866-.00171.054-.005.08489-.01117.159-.02115.22162-.03175a8.82884,8.82884,0,0,0,5.966-3.583,9.049,9.049,0,0,0,.81629-1.3669,8.90792,8.90792,0,0,0-.029-7.75667,5.22825,5.22825,0,0,0-.33964.42426A5.80052,5.80052,0,0,0,30.516,38.566c.00445.15645.00445.31456,0,.471a6.52919,6.52919,0,0,1-8.7305,5.93652,1.63064,1.63064,0,0,0-.28422-.108.22012.22012,0,0,0-.17236.02059A.57566.57566,0,0,0,21.09205,45.326Z" fill="#ffcc4d" stroke="#004937" stroke-miterlimit="10" stroke-width="0.25"/>
        </g>
        <g>
          <path d="M15.2377,40.3104a5.42539,5.42539,0,0,0,.13193.65089,4.162,4.162,0,0,0,1.46353,2.3146,1.88949,1.88949,0,0,0,1.87918.32682.59169.59169,0,0,0,.3438-.36747.21948.21948,0,0,0-.03592-.17258,1.445,1.445,0,0,0-.18068-.22385,6.54251,6.54251,0,0,1-.89087-6.50279,9.59817,9.59817,0,0,1-2.19179-.8424A8.82328,8.82328,0,0,0,15.2377,40.3104Z" fill="#ffcc4d" stroke="#004937" stroke-miterlimit="10" stroke-width="0.25"/>
          <path d="M22.24576,32.532c-.16957.04789-.34215.10023-.50755.16038C21.90555,32.64786,22.0787,32.59273,22.24576,32.532Z" fill="#ffcc4d" stroke="#004937" stroke-miterlimit="10" stroke-width="0.25"/>
          <path d="M21.73821,32.69239c.1654-.06015.338-.11249.50755-.16038a6.50825,6.50825,0,0,1,5.29315.81235c.0963.0618.19037.12532.28393.19437.15646.11135.29734.23051.441.35241.1231-.19431.24443-.38417.38252-.57181a9.32192,9.32192,0,0,1,1.09578-1.26226c-.17373-.14756-.35521-.28782-.539-.42317-.11135-.08239-.22384-.15919-.33519-.23382a8.877,8.877,0,0,0-11.01277,1.00336A5.84126,5.84126,0,0,0,21.73821,32.69239Z" fill="#ffcc4d" stroke="#004937" stroke-miterlimit="10" stroke-width="0.25"/>
        </g>
      </g>
      <g>
        <g>
          <path d="M21.85458,33.26756c.152-.04065.30235-.09242.44962-.14419C22.15,33.16454,22.00213,33.2163,21.85458,33.26756Z" fill="#ffcc4d" stroke="#004937" stroke-miterlimit="10" stroke-width="0.25"/>
          <path d="M12.99157,26.20716a1.86723,1.86723,0,0,0-1.33131,1.36609,4.19764,4.19764,0,0,0,.20412,2.81651c.02639.06574.0537.12949.0821.19237a.51369.51369,0,0,0,.02087.05126c.03592.07458.06933.14419.0955.2032a8.85283,8.85283,0,0,0,5.23522,4.5902,9.01156,9.01156,0,0,0,1.54791.35635,8.893,8.893,0,0,0,7.38-2.39476c-.16813-.07184-.33519-.13644-.51-.19432a5.81612,5.81612,0,0,0-3.41175-.07069c-.14727.05177-.29762.10354-.44962.14419A6.52834,6.52834,0,0,1,13.5375,26.76a1.86912,1.86912,0,0,0,.01813-.30207.20822.20822,0,0,0-.07213-.15559A.57.57,0,0,0,12.99157,26.20716Z" fill="#ffcc4d" stroke="#004937" stroke-miterlimit="10" stroke-width="0.25"/>
        </g>
        <g>
          <path d="M15.97405,19.09385a5.06355,5.06355,0,0,0-.57545.32659,4.15165,4.15165,0,0,0-1.75614,2.10022,1.87566,1.87566,0,0,0,.26421,1.88807.57116.57116,0,0,0,.45407.21854.211.211,0,0,0,.15172-.08883,1.43753,1.43753,0,0,0,.15674-.24027,6.544,6.544,0,0,1,5.922-2.83156,9.53906,9.53906,0,0,1,.13364-2.35046A8.8991,8.8991,0,0,0,15.97405,19.09385Z" fill="#ffcc4d" stroke="#004937" stroke-miterlimit="10" stroke-width="0.25"/>
          <path d="M25.52552,23.399c-.09858-.15115-.20127-.29762-.3129-.43988C25.31114,23.11025,25.41417,23.25558,25.52552,23.399Z" fill="#ffcc4d" stroke="#004937" stroke-miterlimit="10" stroke-width="0.25"/>
          <path d="M25.21262,22.9591c.11163.14226.21432.28873.3129.43988a6.53151,6.53151,0,0,1,.84354,5.29286c-.03118.10827-.06294.216-.09635.32681-.0601.181-.13028.35635-.20155.52842.21774.05542.43879.11723.65813.1893a9.41119,9.41119,0,0,1,1.53451.66063c.08689-.21215.17042-.42676.2389-.64421q.06516-.195.11916-.39056A8.89276,8.89276,0,0,0,24.30613,19.1735,5.8601,5.8601,0,0,0,25.21262,22.9591Z" fill="#ffcc4d" stroke="#004937" stroke-miterlimit="10" stroke-width="0.25"/>
        </g>
      </g>
    </g>
    <g>
      <path d="M5.48438,18.8999l-.45167.94873-.76806-.36572,1.32129-2.77344.76758.36573-.45166.94873,2.39355,1.14013-.417.87647Z" fill="#6b4129"/>
      <path d="M6.49805,15.15918l.56543-.7876,1.06347.76367.72559-1.01074-1.06348-.76367.56543-.7876,2.84131,2.04053-.56543.78711L9.55078,14.626,8.8252,15.63623l1.07959.77539-.56543.7876Z" fill="#6b4129"/>
      <path d="M9.752,10.96924l2.02735-1.959.57422.59424-1.33643,1.291.36914.38135,1.21-1.16895.53223.55127-1.21,1.16894.38623.39942,1.354-1.30811.57373.59424L12.187,13.48975Z" fill="#6b4129"/>
      <path d="M15.15186,6.50439l.84668-.47363L16.69189,7.27l.3584-1.82764,1.00391-.56152-.42188,1.96045,2.16993,1.07226-1.01661.56885-1.40283-.70508-.11719.51807.4419.79-.84668.47363Z" fill="#6b4129"/>
      <path d="M19.64453,4.24512l.91016-.34815,1.25,3.26856-.91065.34814Z" fill="#6b4129"/>
      <path d="M22.50146,3.22949l.88379-.19043,1.79541,1.50342L24.7915,2.73584l.9375-.20215.73682,3.418-.83008.1792L23.77148,4.57031l.4043,1.875-.9375.20215Z" fill="#6b4129"/>
      <path d="M27.74609,4.04932V4.03906a1.81879,1.81879,0,0,1,1.85352-1.85595,2.04332,2.04332,0,0,1,1.43066.48437l-.5581.69629a1.23327,1.23327,0,0,0-.85156-.31494.92028.92028,0,0,0-.87842.977v.01025a.92549.92549,0,0,0,.96875.95362A.98867.98867,0,0,0,30.269,4.834l-.00781-.42529-.69092.0127-.01269-.71045L31.169,3.68115l.0288,1.57666a2.36988,2.36988,0,0,1-1.51171.56836A1.80174,1.80174,0,0,1,27.74609,4.04932Z" fill="#6b4129"/>
      <path d="M34.80908,4.40186l.00244-.00977a1.79942,1.79942,0,0,1,2.23487-1.31592,1.715,1.715,0,0,1,1.26269,1.07129l-.84619.36963a.93963.93963,0,0,0-.64258-.58447.866.866,0,0,0-1.03613.69384l-.00244.00977a.86666.86666,0,0,0,.582,1.11133.95725.95725,0,0,0,.87061-.21973l.58154.68311a1.84394,1.84394,0,0,1-3.00684-1.80908Z" fill="#6b4129"/>
      <path d="M40.21875,4.16406l2.55957,1.15967-.33984.75049-1.687-.76465L40.5332,5.792l1.52784.6919-.31495.6958L40.21826,6.4873l-.229.50489,1.71.77441-.33984.75049-2.583-1.16992Z" fill="#6b4129"/>
      <path d="M44.57324,6.3291l.74024.519.11621,2.33936,1.06152-1.51318.78516.55078-2.0083,2.86279-.69532-.48779-.12109-2.42822L43.3501,9.74219l-.78516-.55078Z" fill="#6b4129"/>
      <path d="M48.81885,10.77588l-.73731-.74658.6045-.59668,2.15478,2.1831-.60449.59668-.73682-.74658-1.88428,1.85986-.68066-.68945Z" fill="#6b4129"/>
      <path d="M51.96436,12.99121l1.61474,2.30225-.6748.47314-1.064-1.51709-.43359.3042.96387,1.374-.62549.439-.96387-1.374-.4541.31836,1.07861,1.53759-.6748.47315L49.10156,14.999Z" fill="#6b4129"/>
      <path d="M54.60791,17.07227l.69189,1.50488a1.53325,1.53325,0,0,1,.13135,1.1958,1.08672,1.08672,0,0,1-.61181.62256l-.00879.0039a1.10792,1.10792,0,0,1-1.27881-.20507l-.76026,1.26953-.46826-1.01856.66895-1.08447-.00391-.00928-.17383-.37744-.96386.44336-.40577-.88232Zm-.85449,2.1665c.13769.2998.36279.40576.59472.29932l.00928-.0044c.25-.11474.29346-.35547.15772-.65088l-.26563-.57763-.76367.35156Z" fill="#6b4129"/>
    </g>
    <g>
      <path d="M13.12744,48.293l1.55811,1.335-.28711.335L13.2085,48.94238l-.48975.57129,1.05566.90528-.28711.335-1.05566-.90528-.73047.85254-.36816-.31543Z" fill="#6b4129"/>
      <path d="M14.70068,51.38379l.00391-.00684a1.44415,1.44415,0,0,1,2.43945,1.5459l-.00439.00684a1.44395,1.44395,0,0,1-2.439-1.5459Zm2.00537,1.27832.0044-.00586a.94574.94574,0,0,0-.26367-1.333.93263.93263,0,0,0-1.3086.32031l-.00439.00684a.94607.94607,0,0,0,.26367,1.333A.932.932,0,0,0,16.70605,52.66211Z" fill="#6b4129"/>
      <path d="M18.252,53.73633l.63965-1.458.44483.19531-.63135,1.43946a.68011.68011,0,0,0,.32226,1.0039.66546.66546,0,0,0,.94629-.42578l.63916-1.457.44483.19531L20.42773,54.665a1.10326,1.10326,0,0,1-1.58691.65723A1.08919,1.08919,0,0,1,18.252,53.73633Z" fill="#6b4129"/>
      <path d="M22.24854,53.668l.4331.11816.92236,2.22852.50245-1.83887.45947.125-.72608,2.66016-.3916-.10742-.9497-2.292-.51661,1.8916-.46-.125Z" fill="#6b4129"/>
      <path d="M25.86035,54.54688l1.02344.12011a1.37722,1.37722,0,0,1,1.2998,1.53418l-.001.00781a1.38386,1.38386,0,0,1-1.61914,1.20313L25.54,57.292Zm.7544,2.42578a.901.901,0,0,0,1.061-.81446l.001-.00781a.90751.90751,0,0,0-.84424-1.04492l-.541-.0625-.21777,1.86621Z" fill="#6b4129"/>
      <path d="M29.5376,54.87207l2.05127-.03906.0083.43457-1.56494.03027.01367.71875,1.38721-.02637.0083.43457-1.38721.02637.01465.74317,1.58447-.03028.00879.43457-2.07129.04Z" fill="#6b4129"/>
      <path d="M32.7876,54.73926l1.01562-.16309a1.3746,1.3746,0,0,1,1.665,1.1211l.00147.00781a1.38141,1.38141,0,0,1-1.22852,1.59472l-1.01562.16309Zm1.38379,2.125a.89928.89928,0,0,0,.79785-1.07031l-.00147-.00782a.90554.90554,0,0,0-1.09423-.77441l-.53711.08691.29785,1.85157Z" fill="#6b4129"/>
      <path d="M38.45605,53.88867l-.42236.29688-.22949-.33692.62012-.47363.32031-.11426.936,2.625-.45459.16211Z" fill="#6b4129"/>
      <path d="M41.03027,55.044l.07618-.44922a.92308.92308,0,0,0,.68261-.041c.36621-.17773.42969-.6084.22119-1.07422a.8124.8124,0,0,1-.45507.5459.87659.87659,0,0,1-1.26465-.36133l-.00342-.00683a.962.962,0,0,1,.51074-1.31055.99249.99249,0,0,1,.81738-.07129,1.38008,1.38008,0,0,1,.76221.80273l.00342.00684c.38818.79981.25879,1.54785-.40967,1.87207A1.309,1.309,0,0,1,41.03027,55.044Zm.69873-2.1084-.00341-.00684a.52288.52288,0,0,0-.7417-.207.50865.50865,0,0,0-.27.70215l.00342.00683a.50584.50584,0,0,0,.72412.19825A.51187.51187,0,0,0,41.729,52.93555Z" fill="#6b4129"/>
      <path d="M44.42285,53.294a1.36964,1.36964,0,0,1-.86084-.69922l-.00439-.00684c-.46387-.70508-.48926-1.47656.16308-1.90527a1.25184,1.25184,0,0,1,.87451-.207l-.01171.45605a.91717.91717,0,0,0-.6333.12891c-.34278.22558-.33008.66015-.07276,1.0957a.95684.95684,0,0,1,1.68311-.39844l.00439.00684a.95812.95812,0,0,1-.34131,1.34765A1.03993,1.03993,0,0,1,44.42285,53.294Zm.74756-1.24707L45.166,52.041a.50227.50227,0,0,0-.73584-.09278.50807.50807,0,0,0-.20118.71289l.0044.00684a.51585.51585,0,0,0,.75049.10156A.50255.50255,0,0,0,45.17041,52.04688Z" fill="#6b4129"/>
      <path d="M46.69727,51.08789l-.00538-.00586a.69612.69612,0,0,1-.06152-.834.66421.66421,0,0,1-.70508-.20508l-.00488-.00684A.98737.98737,0,0,1,47.374,48.791l.00489.00586a.661.661,0,0,1,.09472.72753.713.713,0,0,1,.80762.17969l.00488.00586c.3208.374.17969.89942-.27783,1.292C47.55078,51.39355,47.00488,51.44727,46.69727,51.08789Zm.35937-1.95312-.00488-.00586a.50776.50776,0,0,0-.75049.63769l.00537.00684a.5014.5014,0,0,0,.75-.63867Zm.85791.86816-.00488-.00586c-.16406-.19141-.46338-.15332-.71143.05957s-.332.502-.168.69336l.00489.00684c.14648.16992.43408.17285.709-.06348C48.01953,50.458,48.06348,50.17578,47.91455,50.00293Z" fill="#6b4129"/>
    </g>
  </g>
  <g>
    <path d="M160.72483,42.7101a.6033.6033,0,0,1,.17165-.394q.1721-.19611.36908-.38421c.13074-.12629.25436-.249.36909-.36908a.54387.54387,0,0,0,.17165-.37709.22053.22053,0,0,0-.09783-.19655.61021.61021,0,0,0-.23035-.09072,2.18594,2.18594,0,0,0-.26147-.032c-.088-.00534-.1592-.0089-.21345-.0089q-.27882,0-.55763.016a5.136,5.136,0,0,0-.55674.06581,4.37189,4.37189,0,0,0-.86891.25436,4.45208,4.45208,0,0,0-.90181.48382,3.01188,3.01188,0,0,0-.71327.68036,1.38223,1.38223,0,0,0-.28638.844,1.68045,1.68045,0,0,0,.33529.98364,6.33462,6.33462,0,0,0,.8449.95073q.50694.47625,1.10637.95073a11.64318,11.64318,0,0,1,1.10636.99964,5.93561,5.93561,0,0,1,.844,1.09036,2.321,2.321,0,0,1,.33618,1.20509,1.99947,1.99947,0,0,1-.30327,1.09836,2.70361,2.70361,0,0,1-.79509.8031,4.75,4.75,0,0,1-1.11438.54073,9.13051,9.13051,0,0,1-1.2789.33618,11.84084,11.84084,0,0,1-1.262.17165q-.607.05068-1.08235.0498a7.6396,7.6396,0,0,1-.86891-.0498c-.06492-.01067-.16631-.02135-.30327-.032a3.589,3.589,0,0,1-.40911-.05692,1.22111,1.22111,0,0,1-.36108-.13162.28056.28056,0,0,1-.15564-.25436c0-.185.04891-.29171.14763-.32017a1.46753,1.46753,0,0,1,.37709-.04091,3.05485,3.05485,0,0,1,.8031.10672,3.05483,3.05483,0,0,0,.80309.10672q.29482,0,.75418-.032a9.425,9.425,0,0,0,.96763-.12363q.50694-.08937,1.03255-.22945a4.23693,4.23693,0,0,0,.93383-.36019,2.35511,2.35511,0,0,0,.67236-.52473,1.06,1.06,0,0,0,.26236-.71327,1.40222,1.40222,0,0,0-.36908-.90181,7.4055,7.4055,0,0,0-.90982-.90182q-.54029-.45891-1.18819-.94272a10.3129,10.3129,0,0,1-1.18819-1.03166,5.93849,5.93849,0,0,1-.90982-1.18108,2.65859,2.65859,0,0,1-.36908-1.36873,2.11706,2.11706,0,0,1,.29527-1.12326,2.80722,2.80722,0,0,1,.77819-.82711,4.53492,4.53492,0,0,1,1.09836-.56563,8.33763,8.33763,0,0,1,1.254-.34419,11.07874,11.07874,0,0,1,1.2629-.17165q.62166-.05068,1.09747-.0498a4.92957,4.92957,0,0,1,.53273.03291,2.57894,2.57894,0,0,1,.58254.13073,1.2298,1.2298,0,0,1,.46691.28727.67679.67679,0,0,1,.18855.49982,1.42921,1.42921,0,0,1-.13074.59854,1.57461,1.57461,0,0,1-.36108.49982,2.245,2.245,0,0,1-.30327.24547c-.1254.088-.257.16987-.3931.24635a2.60519,2.60519,0,0,1-.418.18855,1.181,1.181,0,0,1-.37709.07381.42629.42629,0,0,1-.30328-.11472A.38651.38651,0,0,1,160.72483,42.7101Z"/>
    <path d="M163.53522,50.05357c0,.09872.00267.22945.00889.394a2.51134,2.51134,0,0,0,.06493.49181,1.36653,1.36653,0,0,0,.17253.426.36681.36681,0,0,0,.32729.18054,1.22086,1.22086,0,0,0,.72127-.30327,5.25784,5.25784,0,0,0,.76308-.73017,9.98391,9.98391,0,0,0,.67947-.87691q.31217-.44958.49182-.74529c.05514-.07648.11472-.153.18054-.22945a.29551.29551,0,0,1,.22945-.11473c.10939,0,.17254.03824.18855.11473a1.13659,1.13659,0,0,1,.0249.24546.53086.53086,0,0,1-.04891.19744,1.97182,1.97182,0,0,1-.12363.23746c-.04891.08182-.09783.15831-.14763.22945-.04892.07115-.08983.129-.12273.17165q-.22946.32819-.58965.77908a8.5855,8.5855,0,0,1-.79509.86091,5.76362,5.76362,0,0,1-.89381.69637,1.69747,1.69747,0,0,1-.90182.28726,1.01877,1.01877,0,0,1-.77819-.30416,2.16269,2.16269,0,0,1-.45091-.73728,3.61747,3.61747,0,0,1-.21344-.91782c-.032-.32284-.04892-.60388-.04892-.844a5.57317,5.57317,0,0,1,.10673-1.02455,9.32926,9.32926,0,0,1,.23746-.99253,2.25969,2.25969,0,0,1,.402-.74528.95543.95543,0,0,1,.77819-.30327q.37753,0,.37709.36019a1.56261,1.56261,0,0,1-.05692.386q-.0587.22146-.13963.45891-.08271.23747-.16364.47492-.08271.23747-.13163.418A7.14231,7.14231,0,0,0,163.53522,50.05357Zm.65635-6.06457a.51806.51806,0,0,1,.418.18766.66874.66874,0,0,1,.15564.4349.904.904,0,0,1-.22946.59854.70911.70911,0,0,1-.55763.27036.48991.48991,0,0,1-.41-.18854.68725.68725,0,0,1-.14764-.434.93416.93416,0,0,1,.22145-.59054A.67833.67833,0,0,1,164.19157,43.989Z"/>
    <path d="M166.865,52.59537a.29131.29131,0,0,1-.26236-.12273.50443.50443,0,0,1-.08271-.28727,12.7431,12.7431,0,0,1,.25436-2.492q.25347-1.27935.49982-2.45909.08271-.3762.14764-.77019.06535-.39354.14763-.77019a.99973.99973,0,0,1,.35219-.54073.90964.90964,0,0,1,.59854-.24636.444.444,0,0,1,.38509.14764.68907.68907,0,0,1,.10673.41,3.10224,3.10224,0,0,1-.13963.89293q-.13875.46691-.28638.8609a5.6744,5.6744,0,0,0-.27837.93383q-.09871.47625-.16453.95162.57364-.8031,1.11526-1.45945c.153-.18587.30861-.36552.46692-.54073a6.24215,6.24215,0,0,1,.46691-.46691,2.8731,2.8731,0,0,1,.4349-.32818.72542.72542,0,0,1,.3682-.12362.49572.49572,0,0,1,.37709.15653.97915.97915,0,0,1,.22145.38509,2.34891,2.34891,0,0,1,.09872.48293c.016.17075.024.32017.024.45179a.11572.11572,0,0,1-.06492.11384v2.29545c0,.09872.00267.20544.008.31928a1.20417,1.20417,0,0,0,.05692.32017.57863.57863,0,0,0,.15564.24546.4308.4308,0,0,0,.30327.09872,1.134,1.134,0,0,0,.67236-.25436,3.92709,3.92709,0,0,0,.64746-.60565,6.18517,6.18517,0,0,0,.54962-.74707c.16365-.26147.29438-.48025.3931-.65457a2.55629,2.55629,0,0,1,.16365-.24635.28211.28211,0,0,1,.22945-.13074.23653.23653,0,0,1,.20544.10584.38832.38832,0,0,1,.07382.22145.4553.4553,0,0,1-.04091.16364c-.02757.06581-.05247.121-.07382.16364a6.81165,6.81165,0,0,1-1.28691,1.77161,5.15206,5.15206,0,0,1-.91782.72039,1.80291,1.80291,0,0,1-.94272.29527.9544.9544,0,0,1-.61455-.18855,1.27356,1.27356,0,0,1-.36909-.46691,1.99253,1.99253,0,0,1-.17254-.61455,5.49078,5.49078,0,0,1-.04091-.64746v-.24635l.06582-1.86856a1.145,1.145,0,0,0-.02491-.19743q-.024-.13074-.12273-.13074a.33056.33056,0,0,0-.19655.09872c-.07648.06581-.137.12006-.18054.16364a5.902,5.902,0,0,0-.77019.91782q-.36151.52561-.65546.99965a13.25844,13.25844,0,0,0-.65635,1.17218q-.29483.599-.57364,1.222a1.31092,1.31092,0,0,1-.27036.3602A.56455.56455,0,0,1,166.865,52.59537Z"/>
    <path d="M176.65333,52.36591a1.75647,1.75647,0,0,1-.95874-.25435,2.146,2.146,0,0,1-.66435-.65635,2.75657,2.75657,0,0,1-.37709-.89293,4.31675,4.31675,0,0,1-.11473-.98363,5.28852,5.28852,0,0,1,.19655-1.36873,4.78988,4.78988,0,0,1,.59054-1.34383,3.68158,3.68158,0,0,1,.96673-1.02455,2.19593,2.19593,0,0,1,1.31182-.41,1.48215,1.48215,0,0,1,.97563.29438,1.17607,1.17607,0,0,1,.35218.95162,3.28534,3.28534,0,0,1-.0329.434,2.057,2.057,0,0,1-.11473.4509.92131.92131,0,0,1-.24635.36019.58555.58555,0,0,1-.40911.14764c-.12095,0-.18054-.05425-.18054-.16364a1.09607,1.09607,0,0,1,.14763-.46781,1.397,1.397,0,0,0,.14764-.64746,1.60368,1.60368,0,0,0-.05781-.434c-.03824-.137-.1503-.20456-.33618-.20456a1.05706,1.05706,0,0,0-.8191.426,3.83126,3.83126,0,0,0-.60655,1.01654,6.80947,6.80947,0,0,0-.37709,1.19708,4.78668,4.78668,0,0,0-.13163.96674,2.90881,2.90881,0,0,0,.06582.61455,1.67568,1.67568,0,0,0,.22145.54963,1.17309,1.17309,0,0,0,.41.39309,1.20678,1.20678,0,0,0,.61455.14764,2.748,2.748,0,0,0,1.03255-.19744,3.796,3.796,0,0,0,.90981-.51583,4.89815,4.89815,0,0,0,.77019-.73817,6.382,6.382,0,0,0,.61544-.86,2.41786,2.41786,0,0,1,.20456-.27837.36442.36442,0,0,1,.28726-.14763.23111.23111,0,0,1,.26147.26147.41336.41336,0,0,1-.04091.17254,1.5812,1.5812,0,0,1-.08982.17253,6.86178,6.86178,0,0,1-.82,1.17219,6.07181,6.07181,0,0,1-1.05656.96673,5.02032,5.02032,0,0,1-1.254.65546A4.1577,4.1577,0,0,1,176.65333,52.36591Z"/>
    <path d="M182.50623,52.21828a1.641,1.641,0,0,1-1.40164-.68125,1.96538,1.96538,0,0,1-.32017-.70438,3.573,3.573,0,0,1-.09783-.844A5.27509,5.27509,0,0,1,180.9,48.64482a7.11992,7.11992,0,0,1,.60565-1.51726,4.72535,4.72535,0,0,1,.94273-1.2371,1.73864,1.73864,0,0,1,1.20508-.50783.84192.84192,0,0,1,.68037.27926,1.05317,1.05317,0,0,1,.23746.70616,2.053,2.053,0,0,1-.25347.91248,5.31909,5.31909,0,0,1-.63945.96941,5.89629,5.89629,0,0,1-.828.83067,2.78494,2.78494,0,0,1-.82.4927,3.30961,3.30961,0,0,0-.08183.69015,1.40947,1.40947,0,0,0,.24636.88047.96854.96854,0,0,0,.8191.32017,2.39426,2.39426,0,0,0,.98364-.20455,3.84907,3.84907,0,0,0,.8529-.52473,4.86626,4.86626,0,0,0,.72127-.72928,7.72774,7.72774,0,0,0,.57364-.82,3.36453,3.36453,0,0,1,.19655-.27926.35837.35837,0,0,1,.29527-.14763.276.276,0,0,1,.15564.0498.15036.15036,0,0,1,.07381.13074.86975.86975,0,0,1-.0329.26236,1.142,1.142,0,0,1-.11473.22945,6.04448,6.04448,0,0,1-.76219,1.06546,5.74652,5.74652,0,0,1-.99164.89025,4.852,4.852,0,0,1-1.16417.60655A3.79607,3.79607,0,0,1,182.50623,52.21828Zm1.06545-6.06546c-.16364,0-.32817.1174-.49182.35219a5.1868,5.1868,0,0,0-.45891.82,8.22956,8.22956,0,0,0-.36108.93383,5.197,5.197,0,0,0-.17965.68037,4.72624,4.72624,0,0,0,.57364-.434,4.444,4.444,0,0,0,1.01654-1.2958,1.48782,1.48782,0,0,0,.17965-.67948.59553.59553,0,0,0-.05692-.25436A.22063.22063,0,0,0,183.57168,46.15282Z"/>
    <path d="M189.55532,52.28409a2.81886,2.81886,0,0,1,.11473-.63145q.11472-.43489.27036-.92671.15609-.49094.31128-.95073c.10406-.30505.17787-.54073.22145-.70527q.27882-.98185.50872-1.95837a13.44822,13.44822,0,0,0,.31127-1.99218q-.16408.13208-.46691.37-.30417.23745-.63945.466a7.10488,7.10488,0,0,1-.65635.402,1.17734,1.17734,0,0,1-.51583.17253.22147.22147,0,0,1-.21345-.09071.47985.47985,0,0,1,.04091-.49093,1.17327,1.17327,0,0,1,.21345-.22234,1.80582,1.80582,0,0,1,.27837-.17965,2.45784,2.45784,0,0,0,.27036-.16365,10.06968,10.06968,0,0,0,1.17218-.97563,8.28351,8.28351,0,0,0,.99164-1.15528,1.02729,1.02729,0,0,1,.402-.34507,1.2574,1.2574,0,0,1,.51672-.09783,1.94156,1.94156,0,0,1,.22945.016.89274.89274,0,0,1,.24547.06582.59632.59632,0,0,1,.19655.13162.284.284,0,0,1,.08271.21256.56552.56552,0,0,1-.06582.27037c-.04358.08182-.09338.16631-.14763.25347a5.97675,5.97675,0,0,0-.45891,1.08235c-.121.38332-.22946.76041-.32818,1.13127q-.1961.73773-.41,1.72981-.21211.9912-.3931,1.92636-.21345,1.08058-.41,2.19584a.77785.77785,0,0,1-.19655.3851,1.06772,1.06772,0,0,1-.36019.24635,1.81581,1.81581,0,0,1-.45091.12273,3.1509,3.1509,0,0,1-.4349.03291.18222.18222,0,0,1-.18854-.09783A.59051.59051,0,0,1,189.55532,52.28409Z"/>
    <path d="M200.43846,46.64375a8.79173,8.79173,0,0,1-.89292,3.98435,11.77734,11.77734,0,0,1-2.4671,3.27819c-.10939.09783-.25436.22946-.4349.3931a6.21816,6.21816,0,0,1-.58164.4678,6.02423,6.02423,0,0,1-.61455.3851,1.14311,1.14311,0,0,1-.51672.16453.55348.55348,0,0,1-.23746-.0498.21025.21025,0,0,1-.10672-.21345.238.238,0,0,1,.13073-.22056,2.34133,2.34133,0,0,1,.24636-.12274,3.77978,3.77978,0,0,0,1.02454-.68925,7.43139,7.43139,0,0,0,.95073-1.07346,10.17961,10.17961,0,0,0,.828-1.34472,11.54571,11.54571,0,0,0,.64746-1.50836,12.04067,12.04067,0,0,0,.426-1.54838,7.35849,7.35849,0,0,0,.15564-1.45945,4.866,4.866,0,0,0-.09872-.91782,3.787,3.787,0,0,0-.31928-.95873,2.35051,2.35051,0,0,0-.57364-.75418,1.27574,1.27574,0,0,0-.8609-.30328A2.59312,2.59312,0,0,0,194.3899,46.907a1.993,1.993,0,0,0,.62255,1.59018,2.41244,2.41244,0,0,0,1.6391.54074,2.16741,2.16741,0,0,0,.48381-.04981,2.919,2.919,0,0,0,.46692-.14763,1.889,1.889,0,0,0,.18854-.07293.48991.48991,0,0,1,.20544-.04091.22025.22025,0,0,1,.09783.024.09275.09275,0,0,1,.04981.08983.42332.42332,0,0,1-.19744.32017,2.33129,2.33129,0,0,1-.45891.27926,4.78205,4.78205,0,0,1-.53273.21256c-.17965.05958-.31394.10138-.4011.12273-.15386.0329-.30594.06314-.45891.08982a2.51785,2.51785,0,0,1-.4598.04091,2.3729,2.3729,0,0,1-.98275-.20455,2.638,2.638,0,0,1-.804-.54874,2.55117,2.55117,0,0,1-.73728-1.80274,2.86222,2.86222,0,0,1,.41-1.42653,5.146,5.146,0,0,1,1.04856-1.29492,6.08568,6.08568,0,0,1,1.39363-.94272,3.28968,3.28968,0,0,1,1.44255-.36909,2.61423,2.61423,0,0,1,1.21309.28727,3.14137,3.14137,0,0,1,.95873.75418,3.5874,3.5874,0,0,1,.63145,1.06545A3.38068,3.38068,0,0,1,200.43846,46.64375Z"/>
    <path d="M201.0121,49.15264a8.77885,8.77885,0,0,1,.89292-3.98345,11.7643,11.7643,0,0,1,2.46709-3.2782c.10939-.09872.25436-.22945.4349-.394a6.36734,6.36734,0,0,1,1.19619-.8529,1.14487,1.14487,0,0,1,.51672-.16365.546.546,0,0,1,.23746.04981.20807.20807,0,0,1,.10673.21256c0,.088-.06048.16986-.18055.24635a.55127.55127,0,0,1-.19654.09783,4.722,4.722,0,0,0-.66436.402,4.97857,4.97857,0,0,0-.58164.49982,9.00143,9.00143,0,0,0-1.08147,1.41765,12.002,12.002,0,0,0-.8858,1.7058,11.482,11.482,0,0,0-.59855,1.82675,7.73647,7.73647,0,0,0-.22056,1.77072,4.86772,4.86772,0,0,0,.09783.91871,3.82482,3.82482,0,0,0,.32017.95874,2.33816,2.33816,0,0,0,.57364.75418,1.27282,1.27282,0,0,0,.86.30238,2.59312,2.59312,0,0,0,2.75435-2.75347,1.99586,1.99586,0,0,0-.62255-1.59018,2.412,2.412,0,0,0-1.64-.54073,2.221,2.221,0,0,0-.48292.04891,3.05026,3.05026,0,0,0-.4678.14764c-.06493.02223-.12807.04713-.18855.07381a.49684.49684,0,0,1-.20455.04091.21371.21371,0,0,1-.09872-.0249.09186.09186,0,0,1-.04892-.08982.42451.42451,0,0,1,.19655-.31928,2.70072,2.70072,0,0,1,.45891-.28727,4.2167,4.2167,0,0,1,.53273-.22145c.18054-.06048.31395-.10139.402-.12273q.22946-.04937.45892-.08182a3.185,3.185,0,0,1,.45891-.03291,2.3806,2.3806,0,0,1,.98363.20544,2.64245,2.64245,0,0,1,.8031.54785,2.547,2.547,0,0,1,.73817,1.80363,2.87384,2.87384,0,0,1-.41,1.42654,5.16557,5.16557,0,0,1-1.04945,1.29491,6.06138,6.06138,0,0,1-1.39274.94273,3.291,3.291,0,0,1-1.44255.36819,2.60848,2.60848,0,0,1-1.21309-.28637,3.1589,3.1589,0,0,1-.95962-.75418,3.59644,3.59644,0,0,1-.63056-1.06546A3.3629,3.3629,0,0,1,201.0121,49.15264Z"/>
    <path d="M215.70171,43.79245a.31175.31175,0,0,1-.30328-.22234,2.10356,2.10356,0,0,1-.12273-.3842v-.0338a1.82648,1.82648,0,0,0-.32017-.69548,1.27578,1.27578,0,0,0-.48292-.37709,2.04324,2.04324,0,0,0-.63145-.15653q-.35219-.032-.74618-.032a4.28751,4.28751,0,0,0-.72927.07293,3.55978,3.55978,0,0,0-.79509.23835,2.06936,2.06936,0,0,0-.64746.434.90231.90231,0,0,0-.27037.66346,1.42213,1.42213,0,0,0,.17165.59944,5.56817,5.56817,0,0,0,.42689.72038q.25347.36953.52384.71327c.18054.22945.33618.42156.4678.57453l1.81964-1.13127c.14141-.08716.27837-.17254.41-.25436.13073-.08182.273-.16186.426-.23835a.72271.72271,0,0,1,.36019-.11384.3847.3847,0,0,1,.18855.04892.17221.17221,0,0,1,.09071.16364.24761.24761,0,0,1-.04091.13074c-.02757.04446-.0578.088-.09071.13162-.04358.04447-.08716.08716-.13074.13163a1.818,1.818,0,0,1-.36908.31127c-.137.08716-.27037.17966-.402.27838q-.42555.32817-.86.63945-.43489.31216-.87691.62255c.153.19744.31394.418.48292.66436q.25481.36953.47581.76218a5.33274,5.33274,0,0,1,.36909.8031,2.37714,2.37714,0,0,1,.14763.80309,2.40763,2.40763,0,0,1-.29527,1.18819,3.00485,3.00485,0,0,1-.77107.91071,3.43327,3.43327,0,0,1-1.07347.57275,3.87432,3.87432,0,0,1-1.22109.19744,2.621,2.621,0,0,1-1.72092-.56564,2.00748,2.00748,0,0,1-.68926-1.6471,2.50276,2.50276,0,0,1,.25436-1.12327,4.8501,4.8501,0,0,1,.63945-.97563,6.58763,6.58763,0,0,1,.852-.844q.46825-.38555.90982-.71327c-.16364-.18588-.35485-.40644-.57364-.66436a8.2648,8.2648,0,0,1-.61455-.8191,6.28775,6.28775,0,0,1-.48381-.86891,2.01482,2.01482,0,0,1-.19655-.82711,1.3926,1.3926,0,0,1,.426-1.04944,2.98057,2.98057,0,0,1,1.04144-.63946,5.89419,5.89419,0,0,1,1.2789-.31928,8.6722,8.6722,0,0,1,1.15529-.09071,5.61255,5.61255,0,0,1,.92582.09071,4.52079,4.52079,0,0,1,1.01655.29438,2.40552,2.40552,0,0,1,.812.54874,1.213,1.213,0,0,1,.32729.8698.6478.6478,0,0,1-.15564.4091A.47347.47347,0,0,1,215.70171,43.79245Zm-3.90164,3.58947q-.31083.28015-.68837.59854a7.50592,7.50592,0,0,0-.70526.68037,3.88358,3.88358,0,0,0-.54874.77018,1.8358,1.8358,0,0,0-.22145.88581,1.77509,1.77509,0,0,0,.10672.60655,1.57475,1.57475,0,0,0,.30328.51583,1.47112,1.47112,0,0,0,.46691.35218,1.34589,1.34589,0,0,0,.59854.13163,1.69156,1.69156,0,0,0,.77909-.18054,1.83648,1.83648,0,0,0,.59765-.48292,2.20833,2.20833,0,0,0,.37709-.68926,2.41145,2.41145,0,0,0,.13162-.77819,2.02309,2.02309,0,0,0-.11472-.64746,4.36,4.36,0,0,0-.28727-.65635,5.07272,5.07272,0,0,0-.38509-.60655A6.26144,6.26144,0,0,0,211.80007,47.38192Z"/>
  </g>
  <g>
    <g>
      <path d="M82.5992,29.91385H74.14056v-.55737c2.64563-.10725,2.71748-.78054,2.71748-2.92153V11.93881H75.30161c-3.18377,0-3.96549.55618-4.60576,3.70622H70l.17625-4.924H86.5078l.1728,4.924h-.69466c-.60084-3.186-1.42318-3.70622-4.60113-3.70622H79.81674V26.75276c0,1.97461.34454,2.518,2.78246,2.60372Z"/>
      <path d="M87.67456,29.44009c2.10514-.10618,2.20952-.65939,2.20952-2.53946V16.04872c0-1.85632-.35724-2.10169-2.20952-2.25122v-.48017h6.959v.48017c-1.89634.14953-2.1967.47376-2.1967,2.25122v4.866h7.59225v-4.866c0-1.85632-.3538-2.10169-2.21535-2.25122v-.48017H104.782v.48017c-1.90786.14953-2.20834.47376-2.20834,2.25122v11.1297c0,1.66024.25523,2.134,2.20834,2.26167v.47376H97.81375v-.47376c2.11558-.10618,2.21535-.65939,2.21535-2.53946v-4.887H92.43685v5.16479c0,1.66024.25166,2.134,2.1967,2.26167v.47376h-6.959Z"/>
      <path d="M119.1013,29.91385H105.58v-.47376c1.61332-.10618,2.18161-.33635,2.18161-2.26167V16.04872c0-1.98281-.59846-2.13233-2.18161-2.25122v-.48017h13.29862l.07992,3.58734h-.63089c-.37922-2.23852-1.02875-2.63341-3.80313-2.63341h-3.37736c-.52542,0-.82815,0-.82815.85417v5.55909h3.853c2.22331,0,2.47735-.60144,2.765-2.38175h.56711v5.82182H116.937c-.30856-2.00824-.68314-2.355-2.765-2.38875l-3.853-.04467v6.2109c0,1.02875,0,1.05143,3.73472,1.05143,3.12331,0,4.38295-.75037,5.47322-3.27653h.71557Z"/>
      <path d="M139.37942,10.721h7.587v.55381c-1.74444.145-2.34991.23029-4.40741,2.26107l-5.50161,5.45007,6.7496,7.24022c1.88352,2.08827,2.89375,3.19589,4.543,3.13033v.55737h-8.828v-.55737c1.531-.05333,2.02509-.08575,2.02509-.71783,0-.90013-2.78127-3.88947-3.76477-4.86953l-3.07011-3.04457-.75273.60891v5.4193c0,2.02794.3468,2.49647,2.605,2.60372v.55737h-8.16411v-.55737c2.264-.10725,2.60739-.55144,2.60739-2.92153V13.88444c0-2.26285-.64027-2.46464-2.60739-2.60965V10.721h8.22789v.55381c-2.26167.145-2.66879.46865-2.66879,2.60965v5.93713c6.54484-5.88321,7.38582-6.66494,7.38582-7.6438,0-.787-.5487-.84954-1.96593-.903Z"/>
      <path d="M148.77454,29.44009c2.1271-.05808,2.42176-.48659,2.42176-2.26167V16.04872c0-1.85632-.341-2.155-2.42176-2.25122v-.48017h7.4311v.48017c-1.82094.07126-2.4485.24585-2.4485,2.25122v11.1297c0,1.96012.60321,2.20359,2.4485,2.26167v.47376h-7.4311Z"/>
      <path d="M174.36381,13.7975c-1.57853.17386-2.37651.26841-2.37651,3.20337v13.189h-.42793l-11.01949-13.7352h-.04525v9.77149c0,2.57889.52305,3.13033,2.34979,3.21394v.47376h-5.88035v-.47376c1.90216-.12769,2.42984-.50927,2.42984-3.21394v-11.052c-1.02876-1.25773-1.42769-1.37662-2.42984-1.37662v-.48017h4.27867l9.59061,12.0581h.051V17.00087c0-2.881-.70392-3.08448-2.4043-3.20337v-.48017h5.88381Z"/>
      <path d="M192.5,21.49237c-1.10986.09216-1.75251.15011-1.75251,1.92758v5.03652c0,.34857-3.34256,1.80477-6.09366,1.80477a9.62409,9.62409,0,0,1-7.03667-2.6821c-1.321-1.45619-2.07377-2.9321-2.07377-6.21551a8.37794,8.37794,0,0,1,8.556-8.39607c2.533,0,3.68472.82994,4.49316.82994.19953,0,1.02875-.12648,1.16914-.82994h.55665l.20535,5.28831h-.58457c-.67625-1.80121-1.97757-4.28451-5.48022-4.28451-2.3846,0-6.07051,1.5751-6.07051,7.924,0,4.52629,2.61072,7.35971,6.49972,7.35971,1.69682,0,3.41679-.5677,3.41679-1.4765V23.72031c0-2.07783-.48825-2.101-2.1967-2.22794v-.45119H192.5Z"/>
    </g>
    <path d="M217.48654,16.84148c-.71912-3.044-2.80336-5.36194-6.371-5.36194a6.42142,6.42142,0,0,0-4.34008,1.76c-1.12614,1.11177-2.40086,2.96049-2.40086,7.137,0,6.14532,3.45052,8.66387,7.08892,8.66387a9.03617,9.03617,0,0,0,6.54142-2.9239l.52541.52079a9.6395,9.6395,0,0,1-7.84391,3.6795c-4.66134,0-9.67185-2.78293-9.67185-9.99656a9.60058,9.60058,0,0,1,9.84346-10.00344c2.57592,0,4.463.958,5.09508.958a1.294,1.294,0,0,0,1.33386-.958h.60547l.25738,6.52466Z"/>
    <path d="M233.34481,29.91385H219.81542v-.47376c1.60869-.10618,2.18162-.33635,2.18162-2.26167V16.04872c0-1.98281-.60547-2.13233-2.18162-2.25122v-.48017h13.29969l.06959,3.58734h-.62162c-.37-2.23852-1.02875-2.63341-3.8042-2.63341h-3.38555c-.52079,0-.82008,0-.82008.85417v5.55909h3.85182c2.22925,0,2.47628-.60144,2.76038-2.38175h.56722v5.82182h-.56722c-.30037-2.00824-.68078-2.355-2.76038-2.38875l-3.85182-.04467v6.2109c0,1.02875,0,1.05143,3.7289,1.05143,3.12344,0,4.38295-.75037,5.4813-3.27653h.70749Z"/>
    <path d="M252.52139,13.7975c-1.57507.17386-2.38352.26841-2.38352,3.20337v13.189h-.42328l-11.01141-13.7352h-.06377v9.77149c0,2.57889.5405,3.13033,2.358,3.21394v.47376h-5.8838v-.47376c1.89741-.12769,2.43209-.50927,2.43209-3.21394v-11.052c-1.01711-1.25773-1.42424-1.37662-2.43209-1.37662v-.48017h4.28663l9.58479,12.0581h.06033V17.00087c0-2.881-.70748-3.08448-2.40086-3.20337v-.48017h5.87691Z"/>
    <path d="M264.2194,29.91385h-7.31506v-.47376c2.28376-.10618,2.358-.68374,2.358-2.53946V14.36746h-1.35584c-2.75347,0-3.42854.4797-3.98639,3.2093h-.60072l.16117-4.25943h14.1244l.13338,4.25943h-.595c-.52424-2.75288-1.21546-3.2093-3.98058-3.2093h-1.35v12.811c0,1.70667.29929,2.17806,2.40668,2.26167Z"/>
    <path d="M282.02851,29.91385H268.49914v-.47376c1.60287-.10618,2.19207-.33635,2.19207-2.26167V16.04872c0-1.98281-.60547-2.13233-2.19207-2.25122v-.48017h13.31013l.05808,3.58734h-.61592c-.38041-2.23852-1.02876-2.63341-3.81464-2.63341h-3.38557c-.52079,0-.82113,0-.82113.85417v5.55909h3.85871c2.23386,0,2.48672-.60144,2.75347-2.38175h.57874v5.82182h-.57874c-.30036-2.00824-.6797-2.355-2.75347-2.38875l-3.85871-.04467v6.2109c0,1.02875,0,1.05143,3.73459,1.05143,3.12925,0,4.38414-.75037,5.48712-3.27653h.69716Z"/>
    <path d="M300,29.91385h-4.02453l-5.958-7.717-1.415.047v4.9345c0,1.68292.25286,2.15549,2.25585,2.26167v.47376h-6.93807v-.47376c2.04122-.12769,2.13754-.65939,2.13754-2.53946V16.04872c0-1.85632-.38041-2.07736-2.13754-2.25122v-.48017h6.91135c2.23387,0,6.3768.52483,6.3768,4.3858,0,3.3618-3.26382,3.96429-4.543,4.21834l5.15886,6.33666A2.80111,2.80111,0,0,0,300,29.44009Zm-11.39754-8.60367c2.10739-.02541,5.8629-.07423,5.8629-3.65574,0-3.33567-3.2846-3.40693-4.2972-3.40693-1.32911,0-1.5657.174-1.5657.9012Z"/>
  </g>
</svg>
