<svg id="Artwork" xmlns="http://www.w3.org/2000/svg" xmlns:xlink="http://www.w3.org/1999/xlink" width="230" height="90" viewBox="0 0 230 90">
  <defs>
    <linearGradient id="linear-gradient" x1="115.00003" y1="52.50006" x2="115.00003" y2="7.50006" gradientUnits="userSpaceOnUse">
      <stop offset="0" stop-color="#004937"/>
      <stop offset="1" stop-color="#0db14b"/>
    </linearGradient>
  </defs>
  <title>the-king-center-logo-stacked</title>
  <g>
    <g>
      <circle cx="115" cy="30" r="29.75" fill="#ffcc4d"/>
      <path d="M115,.50006A29.5,29.5,0,1,1,85.5,30a29.53338,29.53338,0,0,1,29.5-29.5m0-.5a30,30,0,1,0,30,30,30,30,0,0,0-30-30Z" fill="#6b4129"/>
    </g>
    <circle cx="115.00003" cy="30.00006" r="22.5" stroke="#6b4129" stroke-miterlimit="10" stroke-width="0.5" fill="url(#linear-gradient)"/>
    <g>
      <path d="M117.8635,19.81025a2.772,2.772,0,1,1-2.77169-2.77677A2.77339,2.77339,0,0,1,117.8635,19.81025Z" fill="#ffcc4d" stroke="#004937" stroke-miterlimit="10" stroke-width="0.25"/>
      <path d="M111.79614,38.81825a2.77158,2.77158,0,1,1-2.76976-2.77392A2.77124,2.77124,0,0,1,111.79614,38.81825Z" fill="#ffcc4d" stroke="#004937" stroke-miterlimit="10" stroke-width="0.25"/>
      <path d="M107.98853,27.0279a2.77381,2.77381,0,1,1-2.77534-2.777A2.77538,2.77538,0,0,1,107.98853,27.0279Z" fill="#ffcc4d" stroke="#004937" stroke-miterlimit="10" stroke-width="0.25"/>
      <path d="M127.74377,27.30825a2.77366,2.77366,0,1,1-2.77391-2.77557A2.77329,2.77329,0,0,1,127.74377,27.30825Z" fill="#ffcc4d" stroke="#004937" stroke-miterlimit="10" stroke-width="0.25"/>
      <path d="M123.92978,38.9235a2.77255,2.77255,0,1,1-2.77175-2.77226A2.7692,2.7692,0,0,1,123.92978,38.9235Z" fill="#ffcc4d" stroke="#004937" stroke-miterlimit="10" stroke-width="0.25"/>
      <g>
        <path d="M109.67949,23.47031c.08769.12942.18377.25748.28229.38137C109.87466,23.72226,109.77807,23.59449,109.67949,23.47031Z" fill="#ffcc4d" stroke="#004937" stroke-miterlimit="10" stroke-width="0.25"/>
        <path d="M113.62354,12.84028a1.86362,1.86362,0,0,0-1.711-.84018,4.17981,4.17981,0,0,0-2.6108,1.07268c-.05428.04539-.105.09072-.15867.13582a.36622.36622,0,0,1-.04288.03649c-.06015.05821-.11637.11192-.16061.15616a8.86386,8.86386,0,0,0-2.73,6.409,8.76119,8.76119,0,0,0,.14419,1.58292,8.90655,8.90655,0,0,0,4.57487,6.27006c.01562-.18012.02617-.36023.02617-.5429a5.85369,5.85369,0,0,0-.993-3.26865c-.09852-.12389-.1946-.252-.28229-.38137a6.54008,6.54008,0,0,1,3.59107-9.939,1.386,1.386,0,0,0,.29061-.07714.21354.21354,0,0,0,.12805-.11637A.57749.57749,0,0,0,113.62354,12.84028Z" fill="#ffcc4d" stroke="#004937" stroke-miterlimit="10" stroke-width="0.25"/>
      </g>
      <g>
        <path d="M121.30615,13.46a6.00257,6.00257,0,0,0-.49278-.44489,4.1347,4.1347,0,0,0-2.53673-1.01505,1.85821,1.85821,0,0,0-1.711.84018.56329.56329,0,0,0-.0674.49752.22294.22294,0,0,0,.13028.11973,1.67185,1.67185,0,0,0,.27949.07378,6.53823,6.53823,0,0,1,4.53234,4.74716,9.61762,9.61762,0,0,1,2.27224-.60385A8.87442,8.87442,0,0,0,121.30615,13.46Z" fill="#ffcc4d" stroke="#004937" stroke-miterlimit="10" stroke-width="0.25"/>
        <path d="M120.19367,23.887c.11249-.1414.21939-.28422.3202-.43206C120.40246,23.59249,120.295,23.73782,120.19367,23.887Z" fill="#ffcc4d" stroke="#004937" stroke-miterlimit="10" stroke-width="0.25"/>
        <path d="M120.51387,23.455c-.10081.14784-.20771.29066-.3202.43206a6.519,6.519,0,0,1-4.75943,2.44853c-.11471.00553-.22943.012-.34243.012-.191,0-.37807-.012-.56571-.02731.01448.22521.029.45549.029.68572a9.75934,9.75934,0,0,1-.14812,1.66674c.22384.01533.451.02674.68487.02674.13638,0,.27-.00394.40646-.01141a8.78035,8.78035,0,0,0,3.736-1.01727,8.88721,8.88721,0,0,0,4.59466-6.26116A5.84464,5.84464,0,0,0,120.51387,23.455Z" fill="#ffcc4d" stroke="#004937" stroke-miterlimit="10" stroke-width="0.25"/>
      </g>
      <g>
        <g>
          <path d="M119.83179,23.1549c-.09858.1219-.18821.25166-.27784.38109C119.65025,23.4146,119.7449,23.28518,119.83179,23.1549Z" fill="#ffcc4d" stroke="#004937" stroke-miterlimit="10" stroke-width="0.25"/>
          <path d="M131.14857,23.70886a1.8734,1.8734,0,0,0,.28171-1.88613,4.21455,4.21455,0,0,0-1.80733-2.16727c-.06237-.03706-.12025-.07407-.17875-.11164-.01613-.007-.0317-.01785-.04732-.02617-.074-.0426-.1414-.07966-.19818-.108a8.8463,8.8463,0,0,0-6.92653-.67262,9.07217,9.07217,0,0,0-1.4649.61583,8.88656,8.88656,0,0,0-4.59078,6.25751c.17487-.03843.34917-.08461.52341-.14a5.79711,5.79711,0,0,0,2.814-1.93431c.08963-.12943.17926-.25919.27784-.38109a6.52634,6.52634,0,0,1,10.5473.42339,1.77713,1.77713,0,0,0,.16147.25783.21244.21244,0,0,0,.15143.08381A.5719.5719,0,0,0,131.14857,23.70886Z" fill="#ffcc4d" stroke="#004937" stroke-miterlimit="10" stroke-width="0.25"/>
        </g>
        <g>
          <path d="M132.87129,31.22806a4.99416,4.99416,0,0,0,.27892-.60465,4.14105,4.14105,0,0,0,.1999-2.72881,1.88052,1.88052,0,0,0-1.31569-1.38115.58526.58526,0,0,0-.49387.09128.20467.20467,0,0,0-.07241.16039,1.26833,1.26833,0,0,0,.01175.287,6.55044,6.55044,0,0,1-3.15427,5.75777,9.66713,9.66713,0,0,1,1.26169,1.98334A8.82218,8.82218,0,0,0,132.87129,31.22806Z" fill="#ffcc4d" stroke="#004937" stroke-miterlimit="10" stroke-width="0.25"/>
          <path d="M122.60958,33.31272c.1637.0646.33412.12641.50562.176C122.9498,33.42185,122.77943,33.36284,122.60958,33.31272Z" fill="#ffcc4d" stroke="#004937" stroke-miterlimit="10" stroke-width="0.25"/>
          <path d="M123.1152,33.48867c-.1715-.04954-.34192-.11135-.50562-.176a6.51234,6.51234,0,0,1-3.77111-3.80259c-.04231-.10583-.08074-.21466-.11415-.32436-.0557-.18234-.1036-.36524-.1459-.54815-.20936.08547-.42425.16506-.64644.23468a9.74269,9.74269,0,0,1-1.62859.36245c.04954.22.10969.44238.18148.66092.03791.13142.08523.25754.12977.38559a8.8706,8.8706,0,0,0,9.44929,5.74637A5.86,5.86,0,0,0,123.1152,33.48867Z" fill="#ffcc4d" stroke="#004937" stroke-miterlimit="10" stroke-width="0.25"/>
        </g>
      </g>
      <g>
        <g>
          <path d="M123.46875,33.0009c-.14978-.05564-.29956-.10354-.45213-.14533C123.16754,32.90734,123.31618,32.95637,123.46875,33.0009Z" fill="#ffcc4d" stroke="#004937" stroke-miterlimit="10" stroke-width="0.25"/>
          <path d="M126.48208,43.92125a1.87981,1.87981,0,0,0,1.8814-.31848,4.2001,4.2001,0,0,0,1.48776-2.40144c.01784-.06791.03563-.13473.049-.2032a.45364.45364,0,0,0,.0134-.05348c.01779-.08182.02948-.15868.04066-.22271a8.83725,8.83725,0,0,0-1.53286-6.78507,8.86891,8.86891,0,0,0-8.41538-3.60663c.09191.15423.18764.30595.2979.45573a5.8422,5.8422,0,0,0,2.71269,2.0696c.15257.04179.30235.08969.45213.14533a6.46173,6.46173,0,0,1,3.04509,2.309,6.52858,6.52858,0,0,1-.14813,7.84185,1.30024,1.30024,0,0,0-.19043.235.22137.22137,0,0,0-.03786.16706A.578.578,0,0,0,126.48208,43.92125Z" fill="#ffcc4d" stroke="#004937" stroke-miterlimit="10" stroke-width="0.25"/>
        </g>
        <g>
          <path d="M119.89189,47.91736a5.85679,5.85679,0,0,0,.65812.07349,4.12324,4.12324,0,0,0,2.65316-.6648,1.87462,1.87462,0,0,0,.8964-1.68093.5793.5793,0,0,0-.2394-.44381.21754.21754,0,0,0-.1743-.02167,1.69289,1.69289,0,0,0-.27117.10519,6.54777,6.54777,0,0,1-6.45376-1.19817,9.44252,9.44252,0,0,1-1.48718,1.82347A8.9075,8.9075,0,0,0,119.89189,47.91736Z" fill="#ffcc4d" stroke="#004937" stroke-miterlimit="10" stroke-width="0.25"/>
          <path d="M114.6976,38.81215c-.00838.181-.0134.35857-.00838.53452C114.69925,39.17072,114.70205,38.99312,114.6976,38.81215Z" fill="#ffcc4d" stroke="#004937" stroke-miterlimit="10" stroke-width="0.25"/>
          <path d="M114.68922,39.34667c-.005-.176,0-.35355.00838-.53452a6.51053,6.51053,0,0,1,2.42926-4.77c.08969-.06961.17988-.14031.2706-.20714.15645-.11192.31569-.211.47665-.3101-.147-.17544-.29124-.35247-.42483-.54011a9.4853,9.4853,0,0,1-.853-1.43822c-.19658.11859-.38644.24722-.57186.38144q-.16455.11938-.32237.24665a8.78047,8.78047,0,0,0-2.44043,3.01167,8.885,8.885,0,0,0-.06067,7.75947A5.87793,5.87793,0,0,0,114.68922,39.34667Z" fill="#ffcc4d" stroke="#004937" stroke-miterlimit="10" stroke-width="0.25"/>
        </g>
      </g>
      <g>
        <g>
          <path d="M115.51606,39.03707c.00445-.15644.00445-.31455,0-.471C115.50773,38.72252,115.51218,38.88063,115.51606,39.03707Z" fill="#ffcc4d" stroke="#004937" stroke-miterlimit="10" stroke-width="0.25"/>
          <path d="M106.09208,45.32606a1.87045,1.87045,0,0,0,.892,1.68766,4.20164,4.20164,0,0,0,2.74079.66588c.07127-.0061.14088-.01112.21215-.02.01585-.00171.03866-.00171.054-.005.08489-.01117.159-.02115.22162-.03175a8.82886,8.82886,0,0,0,5.966-3.583,9.049,9.049,0,0,0,.81629-1.3669,8.90792,8.90792,0,0,0-.029-7.75667,5.22825,5.22825,0,0,0-.33964.42426,5.80052,5.80052,0,0,0-1.11026,3.22553c.00445.15645.00445.31456,0,.471a6.52919,6.52919,0,0,1-8.7305,5.93652,1.63064,1.63064,0,0,0-.28422-.108.22012.22012,0,0,0-.17236.02059A.57566.57566,0,0,0,106.09208,45.32606Z" fill="#ffcc4d" stroke="#004937" stroke-miterlimit="10" stroke-width="0.25"/>
        </g>
        <g>
          <path d="M100.23773,40.31046a5.42539,5.42539,0,0,0,.13193.65089,4.162,4.162,0,0,0,1.46353,2.3146,1.88952,1.88952,0,0,0,1.87918.32682.59169.59169,0,0,0,.3438-.36747.21948.21948,0,0,0-.03592-.17258,1.445,1.445,0,0,0-.18068-.22385,6.54251,6.54251,0,0,1-.89087-6.50279,9.59817,9.59817,0,0,1-2.19179-.8424A8.82328,8.82328,0,0,0,100.23773,40.31046Z" fill="#ffcc4d" stroke="#004937" stroke-miterlimit="10" stroke-width="0.25"/>
          <path d="M107.24579,32.53207c-.16957.04789-.34215.10023-.50755.16038C106.90558,32.64792,107.07873,32.59279,107.24579,32.53207Z" fill="#ffcc4d" stroke="#004937" stroke-miterlimit="10" stroke-width="0.25"/>
          <path d="M106.73824,32.69245c.1654-.06015.338-.11249.50755-.16038a6.50825,6.50825,0,0,1,5.29315.81235c.0963.0618.19037.12532.28393.19437.15646.11135.29734.23051.441.35241.1231-.19431.24443-.38417.38252-.57181a9.32192,9.32192,0,0,1,1.09578-1.26226c-.17373-.14757-.35521-.28782-.539-.42317-.11135-.08239-.22384-.15919-.33519-.23382A8.877,8.877,0,0,0,102.8552,32.4035,5.84126,5.84126,0,0,0,106.73824,32.69245Z" fill="#ffcc4d" stroke="#004937" stroke-miterlimit="10" stroke-width="0.25"/>
        </g>
      </g>
      <g>
        <g>
          <path d="M106.8546,33.26762c.152-.04065.30236-.09242.44963-.1442C107.15,33.1646,107.00216,33.21636,106.8546,33.26762Z" fill="#ffcc4d" stroke="#004937" stroke-miterlimit="10" stroke-width="0.25"/>
          <path d="M97.9916,26.20722a1.86721,1.86721,0,0,0-1.33131,1.36609,4.19764,4.19764,0,0,0,.20412,2.81651c.02639.06574.0537.12948.0821.19237a.51131.51131,0,0,0,.02087.05126c.03591.07458.06933.14419.0955.2032a8.85283,8.85283,0,0,0,5.23522,4.5902,9.01156,9.01156,0,0,0,1.54791.35635,8.893,8.893,0,0,0,7.38-2.39476c-.16814-.07184-.33519-.13644-.51-.19432a5.8162,5.8162,0,0,0-3.41175-.0707c-.14727.05178-.29762.10355-.44963.1442a6.52834,6.52834,0,0,1-8.31707-6.50752,1.86918,1.86918,0,0,0,.01813-.30207.20826.20826,0,0,0-.07213-.15559A.57.57,0,0,0,97.9916,26.20722Z" fill="#ffcc4d" stroke="#004937" stroke-miterlimit="10" stroke-width="0.25"/>
        </g>
        <g>
          <path d="M100.97408,19.09391a5.062,5.062,0,0,0-.57545.32659,4.15165,4.15165,0,0,0-1.75614,2.10022,1.87566,1.87566,0,0,0,.26421,1.88807.57116.57116,0,0,0,.45407.21854.211.211,0,0,0,.15172-.08883,1.43753,1.43753,0,0,0,.15674-.24027,6.544,6.544,0,0,1,5.922-2.83156,9.53906,9.53906,0,0,1,.13364-2.35046A8.8991,8.8991,0,0,0,100.97408,19.09391Z" fill="#ffcc4d" stroke="#004937" stroke-miterlimit="10" stroke-width="0.25"/>
          <path d="M110.52555,23.399c-.09858-.15115-.20127-.29762-.3129-.43988C110.31117,23.11031,110.4142,23.25564,110.52555,23.399Z" fill="#ffcc4d" stroke="#004937" stroke-miterlimit="10" stroke-width="0.25"/>
          <path d="M110.21265,22.95916c.11163.14226.21432.28873.3129.43988a6.53151,6.53151,0,0,1,.84354,5.29286c-.03119.10827-.06294.216-.09635.32681-.0601.181-.13028.35635-.20155.52842.21774.05542.43879.11723.65813.18929a9.41122,9.41122,0,0,1,1.53451.66064c.08689-.21215.17042-.42676.2389-.64422q.06516-.195.11916-.39055a8.89279,8.89279,0,0,0-4.31573-10.18873A5.86,5.86,0,0,0,110.21265,22.95916Z" fill="#ffcc4d" stroke="#004937" stroke-miterlimit="10" stroke-width="0.25"/>
        </g>
      </g>
    </g>
    <g>
      <path d="M90.48438,18.90039l-.45167.94824-.76806-.36523L90.58594,16.71l.76758.36524-.45166.94921,2.39355,1.13965-.417.877Z" fill="#6b4129"/>
      <path d="M91.49805,15.15918l.56543-.78711,1.06347.76367.72559-1.01074-1.06348-.76367.56543-.78809,2.84131,2.041-.56543.78711L94.55078,14.626l-.72558,1.01074,1.07959.77539-.56543.78711Z" fill="#6b4129"/>
      <path d="M94.75195,10.96973l2.02735-1.959.57422.59375-1.33643,1.291.36914.38183,1.21-1.16894.53223.55078-1.21,1.16894.38623.39942,1.354-1.30762.57373.59375L97.187,13.49023Z" fill="#6b4129"/>
      <path d="M100.15186,6.50488l.84668-.47363.69287,1.23926.35937-1.82813,1.00391-.56152-.42188,1.96094,2.16992,1.07226-1.01757.56836-1.40235-.70508-.11719.51856.44141.79-.8457.47363Z" fill="#6b4129"/>
      <path d="M104.64453,4.24512l.91016-.34766,1.25,3.26856-.91016.34765Z" fill="#6b4129"/>
      <path d="M107.502,3.22949l.88282-.19043L110.18066,4.543,109.791,2.73633l.9375-.20215.7373,3.418-.83008.17871-1.86426-1.56055.4043,1.875-.9375.20215Z" fill="#6b4129"/>
      <path d="M112.74609,4.0498V4.03906a1.81868,1.81868,0,0,1,1.85352-1.85547,2.04193,2.04193,0,0,1,1.43066.48438l-.55761.69629a1.23684,1.23684,0,0,0-.85157-.31543.92138.92138,0,0,0-.8789.97754v.00976a.92587.92587,0,0,0,.96875.9541.99269.99269,0,0,0,.55859-.15625l-.00781-.4248-.69141.0127-.01269-.71094,1.61133-.0293.02832,1.57617a2.364,2.364,0,0,1-1.51172.56836A1.80149,1.80149,0,0,1,112.74609,4.0498Z" fill="#6b4129"/>
      <path d="M119.80859,4.40234l.00293-.00976a1.79964,1.79964,0,0,1,2.23536-1.31641,1.71337,1.71337,0,0,1,1.26171,1.07129l-.8457.37012a.93933.93933,0,0,0-.64258-.585.86643.86643,0,0,0-1.03613.69433l-.00293.00977a.8685.8685,0,0,0,.582,1.11133.95719.95719,0,0,0,.8711-.21973l.582.68262a1.84428,1.84428,0,0,1-3.00782-1.8086Z" fill="#6b4129"/>
      <path d="M125.21875,4.16406l2.55957,1.16016-.33984.75L125.752,5.30957l-.21875.48242,1.52735.69239-.31446.69531-1.52734-.69239-.22949.50489,1.71.77441-.33984.751-2.583-1.16992Z" fill="#6b4129"/>
      <path d="M129.57324,6.3291l.74024.51953.11621,2.33887,1.06152-1.5127.78516.55079-2.00879,2.8623-.69531-.4873-.1211-2.42871-1.10156,1.57031-.78516-.55078Z" fill="#6b4129"/>
      <path d="M133.81836,10.77637l-.73633-.74707.60352-.59668,2.15527,2.18359-.60449.59668L134.5,11.46582l-1.88477,1.86035-.68066-.68945Z" fill="#6b4129"/>
      <path d="M136.96484,12.99121,138.5791,15.294l-.6748.47265L136.83984,14.25l-.43359.30371.96484,1.374-.626.43946-.96387-1.374-.4541.31836,1.0791,1.53711-.67578.47364L134.10156,14.999Z" fill="#6b4129"/>
      <path d="M139.60742,17.07227l.69238,1.50488a1.537,1.537,0,0,1,.13184,1.19629,1.0912,1.0912,0,0,1-.6123.62207l-.00879.0039a1.109,1.109,0,0,1-1.2793-.20507l-.75977,1.26953-.46875-1.01856.66993-1.084-.00391-.00977-.17383-.377-.96484.44336-.40528-.88281Zm-.85351,2.167c.13671.2998.3623.40527.59375.29883l.00976-.00391c.25-.11523.293-.35547.1582-.65137l-.26562-.57715-.76367.35157Z" fill="#6b4129"/>
    </g>
    <g>
      <path d="M98.12744,48.293l1.55811,1.335-.28711.335L98.2085,48.94238l-.48975.57129,1.05566.90528-.28711.335-1.05566-.90528-.73047.85254-.36816-.31543Z" fill="#6b4129"/>
      <path d="M99.70068,51.38379l.00391-.00684a1.44436,1.44436,0,0,1,2.43994,1.5459l-.00488.00684a1.44395,1.44395,0,0,1-2.439-1.5459Zm2.00537,1.27832.00489-.00586a.94657.94657,0,0,0-.26367-1.333.93309.93309,0,0,0-1.30909.32031l-.00439.00684a.94607.94607,0,0,0,.26367,1.333A.932.932,0,0,0,101.70605,52.66211Z" fill="#6b4129"/>
      <path d="M103.25195,53.73633l.63965-1.458.44434.19531-.63086,1.43946a.67981.67981,0,0,0,.32226,1.0039.66546.66546,0,0,0,.94629-.42578l.63965-1.457.44434.19531-.62989,1.43555a1.10337,1.10337,0,0,1-1.58691.65723A1.0889,1.0889,0,0,1,103.25195,53.73633Z" fill="#6b4129"/>
      <path d="M107.24805,53.668l.43359.11816.92188,2.22852.50293-1.83887.46.125-.72657,2.66016-.3916-.10742-.95019-2.292-.51563,1.8916-.46094-.125Z" fill="#6b4129"/>
      <path d="M110.86035,54.54688l1.02344.12011a1.37753,1.37753,0,0,1,1.2998,1.53418l-.001.00781a1.38435,1.38435,0,0,1-1.61914,1.20313L110.54,57.292Zm.75488,2.42578a.9006.9006,0,0,0,1.06055-.81446l.001-.00781a.90757.90757,0,0,0-.84473-1.04492l-.541-.0625-.2168,1.86621Z" fill="#6b4129"/>
      <path d="M114.53711,54.87207l2.05176-.03906.00879.43457-1.56543.03027.01367.71875,1.38769-.02637.00782.43457-1.38672.02637.01367.74317,1.585-.03028.00879.43457-2.07129.04Z" fill="#6b4129"/>
      <path d="M117.78711,54.73926l1.01562-.16309a1.37532,1.37532,0,0,1,1.666,1.1211l.001.00781a1.38109,1.38109,0,0,1-1.22852,1.59472l-1.01562.16309Zm1.38477,2.125a.89861.89861,0,0,0,.79687-1.07031l-.001-.00782a.90577.90577,0,0,0-1.09472-.77441l-.53711.08691.29883,1.85157Z" fill="#6b4129"/>
      <path d="M123.45605,53.88867l-.42285.29688-.22851-.33692.61914-.47363.32031-.11426.93652,2.625-.4541.16211Z" fill="#6b4129"/>
      <path d="M126.03027,55.044l.07618-.44922a.9227.9227,0,0,0,.68261-.041c.36621-.17773.42969-.6084.22071-1.07422a.80729.80729,0,0,1-.45508.5459.87554.87554,0,0,1-1.26367-.36133l-.00391-.00683a.96167.96167,0,0,1,.51074-1.31055.99249.99249,0,0,1,.81738-.07129,1.37818,1.37818,0,0,1,.76172.80273l.00391.00684c.38867.79981.25879,1.54785-.41016,1.87207A1.30737,1.30737,0,0,1,126.03027,55.044Zm.69825-2.1084-.00293-.00684a.52233.52233,0,0,0-.74121-.207.50851.50851,0,0,0-.27051.70215l.00293.00683a.56765.56765,0,0,0,1.01172-.49511Z" fill="#6b4129"/>
      <path d="M129.42285,53.294a1.36784,1.36784,0,0,1-.86035-.69922l-.00488-.00684c-.46387-.70508-.48926-1.47656.16308-1.90527a1.25254,1.25254,0,0,1,.875-.207l-.01172.45605a.91794.91794,0,0,0-.63378.12891c-.34278.22558-.33008.66015-.07325,1.0957a.95737.95737,0,0,1,1.6836-.39844l.0039.00684a.95758.95758,0,0,1-.34082,1.34765A1.03954,1.03954,0,0,1,129.42285,53.294Zm.74707-1.24707-.0039-.00586a.50289.50289,0,0,0-.73633-.09278.50923.50923,0,0,0-.20117.71289l.00488.00684a.51619.51619,0,0,0,.751.10156A.50188.50188,0,0,0,130.16992,52.04688Z" fill="#6b4129"/>
      <path d="M131.69727,51.08789l-.00586-.00586a.69675.69675,0,0,1-.06055-.834.66372.66372,0,0,1-.70508-.20508l-.00586-.00684A.98755.98755,0,0,1,132.374,48.791l.00489.00586a.66189.66189,0,0,1,.09472.72753.713.713,0,0,1,.80762.17969l.00488.00586c.32129.374.17969.89942-.27832,1.292C132.55078,51.39355,132.00488,51.44727,131.69727,51.08789Zm.35937-1.95312-.00488-.00586a.50805.50805,0,0,0-.751.63769l.00586.00684a.50132.50132,0,0,0,.75-.63867Zm.85742.86816-.0039-.00586c-.16407-.19141-.46387-.15332-.71192.05957s-.332.502-.168.69336l.00489.00684c.14648.16992.43359.17285.709-.06348C133.01953,50.458,133.06348,50.17578,132.91406,50.00293Z" fill="#6b4129"/>
    </g>
  </g>
  <g>
    <g>
      <path d="M12.5992,89.597H4.14056v-.55737c2.64563-.10725,2.71748-.78054,2.71748-2.92154V71.622H5.30161c-3.18377,0-3.96549.55618-4.60576,3.70622H0l.17625-4.924H16.5078l.1728,4.924h-.69466c-.60084-3.186-1.42318-3.70622-4.60113-3.70622H9.81674v14.814c0,1.97461.34454,2.518,2.78246,2.60372Z"/>
      <path d="M17.67456,89.12327c2.10514-.10618,2.20952-.65939,2.20952-2.53946V75.7319c0-1.85632-.35724-2.10169-2.20952-2.25122v-.48017h6.959v.48017c-1.89634.14953-2.1967.47376-2.1967,2.25122v4.866H30.0291v-4.866c0-1.85632-.3538-2.10169-2.21535-2.25122v-.48017H34.782v.48017c-1.90786.14953-2.20834.47376-2.20834,2.25122V86.8616c0,1.66024.25523,2.134,2.20834,2.26167V89.597H27.81375v-.47376c2.11558-.10618,2.21535-.65939,2.21535-2.53946v-4.887H22.43685V86.8616c0,1.66024.25166,2.134,2.1967,2.26167V89.597h-6.959Z"/>
      <path d="M49.1013,89.597H35.58v-.47376c1.61332-.10618,2.18161-.33635,2.18161-2.26167V75.7319c0-1.98281-.59846-2.13233-2.18161-2.25122v-.48017H48.87862l.07992,3.58734h-.63089c-.37922-2.23852-1.02875-2.63341-3.80313-2.63341H41.14716c-.52542,0-.82815,0-.82815.85417V80.3677h3.853c2.22331,0,2.47735-.60144,2.765-2.38175h.56711v5.82181H46.937c-.30856-2.00823-.68314-2.355-2.765-2.38874l-3.853-.04467v6.21089c0,1.02876,0,1.05144,3.73472,1.05144,3.12331,0,4.383-.75038,5.47322-3.27653h.71557Z"/>
      <path d="M69.37942,70.40416h7.587V70.958c-1.74444.145-2.34991.23029-4.40741,2.26107l-5.50161,5.45007,6.7496,7.24022c1.88352,2.08827,2.89375,3.19589,4.54305,3.13033V89.597H69.522v-.55737c1.531-.05333,2.02509-.08575,2.02509-.71783,0-.90013-2.78127-3.88947-3.76477-4.86953l-3.07011-3.04458-.75273.60892v5.4193c0,2.02794.3468,2.49647,2.605,2.60372V89.597H58.40043v-.55737c2.264-.10725,2.60739-.55144,2.60739-2.92154V73.56762c0-2.26285-.64027-2.46464-2.60739-2.60965v-.55381h8.22789V70.958c-2.26167.145-2.66879.46865-2.66879,2.60965v5.93712c6.54484-5.8832,7.38582-6.66493,7.38582-7.64379,0-.787-.5487-.84954-1.96593-.903Z"/>
      <path d="M78.77454,89.12327c2.1271-.05808,2.42176-.48659,2.42176-2.26167V75.7319c0-1.85632-.341-2.155-2.42176-2.25122v-.48017h7.4311v.48017c-1.82094.07126-2.4485.24585-2.4485,2.25122V86.8616c0,1.96012.60321,2.20359,2.4485,2.26167V89.597h-7.4311Z"/>
      <path d="M104.36381,73.48068c-1.57853.17386-2.37651.26841-2.37651,3.20337V89.873h-.42793L90.53988,76.13784h-.04525v9.77149c0,2.57889.523,3.13033,2.34979,3.21394V89.597H86.96407v-.47376c1.90216-.12769,2.42984-.50927,2.42984-3.21394V74.8573c-1.02876-1.25773-1.42769-1.37662-2.42984-1.37662v-.48017h4.27867l9.59061,12.0581h.051V76.68405c0-2.88105-.70392-3.08448-2.4043-3.20337v-.48017h5.88381Z"/>
      <path d="M122.5,81.17555c-1.10986.09216-1.75251.15011-1.75251,1.92757v5.03653c0,.34857-3.34256,1.80477-6.09366,1.80477a9.62409,9.62409,0,0,1-7.03667-2.6821c-1.321-1.45619-2.07377-2.9321-2.07377-6.21551a8.37794,8.37794,0,0,1,8.556-8.39607c2.533,0,3.68472.82994,4.49316.82994.19953,0,1.02875-.12648,1.16914-.82994h.55665l.20535,5.28831h-.58457c-.67625-1.80121-1.97757-4.28451-5.48022-4.28451-2.3846,0-6.07051,1.57509-6.07051,7.924,0,4.52629,2.61072,7.35971,6.49972,7.35971,1.69682,0,3.41679-.5677,3.41679-1.4765V83.40348c0-2.07782-.48825-2.101-2.1967-2.22793v-.45119H122.5Z"/>
    </g>
    <path d="M147.48654,76.52466c-.71912-3.044-2.80336-5.36194-6.371-5.36194a6.42142,6.42142,0,0,0-4.34008,1.76c-1.12614,1.11177-2.40086,2.96049-2.40086,7.137,0,6.14532,3.45052,8.66387,7.08892,8.66387a9.03617,9.03617,0,0,0,6.54142-2.9239l.52541.52079A9.6395,9.6395,0,0,1,140.68646,90c-4.66134,0-9.67185-2.78293-9.67185-9.99656A9.60058,9.60058,0,0,1,140.85807,70c2.57592,0,4.463.958,5.09508.958A1.294,1.294,0,0,0,147.287,70h.60547l.25738,6.52466Z"/>
    <path d="M163.34481,89.597H149.81542v-.47376c1.60869-.10618,2.18162-.33635,2.18162-2.26167V75.7319c0-1.98281-.60547-2.13233-2.18162-2.25122v-.48017h13.29969l.06959,3.58734h-.62162c-.37-2.23852-1.02875-2.63341-3.8042-2.63341h-3.38555c-.52079,0-.82008,0-.82008.85417V80.3677h3.85182c2.22925,0,2.47628-.60144,2.76038-2.38175h.56722v5.82181h-.56722c-.30037-2.00823-.68078-2.355-2.76038-2.38874l-3.85182-.04467v6.21089c0,1.02876,0,1.05144,3.7289,1.05144,3.12344,0,4.38295-.75038,5.4813-3.27653h.70749Z"/>
    <path d="M182.52139,73.48068c-1.57507.17386-2.38352.26841-2.38352,3.20337V89.873h-.42328l-11.01141-13.7352h-.06377v9.77149c0,2.57889.5405,3.13033,2.358,3.21394V89.597h-5.8838v-.47376c1.89741-.12769,2.43209-.50927,2.43209-3.21394V74.8573c-1.01711-1.25773-1.42424-1.37662-2.43209-1.37662v-.48017h4.28663l9.58479,12.0581h.06033V76.68405c0-2.88105-.70748-3.08448-2.40086-3.20337v-.48017h5.87691Z"/>
    <path d="M194.2194,89.597h-7.31506v-.47376c2.28376-.10618,2.358-.68374,2.358-2.53946V74.05064h-1.35584c-2.75347,0-3.42854.4797-3.98639,3.2093h-.60072l.16117-4.25943H197.605l.13338,4.25943h-.595c-.52424-2.75288-1.21546-3.2093-3.98058-3.2093h-1.35v12.811c0,1.70667.29929,2.17806,2.40668,2.26167Z"/>
    <path d="M212.02851,89.597H198.49914v-.47376c1.60287-.10618,2.19207-.33635,2.19207-2.26167V75.7319c0-1.98281-.60547-2.13233-2.19207-2.25122v-.48017h13.31013l.05808,3.58734h-.61592c-.38041-2.23852-1.02876-2.63341-3.81464-2.63341h-3.38557c-.52079,0-.82113,0-.82113.85417V80.3677h3.85871c2.23386,0,2.48672-.60144,2.75347-2.38175h.57874v5.82181h-.57874c-.30036-2.00823-.6797-2.355-2.75347-2.38874l-3.85871-.04467v6.21089c0,1.02876,0,1.05144,3.73459,1.05144,3.12925,0,4.38414-.75038,5.48712-3.27653h.69716Z"/>
    <path d="M230,89.597h-4.02453l-5.958-7.717-1.415.047v4.9345c0,1.68292.25286,2.15549,2.25585,2.26167V89.597h-6.93807v-.47376c2.04122-.12769,2.13754-.65939,2.13754-2.53946V75.7319c0-1.85632-.38041-2.07736-2.13754-2.25122v-.48017h6.91135c2.23387,0,6.3768.52483,6.3768,4.3858,0,3.3618-3.26382,3.96429-4.54305,4.21834l5.15886,6.33666A2.80111,2.80111,0,0,0,230,89.12327Zm-11.39754-8.60367c2.10739-.02542,5.8629-.07423,5.8629-3.65574,0-3.33567-3.2846-3.40693-4.2972-3.40693-1.32911,0-1.5657.174-1.5657.9012Z"/>
  </g>
</svg>
